G04 #@! TF.GenerationSoftware,KiCad,Pcbnew,(5.1.5-0)*
G04 #@! TF.CreationDate,2020-09-26T18:09:29-04:00*
G04 #@! TF.ProjectId,vectron_handheld_pcb,76656374-726f-46e5-9f68-616e6468656c,rev?*
G04 #@! TF.SameCoordinates,Original*
G04 #@! TF.FileFunction,Copper,L4,Bot*
G04 #@! TF.FilePolarity,Positive*
%FSLAX46Y46*%
G04 Gerber Fmt 4.6, Leading zero omitted, Abs format (unit mm)*
G04 Created by KiCad (PCBNEW (5.1.5-0)) date 2020-09-26 18:09:29*
%MOMM*%
%LPD*%
G04 APERTURE LIST*
%ADD10O,2.000000X1.440000*%
%ADD11R,2.000000X1.440000*%
%ADD12C,1.600000*%
%ADD13R,1.600000X1.600000*%
%ADD14O,1.440000X2.000000*%
%ADD15R,1.440000X2.000000*%
%ADD16C,1.700000*%
%ADD17O,1.600000X1.600000*%
%ADD18O,1.700000X1.700000*%
%ADD19R,1.700000X1.700000*%
%ADD20C,0.800000*%
%ADD21C,0.250000*%
G04 APERTURE END LIST*
D10*
X-16510000Y-19050000D03*
X-24130000Y-19050000D03*
X-16510000Y-16510000D03*
X-24130000Y-16510000D03*
X-16510000Y-13970000D03*
X-24130000Y-13970000D03*
X-16510000Y-11430000D03*
X-24130000Y-11430000D03*
X-16510000Y-8890000D03*
X-24130000Y-8890000D03*
X-16510000Y-6350000D03*
X-24130000Y-6350000D03*
X-16510000Y-3810000D03*
D11*
X-24130000Y-3810000D03*
D12*
X213360000Y-123190000D03*
X213360000Y-130810000D03*
X228600000Y-130810000D03*
D13*
X228600000Y-123190000D03*
D10*
X-16510000Y-62230000D03*
X-24130000Y-62230000D03*
X-16510000Y-59690000D03*
X-24130000Y-59690000D03*
X-16510000Y-57150000D03*
X-24130000Y-57150000D03*
X-16510000Y-54610000D03*
X-24130000Y-54610000D03*
X-16510000Y-52070000D03*
X-24130000Y-52070000D03*
X-16510000Y-49530000D03*
X-24130000Y-49530000D03*
X-16510000Y-46990000D03*
D11*
X-24130000Y-46990000D03*
D10*
X-24130000Y-87630000D03*
X-16510000Y-87630000D03*
X-24130000Y-90170000D03*
X-16510000Y-90170000D03*
X-24130000Y-92710000D03*
X-16510000Y-92710000D03*
X-24130000Y-95250000D03*
X-16510000Y-95250000D03*
X-24130000Y-97790000D03*
X-16510000Y-97790000D03*
X-24130000Y-100330000D03*
X-16510000Y-100330000D03*
X-24130000Y-102870000D03*
D11*
X-16510000Y-102870000D03*
D14*
X50800000Y-33020000D03*
X50800000Y-25400000D03*
X53340000Y-33020000D03*
X53340000Y-25400000D03*
X55880000Y-33020000D03*
X55880000Y-25400000D03*
X58420000Y-33020000D03*
X58420000Y-25400000D03*
X60960000Y-33020000D03*
X60960000Y-25400000D03*
X63500000Y-33020000D03*
X63500000Y-25400000D03*
X66040000Y-33020000D03*
X66040000Y-25400000D03*
X68580000Y-33020000D03*
X68580000Y-25400000D03*
X71120000Y-33020000D03*
X71120000Y-25400000D03*
X73660000Y-33020000D03*
D15*
X73660000Y-25400000D03*
D10*
X176530000Y-54610000D03*
X161290000Y-54610000D03*
X176530000Y-52070000D03*
X161290000Y-52070000D03*
X176530000Y-49530000D03*
X161290000Y-49530000D03*
X176530000Y-46990000D03*
X161290000Y-46990000D03*
X176530000Y-44450000D03*
X161290000Y-44450000D03*
X176530000Y-41910000D03*
X161290000Y-41910000D03*
X176530000Y-39370000D03*
X161290000Y-39370000D03*
X176530000Y-36830000D03*
X161290000Y-36830000D03*
X176530000Y-34290000D03*
X161290000Y-34290000D03*
X176530000Y-31750000D03*
X161290000Y-31750000D03*
X176530000Y-29210000D03*
X161290000Y-29210000D03*
X176530000Y-26670000D03*
X161290000Y-26670000D03*
X176530000Y-24130000D03*
X161290000Y-24130000D03*
X176530000Y-21590000D03*
D11*
X161290000Y-21590000D03*
D14*
X76200000Y2540000D03*
X76200000Y-5080000D03*
X73660000Y2540000D03*
X73660000Y-5080000D03*
X71120000Y2540000D03*
X71120000Y-5080000D03*
X68580000Y2540000D03*
X68580000Y-5080000D03*
X66040000Y2540000D03*
X66040000Y-5080000D03*
X63500000Y2540000D03*
X63500000Y-5080000D03*
X60960000Y2540000D03*
X60960000Y-5080000D03*
X58420000Y2540000D03*
X58420000Y-5080000D03*
X55880000Y2540000D03*
X55880000Y-5080000D03*
X53340000Y2540000D03*
D15*
X53340000Y-5080000D03*
D10*
X154940000Y-124460000D03*
X139700000Y-124460000D03*
X154940000Y-121920000D03*
X139700000Y-121920000D03*
X154940000Y-119380000D03*
X139700000Y-119380000D03*
X154940000Y-116840000D03*
X139700000Y-116840000D03*
X154940000Y-114300000D03*
X139700000Y-114300000D03*
X154940000Y-111760000D03*
X139700000Y-111760000D03*
X154940000Y-109220000D03*
X139700000Y-109220000D03*
X154940000Y-106680000D03*
X139700000Y-106680000D03*
X154940000Y-104140000D03*
X139700000Y-104140000D03*
X154940000Y-101600000D03*
X139700000Y-101600000D03*
X154940000Y-99060000D03*
X139700000Y-99060000D03*
X154940000Y-96520000D03*
X139700000Y-96520000D03*
X154940000Y-93980000D03*
X139700000Y-93980000D03*
X154940000Y-91440000D03*
X139700000Y-91440000D03*
X154940000Y-88900000D03*
X139700000Y-88900000D03*
X154940000Y-86360000D03*
X139700000Y-86360000D03*
X154940000Y-83820000D03*
X139700000Y-83820000D03*
X154940000Y-81280000D03*
X139700000Y-81280000D03*
X154940000Y-78740000D03*
X139700000Y-78740000D03*
X154940000Y-76200000D03*
D11*
X139700000Y-76200000D03*
D10*
X74930000Y-182880000D03*
X67310000Y-182880000D03*
X74930000Y-180340000D03*
X67310000Y-180340000D03*
X74930000Y-177800000D03*
X67310000Y-177800000D03*
X74930000Y-175260000D03*
X67310000Y-175260000D03*
X74930000Y-172720000D03*
X67310000Y-172720000D03*
X74930000Y-170180000D03*
X67310000Y-170180000D03*
X74930000Y-167640000D03*
D11*
X67310000Y-167640000D03*
D10*
X201930000Y-54610000D03*
X186690000Y-54610000D03*
X201930000Y-52070000D03*
X186690000Y-52070000D03*
X201930000Y-49530000D03*
X186690000Y-49530000D03*
X201930000Y-46990000D03*
X186690000Y-46990000D03*
X201930000Y-44450000D03*
X186690000Y-44450000D03*
X201930000Y-41910000D03*
X186690000Y-41910000D03*
X201930000Y-39370000D03*
X186690000Y-39370000D03*
X201930000Y-36830000D03*
X186690000Y-36830000D03*
X201930000Y-34290000D03*
X186690000Y-34290000D03*
X201930000Y-31750000D03*
X186690000Y-31750000D03*
X201930000Y-29210000D03*
X186690000Y-29210000D03*
X201930000Y-26670000D03*
X186690000Y-26670000D03*
X201930000Y-24130000D03*
X186690000Y-24130000D03*
X201930000Y-21590000D03*
D11*
X186690000Y-21590000D03*
D10*
X186690000Y-72390000D03*
X201930000Y-72390000D03*
X186690000Y-74930000D03*
X201930000Y-74930000D03*
X186690000Y-77470000D03*
X201930000Y-77470000D03*
X186690000Y-80010000D03*
X201930000Y-80010000D03*
X186690000Y-82550000D03*
X201930000Y-82550000D03*
X186690000Y-85090000D03*
X201930000Y-85090000D03*
X186690000Y-87630000D03*
X201930000Y-87630000D03*
X186690000Y-90170000D03*
X201930000Y-90170000D03*
X186690000Y-92710000D03*
X201930000Y-92710000D03*
X186690000Y-95250000D03*
X201930000Y-95250000D03*
X186690000Y-97790000D03*
X201930000Y-97790000D03*
X186690000Y-100330000D03*
X201930000Y-100330000D03*
X186690000Y-102870000D03*
X201930000Y-102870000D03*
X186690000Y-105410000D03*
X201930000Y-105410000D03*
X186690000Y-107950000D03*
X201930000Y-107950000D03*
X186690000Y-110490000D03*
X201930000Y-110490000D03*
X186690000Y-113030000D03*
X201930000Y-113030000D03*
X186690000Y-115570000D03*
X201930000Y-115570000D03*
X186690000Y-118110000D03*
X201930000Y-118110000D03*
X186690000Y-120650000D03*
D11*
X201930000Y-120650000D03*
D16*
X199390000Y-170180000D03*
X205890000Y-170180000D03*
X199390000Y-174680000D03*
X205890000Y-174680000D03*
X5080000Y-170180000D03*
X11580000Y-170180000D03*
X5080000Y-174680000D03*
X11580000Y-174680000D03*
X-5230000Y-180340000D03*
X1270000Y-180340000D03*
X-5230000Y-184840000D03*
X1270000Y-184840000D03*
X-5080000Y-160020000D03*
X1420000Y-160020000D03*
X-5080000Y-164520000D03*
X1420000Y-164520000D03*
X-15240000Y-170180000D03*
X-8740000Y-170180000D03*
X-15240000Y-174680000D03*
X-8740000Y-174680000D03*
X199390000Y-151130000D03*
X205890000Y-151130000D03*
X199390000Y-155630000D03*
X205890000Y-155630000D03*
D17*
X87630000Y-157480000D03*
D12*
X97790000Y-157480000D03*
D17*
X87630000Y-170180000D03*
D12*
X97790000Y-170180000D03*
D17*
X87630000Y-189230000D03*
D12*
X97790000Y-189230000D03*
D17*
X87630000Y-176530000D03*
D12*
X97790000Y-176530000D03*
D17*
X87630000Y-163830000D03*
D12*
X97790000Y-163830000D03*
D17*
X125730000Y-128270000D03*
D12*
X125730000Y-118110000D03*
D17*
X130810000Y-121920000D03*
D12*
X130810000Y-111760000D03*
D17*
X162560000Y-88900000D03*
D12*
X162560000Y-99060000D03*
D17*
X162560000Y-83820000D03*
D12*
X162560000Y-73660000D03*
D17*
X52070000Y-176530000D03*
D12*
X41910000Y-176530000D03*
D17*
X41910000Y-166370000D03*
D12*
X52070000Y-166370000D03*
D17*
X41910000Y-184150000D03*
D12*
X52070000Y-184150000D03*
D17*
X41910000Y-171450000D03*
D12*
X52070000Y-171450000D03*
D17*
X97790000Y-182880000D03*
D12*
X87630000Y-182880000D03*
D17*
X184150000Y-135890000D03*
D12*
X184150000Y-146050000D03*
D17*
X175260000Y-118110000D03*
D12*
X175260000Y-107950000D03*
D17*
X210820000Y-106680000D03*
D12*
X210820000Y-116840000D03*
D18*
X25400000Y-106680000D03*
X25400000Y-104140000D03*
X25400000Y-101600000D03*
X25400000Y-99060000D03*
X25400000Y-96520000D03*
X25400000Y-93980000D03*
X25400000Y-91440000D03*
X25400000Y-88900000D03*
X25400000Y-86360000D03*
D19*
X25400000Y-83820000D03*
D12*
X219790000Y-15240000D03*
D13*
X224790000Y-15240000D03*
D12*
X82550000Y-157560000D03*
X82550000Y-162560000D03*
X57150000Y-174070000D03*
X57150000Y-179070000D03*
X82550000Y-167720000D03*
X82550000Y-172720000D03*
X57150000Y-163910000D03*
X57150000Y-168910000D03*
X82550000Y-176610000D03*
X82550000Y-181610000D03*
D18*
X222250000Y2540000D03*
D19*
X222250000Y5080000D03*
D20*
X163830000Y-5080000D03*
X158750000Y-91440000D03*
X158750000Y-121920000D03*
X147320000Y-78740000D03*
X198120000Y-120650000D03*
X209550000Y-34290000D03*
X209550000Y-72390000D03*
X199390000Y-34290000D03*
X179070000Y-34290000D03*
X177800000Y-6350000D03*
X162560000Y3810000D03*
X181610000Y-58420000D03*
X180340000Y-55880000D03*
X210820000Y-39370000D03*
X210820000Y-74930000D03*
X199390000Y-39370000D03*
X179070000Y-39370000D03*
X179070000Y-3810000D03*
X179070000Y-26670000D03*
X199390000Y-26670000D03*
X173990000Y-26670000D03*
X172720000Y-77470000D03*
X175260000Y3810000D03*
X207010000Y-31750000D03*
X207010000Y-77470000D03*
X179070000Y-31750000D03*
X199390000Y-31750000D03*
X207010000Y-17780000D03*
X163830000Y5260001D03*
X170180000Y-58420000D03*
X172720000Y-20320000D03*
X208280000Y-29210000D03*
X208280000Y-80010000D03*
X179070000Y-29210000D03*
X199390000Y-29210000D03*
X223524265Y6354265D03*
X223520000Y-82550000D03*
X-11430000Y-92710000D03*
X-11430000Y7620000D03*
X222250000Y-82550000D03*
X222250000Y-25400000D03*
X195580000Y-25400000D03*
X152400000Y-26670000D03*
X199390000Y-44450000D03*
X179070000Y-44450000D03*
X179070000Y-85090000D03*
X171450000Y-111760000D03*
X171450000Y-85090000D03*
X220980000Y-85090000D03*
X220980000Y-29210000D03*
X195580000Y-29210000D03*
X152400000Y-29210000D03*
X212090000Y-46990000D03*
X212090000Y-87630000D03*
X180340000Y-46990000D03*
X199390000Y-46990000D03*
X184150000Y-109220000D03*
X219710000Y-86360000D03*
X219710000Y-30480000D03*
X194310000Y-31750000D03*
X152400000Y-31750000D03*
X198120000Y-49530000D03*
X198120000Y-90170000D03*
X173990000Y-90170000D03*
X173990000Y-49530000D03*
X180340000Y-49530000D03*
X196850000Y-49530000D03*
X167640000Y-106680000D03*
X167640000Y-90170000D03*
X218440000Y-90170000D03*
X218440000Y-34290000D03*
X195580000Y-34290000D03*
X151130000Y-34290000D03*
X196850000Y-52070000D03*
X196850000Y-92710000D03*
X180340000Y-52070000D03*
X195580000Y-52070000D03*
X166370000Y-104140000D03*
X166370000Y-92710000D03*
X217170000Y-92710000D03*
X217170000Y-38100000D03*
X195580000Y-36830000D03*
X148590000Y-88900000D03*
X196125000Y-54610000D03*
X195580000Y-95250000D03*
X180340000Y-54610000D03*
X194310000Y-54610000D03*
X165100000Y-101600000D03*
X165100000Y-95250000D03*
X215900000Y-95250000D03*
X215900000Y-40640000D03*
X195580000Y-39370000D03*
X149860000Y-86360000D03*
X185407507Y-56425000D03*
X214630000Y-97790000D03*
X214630000Y-43180000D03*
X200660000Y-43180000D03*
X151130000Y-83820000D03*
X160020000Y-96520000D03*
X160020000Y-100330000D03*
X213360000Y-100330000D03*
X213360000Y-45720000D03*
X195580000Y-45720000D03*
X152400000Y-81280000D03*
X157480000Y-93980000D03*
X157480000Y-102870000D03*
X168910000Y-120650000D03*
X168910000Y-105410000D03*
X19050000Y-114300000D03*
X-10160000Y-85090000D03*
X146050000Y-49530000D03*
X203200000Y-57150000D03*
X168910000Y-2359999D03*
X168910000Y-41910000D03*
X152400000Y-25400000D03*
X162560000Y-25400000D03*
X1270000Y-92710000D03*
X148590000Y-8890000D03*
X171450000Y-8890000D03*
X171450000Y-24130000D03*
X-21590000Y-54610000D03*
X-21590000Y-97790000D03*
D21*
X162540000Y-54610000D02*
X161290000Y-54610000D01*
X163830000Y-53320000D02*
X162540000Y-54610000D01*
X163830000Y-5080000D02*
X163830000Y-53320000D01*
X186410000Y-115570000D02*
X186690000Y-115570000D01*
X185440000Y-116540000D02*
X186410000Y-115570000D01*
X185440000Y-116820000D02*
X185440000Y-116540000D01*
X184150000Y-118110000D02*
X185440000Y-116820000D01*
X175260000Y-118110000D02*
X184150000Y-118110000D01*
X76180000Y-174290000D02*
X75210000Y-175260000D01*
X76180000Y-174010000D02*
X76180000Y-174290000D01*
X75210000Y-175260000D02*
X74930000Y-175260000D01*
X80010000Y-170180000D02*
X76180000Y-174010000D01*
X87630000Y-170180000D02*
X80010000Y-170180000D01*
X82550000Y-172720000D02*
X80010000Y-170180000D01*
X177800000Y-110490000D02*
X186690000Y-110490000D01*
X175260000Y-107950000D02*
X177800000Y-110490000D01*
X158750000Y-91440000D02*
X158750000Y-121920000D01*
X186690000Y-133350000D02*
X184150000Y-135890000D01*
X186690000Y-120650000D02*
X186690000Y-133350000D01*
X199390000Y-151130000D02*
X184150000Y-135890000D01*
X140745010Y-85314990D02*
X147320000Y-78740000D01*
X138987143Y-85314990D02*
X140745010Y-85314990D01*
X18701999Y-113574999D02*
X110727134Y-113574999D01*
X41910000Y-171450000D02*
X18324999Y-147864999D01*
X18324999Y-113951999D02*
X18701999Y-113574999D01*
X18324999Y-147864999D02*
X18324999Y-113951999D01*
X110727134Y-113574999D02*
X138987143Y-85314990D01*
X163359999Y-84619999D02*
X162560000Y-83820000D01*
X163685001Y-84945001D02*
X163359999Y-84619999D01*
X97060001Y-185275001D02*
X163685001Y-118650001D01*
X163685001Y-118650001D02*
X163685001Y-84945001D01*
X43035001Y-185275001D02*
X97060001Y-185275001D01*
X41910000Y-184150000D02*
X43035001Y-185275001D01*
X139700000Y-120350000D02*
X139700000Y-119380000D01*
X155202877Y-120425010D02*
X139775010Y-120425010D01*
X139775010Y-120425010D02*
X139700000Y-120350000D01*
X156265010Y-121487143D02*
X155202877Y-120425010D01*
X156265010Y-122352857D02*
X156265010Y-121487143D01*
X155652857Y-122965010D02*
X156265010Y-122352857D01*
X154227143Y-122965010D02*
X155652857Y-122965010D01*
X100662153Y-176530000D02*
X154227143Y-122965010D01*
X97790000Y-176530000D02*
X100662153Y-176530000D01*
X200680000Y-107950000D02*
X201930000Y-107950000D01*
X198120000Y-110510000D02*
X200680000Y-107950000D01*
X198120000Y-120650000D02*
X198120000Y-110510000D01*
X209550000Y-34290000D02*
X209550000Y-72390000D01*
X180115010Y-33244990D02*
X179070000Y-34290000D01*
X198344990Y-33244990D02*
X180115010Y-33244990D01*
X199390000Y-34290000D02*
X198344990Y-33244990D01*
X177855010Y-29462008D02*
X180340000Y-31946998D01*
X177855010Y-28777143D02*
X177855010Y-29462008D01*
X175204990Y-27102857D02*
X176267123Y-28164990D01*
X177242857Y-28164990D02*
X177855010Y-28777143D01*
X177800000Y-6350000D02*
X175204990Y-8945010D01*
X176267123Y-28164990D02*
X177242857Y-28164990D01*
X175204990Y-8945010D02*
X175204990Y-27102857D01*
X180340000Y-33020000D02*
X180115010Y-33244990D01*
X180340000Y-31946998D02*
X180340000Y-33020000D01*
X162540000Y-24130000D02*
X161290000Y-24130000D01*
X162959999Y-23710001D02*
X162540000Y-24130000D01*
X162959999Y3410001D02*
X162959999Y-23710001D01*
X162560000Y3810000D02*
X162959999Y3410001D01*
X181610000Y-57150000D02*
X180340000Y-55880000D01*
X181610000Y-58420000D02*
X181610000Y-57150000D01*
X210820000Y-39370000D02*
X210820000Y-74930000D01*
X180115010Y-38324990D02*
X179070000Y-39370000D01*
X198344990Y-38324990D02*
X180115010Y-38324990D01*
X199390000Y-39370000D02*
X198344990Y-38324990D01*
X175280000Y-39370000D02*
X176530000Y-39370000D01*
X174754980Y-38844980D02*
X175280000Y-39370000D01*
X174754980Y-8125020D02*
X174754980Y-38844980D01*
X179070000Y-3810000D02*
X174754980Y-8125020D01*
X198344990Y-27715010D02*
X199390000Y-26670000D01*
X180115010Y-27715010D02*
X198344990Y-27715010D01*
X179070000Y-26670000D02*
X180115010Y-27715010D01*
X172720000Y-27940000D02*
X172720000Y-77470000D01*
X173990000Y-26670000D02*
X172720000Y-27940000D01*
X173990000Y2540000D02*
X173990000Y-26670000D01*
X175260000Y3810000D02*
X173990000Y2540000D01*
X207010000Y-31750000D02*
X207010000Y-77470000D01*
X200115001Y-34638001D02*
X200115001Y-32475001D01*
X200115001Y-32475001D02*
X199390000Y-31750000D01*
X199417992Y-35335010D02*
X200115001Y-34638001D01*
X179042008Y-35335010D02*
X199417992Y-35335010D01*
X178344999Y-34638001D02*
X179042008Y-35335010D01*
X178344999Y-32475001D02*
X178344999Y-34638001D01*
X179070000Y-31750000D02*
X178344999Y-32475001D01*
X207010000Y-17780000D02*
X207010000Y-31750000D01*
X161290000Y-20620000D02*
X161290000Y-21590000D01*
X161290000Y3613002D02*
X161290000Y-20620000D01*
X162936999Y5260001D02*
X161290000Y3613002D01*
X163830000Y5260001D02*
X162936999Y5260001D01*
X172175001Y-20864999D02*
X172720000Y-20320000D01*
X172175001Y-56424999D02*
X172175001Y-20864999D01*
X170180000Y-58420000D02*
X172175001Y-56424999D01*
X208280000Y-29210000D02*
X208280000Y-80010000D01*
X198344990Y-30255010D02*
X199390000Y-29210000D01*
X180115010Y-30255010D02*
X198344990Y-30255010D01*
X179070000Y-29210000D02*
X180115010Y-30255010D01*
X223524265Y-82545735D02*
X223520000Y-82550000D01*
X223524265Y6354265D02*
X223524265Y-82545735D01*
X-11430000Y-92710000D02*
X-11430000Y7620000D01*
X222250000Y-82550000D02*
X222250000Y-25400000D01*
X186990000Y-25400000D02*
X186690000Y-25700000D01*
X186690000Y-25700000D02*
X186690000Y-26670000D01*
X195580000Y-25400000D02*
X186990000Y-25400000D01*
X152400000Y-26670000D02*
X161290000Y-26670000D01*
X180115010Y-43404990D02*
X179070000Y-44450000D01*
X198344990Y-43404990D02*
X180115010Y-43404990D01*
X199390000Y-44450000D02*
X198344990Y-43404990D01*
X179070000Y-85090000D02*
X179070000Y-44450000D01*
X171450000Y-111760000D02*
X171450000Y-85090000D01*
X220980000Y-85090000D02*
X220980000Y-29210000D01*
X195580000Y-29210000D02*
X186690000Y-29210000D01*
X152400000Y-29210000D02*
X161290000Y-29210000D01*
X212090000Y-46990000D02*
X212090000Y-87630000D01*
X181385010Y-48035010D02*
X198344990Y-48035010D01*
X198344990Y-48035010D02*
X199390000Y-46990000D01*
X180340000Y-46990000D02*
X181385010Y-48035010D01*
X184150000Y-109220000D02*
X184150000Y-87630000D01*
X184150000Y-87630000D02*
X186690000Y-87630000D01*
X219710000Y-86360000D02*
X219710000Y-30480000D01*
X194310000Y-31750000D02*
X186690000Y-31750000D01*
X152400000Y-31750000D02*
X161290000Y-31750000D01*
X198120000Y-49530000D02*
X198120000Y-90170000D01*
X173990000Y-90170000D02*
X173990000Y-49530000D01*
X195804990Y-50575010D02*
X196850000Y-49530000D01*
X181385010Y-50575010D02*
X195804990Y-50575010D01*
X180340000Y-49530000D02*
X181385010Y-50575010D01*
X167640000Y-106680000D02*
X167640000Y-90170000D01*
X218440000Y-90170000D02*
X218440000Y-34290000D01*
X195580000Y-34290000D02*
X186690000Y-34290000D01*
X151130000Y-34290000D02*
X161290000Y-34290000D01*
X196850000Y-52070000D02*
X196850000Y-92710000D01*
X194534990Y-53115010D02*
X195580000Y-52070000D01*
X181385010Y-53115010D02*
X194534990Y-53115010D01*
X180340000Y-52070000D02*
X181385010Y-53115010D01*
X166370000Y-104140000D02*
X166370000Y-92710000D01*
X217170000Y-92710000D02*
X217170000Y-38100000D01*
X195580000Y-36830000D02*
X186690000Y-36830000D01*
X148590000Y-88900000D02*
X148590000Y-36830000D01*
X157480000Y-36830000D02*
X161290000Y-36830000D01*
X148590000Y-36830000D02*
X157480000Y-36830000D01*
X196125000Y-94705000D02*
X195580000Y-95250000D01*
X196125000Y-54610000D02*
X196125000Y-94705000D01*
X193264990Y-55655010D02*
X194310000Y-54610000D01*
X181385010Y-55655010D02*
X193264990Y-55655010D01*
X180340000Y-54610000D02*
X181385010Y-55655010D01*
X165100000Y-101600000D02*
X165100000Y-95250000D01*
X215900000Y-95250000D02*
X215900000Y-40640000D01*
X195580000Y-39370000D02*
X186690000Y-39370000D01*
X149860000Y-86360000D02*
X149860000Y-40640000D01*
X151130000Y-39370000D02*
X161290000Y-39370000D01*
X149860000Y-40640000D02*
X151130000Y-39370000D01*
X188015010Y-59032503D02*
X185407507Y-56425000D01*
X187940000Y-97790000D02*
X188015010Y-97714990D01*
X188015010Y-97714990D02*
X188015010Y-59032503D01*
X186690000Y-97790000D02*
X187940000Y-97790000D01*
X214630000Y-97790000D02*
X214630000Y-43180000D01*
X197486410Y-41910000D02*
X187940000Y-41910000D01*
X187940000Y-41910000D02*
X186690000Y-41910000D01*
X198756410Y-43180000D02*
X197486410Y-41910000D01*
X200660000Y-43180000D02*
X198756410Y-43180000D01*
X151130000Y-83820000D02*
X151130000Y-41910000D01*
X151130000Y-41910000D02*
X161290000Y-41910000D01*
X160020000Y-96520000D02*
X160020000Y-100330000D01*
X159620001Y-96120001D02*
X160020000Y-96520000D01*
X159620001Y-49949999D02*
X159620001Y-96120001D01*
X160040000Y-49530000D02*
X159620001Y-49949999D01*
X161290000Y-49530000D02*
X160040000Y-49530000D01*
X213360000Y-100330000D02*
X213360000Y-45720000D01*
X186690000Y-45420000D02*
X186690000Y-44450000D01*
X186990000Y-45720000D02*
X186690000Y-45420000D01*
X195580000Y-45720000D02*
X186990000Y-45720000D01*
X152400000Y-81280000D02*
X152400000Y-44450000D01*
X152400000Y-44450000D02*
X161290000Y-44450000D01*
X157480000Y-93980000D02*
X157480000Y-102870000D01*
X160040000Y-46990000D02*
X157480000Y-49550000D01*
X157480000Y-49550000D02*
X157480000Y-93414315D01*
X161290000Y-46990000D02*
X160040000Y-46990000D01*
X157480000Y-93414315D02*
X157480000Y-93980000D01*
X168910000Y-120650000D02*
X168910000Y-105410000D01*
X153690000Y-121920000D02*
X154940000Y-121920000D01*
X143530000Y-132080000D02*
X153690000Y-121920000D01*
X36830000Y-132080000D02*
X143530000Y-132080000D01*
X19050000Y-114300000D02*
X36830000Y-132080000D01*
X186970000Y-113030000D02*
X186690000Y-113030000D01*
X187940000Y-114280000D02*
X187940000Y-114000000D01*
X204470000Y-130810000D02*
X187940000Y-114280000D01*
X187940000Y-114000000D02*
X186970000Y-113030000D01*
X213360000Y-130810000D02*
X204470000Y-130810000D01*
X25400000Y-49530000D02*
X146050000Y-49530000D01*
X-10160000Y-85090000D02*
X25400000Y-49530000D01*
X203255010Y-41985010D02*
X203180000Y-41910000D01*
X203180000Y-41910000D02*
X201930000Y-41910000D01*
X203255010Y-55042857D02*
X203255010Y-41985010D01*
X203200000Y-55097867D02*
X203255010Y-55042857D01*
X203200000Y-57150000D02*
X203200000Y-55097867D01*
X168910000Y-2359999D02*
X168910000Y-41910000D01*
X152400000Y-25400000D02*
X162560000Y-25400000D01*
X146775001Y-10704999D02*
X148590000Y-8890000D01*
X146775001Y-49878001D02*
X146775001Y-10704999D01*
X103943002Y-92710000D02*
X146775001Y-49878001D01*
X1270000Y-92710000D02*
X103943002Y-92710000D01*
X171450000Y-8890000D02*
X171450000Y-24130000D01*
X-21590000Y-54610000D02*
X-21590000Y-97790000D01*
M02*
