G04 #@! TF.GenerationSoftware,KiCad,Pcbnew,(5.1.5-0)*
G04 #@! TF.CreationDate,2020-09-26T18:09:29-04:00*
G04 #@! TF.ProjectId,vectron_handheld_pcb,76656374-726f-46e5-9f68-616e6468656c,rev?*
G04 #@! TF.SameCoordinates,Original*
G04 #@! TF.FileFunction,Legend,Top*
G04 #@! TF.FilePolarity,Positive*
%FSLAX46Y46*%
G04 Gerber Fmt 4.6, Leading zero omitted, Abs format (unit mm)*
G04 Created by KiCad (PCBNEW (5.1.5-0)) date 2020-09-26 18:09:29*
%MOMM*%
%LPD*%
G04 APERTURE LIST*
%ADD10C,0.150000*%
%ADD11C,0.531000*%
%ADD12C,0.120000*%
G04 APERTURE END LIST*
D10*
X221488095Y-770000D02*
X221392857Y-722380D01*
X221250000Y-722380D01*
X221107142Y-770000D01*
X221011904Y-865238D01*
X220964285Y-960476D01*
X220916666Y-1150952D01*
X220916666Y-1293809D01*
X220964285Y-1484285D01*
X221011904Y-1579523D01*
X221107142Y-1674761D01*
X221250000Y-1722380D01*
X221345238Y-1722380D01*
X221488095Y-1674761D01*
X221535714Y-1627142D01*
X221535714Y-1293809D01*
X221345238Y-1293809D01*
X221964285Y-1722380D02*
X221964285Y-722380D01*
X222535714Y-1722380D01*
X222535714Y-722380D01*
X223011904Y-1722380D02*
X223011904Y-722380D01*
X223250000Y-722380D01*
X223392857Y-770000D01*
X223488095Y-865238D01*
X223535714Y-960476D01*
X223583333Y-1150952D01*
X223583333Y-1293809D01*
X223535714Y-1484285D01*
X223488095Y-1579523D01*
X223392857Y-1674761D01*
X223250000Y-1722380D01*
X223011904Y-1722380D01*
D11*
X118230952Y-158514738D02*
X122464285Y-171214738D01*
X126697619Y-158514738D01*
X135769047Y-170609976D02*
X134559523Y-171214738D01*
X132140476Y-171214738D01*
X130930952Y-170609976D01*
X130326190Y-169400452D01*
X130326190Y-164562357D01*
X130930952Y-163352833D01*
X132140476Y-162748071D01*
X134559523Y-162748071D01*
X135769047Y-163352833D01*
X136373809Y-164562357D01*
X136373809Y-165771880D01*
X130326190Y-166981404D01*
X147259523Y-170609976D02*
X146050000Y-171214738D01*
X143630952Y-171214738D01*
X142421428Y-170609976D01*
X141816666Y-170005214D01*
X141211904Y-168795690D01*
X141211904Y-165167119D01*
X141816666Y-163957595D01*
X142421428Y-163352833D01*
X143630952Y-162748071D01*
X146050000Y-162748071D01*
X147259523Y-163352833D01*
X150888095Y-162748071D02*
X155726190Y-162748071D01*
X152702380Y-158514738D02*
X152702380Y-169400452D01*
X153307142Y-170609976D01*
X154516666Y-171214738D01*
X155726190Y-171214738D01*
X159959523Y-171214738D02*
X159959523Y-162748071D01*
X159959523Y-165167119D02*
X160564285Y-163957595D01*
X161169047Y-163352833D01*
X162378571Y-162748071D01*
X163588095Y-162748071D01*
X169635714Y-171214738D02*
X168426190Y-170609976D01*
X167821428Y-170005214D01*
X167216666Y-168795690D01*
X167216666Y-165167119D01*
X167821428Y-163957595D01*
X168426190Y-163352833D01*
X169635714Y-162748071D01*
X171450000Y-162748071D01*
X172659523Y-163352833D01*
X173264285Y-163957595D01*
X173869047Y-165167119D01*
X173869047Y-168795690D01*
X173264285Y-170005214D01*
X172659523Y-170609976D01*
X171450000Y-171214738D01*
X169635714Y-171214738D01*
X179311904Y-162748071D02*
X179311904Y-171214738D01*
X179311904Y-163957595D02*
X179916666Y-163352833D01*
X181126190Y-162748071D01*
X182940476Y-162748071D01*
X184150000Y-163352833D01*
X184754761Y-164562357D01*
X184754761Y-171214738D01*
X111276190Y-190795738D02*
X111276190Y-178095738D01*
X111276190Y-184143357D02*
X118533333Y-184143357D01*
X118533333Y-190795738D02*
X118533333Y-178095738D01*
X130023809Y-190795738D02*
X130023809Y-184143357D01*
X129419047Y-182933833D01*
X128209523Y-182329071D01*
X125790476Y-182329071D01*
X124580952Y-182933833D01*
X130023809Y-190190976D02*
X128814285Y-190795738D01*
X125790476Y-190795738D01*
X124580952Y-190190976D01*
X123976190Y-188981452D01*
X123976190Y-187771928D01*
X124580952Y-186562404D01*
X125790476Y-185957642D01*
X128814285Y-185957642D01*
X130023809Y-185352880D01*
X136071428Y-182329071D02*
X136071428Y-190795738D01*
X136071428Y-183538595D02*
X136676190Y-182933833D01*
X137885714Y-182329071D01*
X139700000Y-182329071D01*
X140909523Y-182933833D01*
X141514285Y-184143357D01*
X141514285Y-190795738D01*
X153004761Y-190795738D02*
X153004761Y-178095738D01*
X153004761Y-190190976D02*
X151795238Y-190795738D01*
X149376190Y-190795738D01*
X148166666Y-190190976D01*
X147561904Y-189586214D01*
X146957142Y-188376690D01*
X146957142Y-184748119D01*
X147561904Y-183538595D01*
X148166666Y-182933833D01*
X149376190Y-182329071D01*
X151795238Y-182329071D01*
X153004761Y-182933833D01*
X159052380Y-190795738D02*
X159052380Y-178095738D01*
X164495238Y-190795738D02*
X164495238Y-184143357D01*
X163890476Y-182933833D01*
X162680952Y-182329071D01*
X160866666Y-182329071D01*
X159657142Y-182933833D01*
X159052380Y-183538595D01*
X175380952Y-190190976D02*
X174171428Y-190795738D01*
X171752380Y-190795738D01*
X170542857Y-190190976D01*
X169938095Y-188981452D01*
X169938095Y-184143357D01*
X170542857Y-182933833D01*
X171752380Y-182329071D01*
X174171428Y-182329071D01*
X175380952Y-182933833D01*
X175985714Y-184143357D01*
X175985714Y-185352880D01*
X169938095Y-186562404D01*
X183242857Y-190795738D02*
X182033333Y-190190976D01*
X181428571Y-188981452D01*
X181428571Y-178095738D01*
X193523809Y-190795738D02*
X193523809Y-178095738D01*
X193523809Y-190190976D02*
X192314285Y-190795738D01*
X189895238Y-190795738D01*
X188685714Y-190190976D01*
X188080952Y-189586214D01*
X187476190Y-188376690D01*
X187476190Y-184748119D01*
X188080952Y-183538595D01*
X188685714Y-182933833D01*
X189895238Y-182329071D01*
X192314285Y-182329071D01*
X193523809Y-182933833D01*
D10*
X222059523Y9437619D02*
X221583333Y9437619D01*
X221535714Y8961428D01*
X221583333Y9009047D01*
X221678571Y9056666D01*
X221916666Y9056666D01*
X222011904Y9009047D01*
X222059523Y8961428D01*
X222107142Y8866190D01*
X222107142Y8628095D01*
X222059523Y8532857D01*
X222011904Y8485238D01*
X221916666Y8437619D01*
X221678571Y8437619D01*
X221583333Y8485238D01*
X221535714Y8532857D01*
X222392857Y9437619D02*
X222726190Y8437619D01*
X223059523Y9437619D01*
X204805595Y-188477380D02*
X204805595Y-187477380D01*
X205377023Y-188477380D01*
X205377023Y-187477380D01*
X205853214Y-188477380D02*
X205853214Y-187810714D01*
X205853214Y-187477380D02*
X205805595Y-187525000D01*
X205853214Y-187572619D01*
X205900833Y-187525000D01*
X205853214Y-187477380D01*
X205853214Y-187572619D01*
X206757976Y-188429761D02*
X206662738Y-188477380D01*
X206472261Y-188477380D01*
X206377023Y-188429761D01*
X206329404Y-188382142D01*
X206281785Y-188286904D01*
X206281785Y-188001190D01*
X206329404Y-187905952D01*
X206377023Y-187858333D01*
X206472261Y-187810714D01*
X206662738Y-187810714D01*
X206757976Y-187858333D01*
X207186547Y-188477380D02*
X207186547Y-187477380D01*
X207281785Y-188096428D02*
X207567500Y-188477380D01*
X207567500Y-187810714D02*
X207186547Y-188191666D01*
X209091309Y-187953571D02*
X209234166Y-188001190D01*
X209281785Y-188048809D01*
X209329404Y-188144047D01*
X209329404Y-188286904D01*
X209281785Y-188382142D01*
X209234166Y-188429761D01*
X209138928Y-188477380D01*
X208757976Y-188477380D01*
X208757976Y-187477380D01*
X209091309Y-187477380D01*
X209186547Y-187525000D01*
X209234166Y-187572619D01*
X209281785Y-187667857D01*
X209281785Y-187763095D01*
X209234166Y-187858333D01*
X209186547Y-187905952D01*
X209091309Y-187953571D01*
X208757976Y-187953571D01*
X209757976Y-188477380D02*
X209757976Y-187810714D01*
X209757976Y-187477380D02*
X209710357Y-187525000D01*
X209757976Y-187572619D01*
X209805595Y-187525000D01*
X209757976Y-187477380D01*
X209757976Y-187572619D01*
X210377023Y-188477380D02*
X210281785Y-188429761D01*
X210234166Y-188334523D01*
X210234166Y-187477380D01*
X211186547Y-188477380D02*
X211186547Y-187477380D01*
X211186547Y-188429761D02*
X211091309Y-188477380D01*
X210900833Y-188477380D01*
X210805595Y-188429761D01*
X210757976Y-188382142D01*
X210710357Y-188286904D01*
X210710357Y-188001190D01*
X210757976Y-187905952D01*
X210805595Y-187858333D01*
X210900833Y-187810714D01*
X211091309Y-187810714D01*
X211186547Y-187858333D01*
X205234166Y-189460714D02*
X205234166Y-190270238D01*
X205186547Y-190365476D01*
X205138928Y-190413095D01*
X205043690Y-190460714D01*
X204900833Y-190460714D01*
X204805595Y-190413095D01*
X205234166Y-190079761D02*
X205138928Y-190127380D01*
X204948452Y-190127380D01*
X204853214Y-190079761D01*
X204805595Y-190032142D01*
X204757976Y-189936904D01*
X204757976Y-189651190D01*
X204805595Y-189555952D01*
X204853214Y-189508333D01*
X204948452Y-189460714D01*
X205138928Y-189460714D01*
X205234166Y-189508333D01*
X205710357Y-190127380D02*
X205710357Y-189460714D01*
X205710357Y-189127380D02*
X205662738Y-189175000D01*
X205710357Y-189222619D01*
X205757976Y-189175000D01*
X205710357Y-189127380D01*
X205710357Y-189222619D01*
X206043690Y-189460714D02*
X206424642Y-189460714D01*
X206186547Y-189127380D02*
X206186547Y-189984523D01*
X206234166Y-190079761D01*
X206329404Y-190127380D01*
X206424642Y-190127380D01*
X206757976Y-190127380D02*
X206757976Y-189127380D01*
X207186547Y-190127380D02*
X207186547Y-189603571D01*
X207138928Y-189508333D01*
X207043690Y-189460714D01*
X206900833Y-189460714D01*
X206805595Y-189508333D01*
X206757976Y-189555952D01*
X208091309Y-189460714D02*
X208091309Y-190127380D01*
X207662738Y-189460714D02*
X207662738Y-189984523D01*
X207710357Y-190079761D01*
X207805595Y-190127380D01*
X207948452Y-190127380D01*
X208043690Y-190079761D01*
X208091309Y-190032142D01*
X208567500Y-190127380D02*
X208567500Y-189127380D01*
X208567500Y-189508333D02*
X208662738Y-189460714D01*
X208853214Y-189460714D01*
X208948452Y-189508333D01*
X208996071Y-189555952D01*
X209043690Y-189651190D01*
X209043690Y-189936904D01*
X208996071Y-190032142D01*
X208948452Y-190079761D01*
X208853214Y-190127380D01*
X208662738Y-190127380D01*
X208567500Y-190079761D01*
X209472261Y-190032142D02*
X209519880Y-190079761D01*
X209472261Y-190127380D01*
X209424642Y-190079761D01*
X209472261Y-190032142D01*
X209472261Y-190127380D01*
X210377023Y-190079761D02*
X210281785Y-190127380D01*
X210091309Y-190127380D01*
X209996071Y-190079761D01*
X209948452Y-190032142D01*
X209900833Y-189936904D01*
X209900833Y-189651190D01*
X209948452Y-189555952D01*
X209996071Y-189508333D01*
X210091309Y-189460714D01*
X210281785Y-189460714D01*
X210377023Y-189508333D01*
X210948452Y-190127380D02*
X210853214Y-190079761D01*
X210805595Y-190032142D01*
X210757976Y-189936904D01*
X210757976Y-189651190D01*
X210805595Y-189555952D01*
X210853214Y-189508333D01*
X210948452Y-189460714D01*
X211091309Y-189460714D01*
X211186547Y-189508333D01*
X211234166Y-189555952D01*
X211281785Y-189651190D01*
X211281785Y-189936904D01*
X211234166Y-190032142D01*
X211186547Y-190079761D01*
X211091309Y-190127380D01*
X210948452Y-190127380D01*
X211710357Y-190127380D02*
X211710357Y-189460714D01*
X211710357Y-189555952D02*
X211757976Y-189508333D01*
X211853214Y-189460714D01*
X211996071Y-189460714D01*
X212091309Y-189508333D01*
X212138928Y-189603571D01*
X212138928Y-190127380D01*
X212138928Y-189603571D02*
X212186547Y-189508333D01*
X212281785Y-189460714D01*
X212424642Y-189460714D01*
X212519880Y-189508333D01*
X212567500Y-189603571D01*
X212567500Y-190127380D01*
X213757976Y-189079761D02*
X212900833Y-190365476D01*
X214091309Y-189460714D02*
X214091309Y-190127380D01*
X214091309Y-189555952D02*
X214138928Y-189508333D01*
X214234166Y-189460714D01*
X214377023Y-189460714D01*
X214472261Y-189508333D01*
X214519880Y-189603571D01*
X214519880Y-190127380D01*
X214996071Y-190127380D02*
X214996071Y-189460714D01*
X214996071Y-189127380D02*
X214948452Y-189175000D01*
X214996071Y-189222619D01*
X215043690Y-189175000D01*
X214996071Y-189127380D01*
X214996071Y-189222619D01*
X215900833Y-190079761D02*
X215805595Y-190127380D01*
X215615119Y-190127380D01*
X215519880Y-190079761D01*
X215472261Y-190032142D01*
X215424642Y-189936904D01*
X215424642Y-189651190D01*
X215472261Y-189555952D01*
X215519880Y-189508333D01*
X215615119Y-189460714D01*
X215805595Y-189460714D01*
X215900833Y-189508333D01*
X216329404Y-190127380D02*
X216329404Y-189127380D01*
X216424642Y-189746428D02*
X216710357Y-190127380D01*
X216710357Y-189460714D02*
X216329404Y-189841666D01*
X217138928Y-190127380D02*
X217138928Y-189127380D01*
X217138928Y-189508333D02*
X217234166Y-189460714D01*
X217424642Y-189460714D01*
X217519880Y-189508333D01*
X217567500Y-189555952D01*
X217615119Y-189651190D01*
X217615119Y-189936904D01*
X217567500Y-190032142D01*
X217519880Y-190079761D01*
X217424642Y-190127380D01*
X217234166Y-190127380D01*
X217138928Y-190079761D01*
X218043690Y-190127380D02*
X218043690Y-189460714D01*
X218043690Y-189127380D02*
X217996071Y-189175000D01*
X218043690Y-189222619D01*
X218091309Y-189175000D01*
X218043690Y-189127380D01*
X218043690Y-189222619D01*
X218662738Y-190127380D02*
X218567500Y-190079761D01*
X218519880Y-189984523D01*
X218519880Y-189127380D01*
X219472261Y-190127380D02*
X219472261Y-189127380D01*
X219472261Y-190079761D02*
X219377023Y-190127380D01*
X219186547Y-190127380D01*
X219091309Y-190079761D01*
X219043690Y-190032142D01*
X218996071Y-189936904D01*
X218996071Y-189651190D01*
X219043690Y-189555952D01*
X219091309Y-189508333D01*
X219186547Y-189460714D01*
X219377023Y-189460714D01*
X219472261Y-189508333D01*
X220662738Y-189079761D02*
X219805595Y-190365476D01*
X220900833Y-189460714D02*
X221138928Y-190127380D01*
X221377023Y-189460714D01*
X222138928Y-190079761D02*
X222043690Y-190127380D01*
X221853214Y-190127380D01*
X221757976Y-190079761D01*
X221710357Y-189984523D01*
X221710357Y-189603571D01*
X221757976Y-189508333D01*
X221853214Y-189460714D01*
X222043690Y-189460714D01*
X222138928Y-189508333D01*
X222186547Y-189603571D01*
X222186547Y-189698809D01*
X221710357Y-189794047D01*
X223043690Y-190079761D02*
X222948452Y-190127380D01*
X222757976Y-190127380D01*
X222662738Y-190079761D01*
X222615119Y-190032142D01*
X222567500Y-189936904D01*
X222567500Y-189651190D01*
X222615119Y-189555952D01*
X222662738Y-189508333D01*
X222757976Y-189460714D01*
X222948452Y-189460714D01*
X223043690Y-189508333D01*
X223329404Y-189460714D02*
X223710357Y-189460714D01*
X223472261Y-189127380D02*
X223472261Y-189984523D01*
X223519880Y-190079761D01*
X223615119Y-190127380D01*
X223710357Y-190127380D01*
X224043690Y-190127380D02*
X224043690Y-189460714D01*
X224043690Y-189651190D02*
X224091309Y-189555952D01*
X224138928Y-189508333D01*
X224234166Y-189460714D01*
X224329404Y-189460714D01*
X224805595Y-190127380D02*
X224710357Y-190079761D01*
X224662738Y-190032142D01*
X224615119Y-189936904D01*
X224615119Y-189651190D01*
X224662738Y-189555952D01*
X224710357Y-189508333D01*
X224805595Y-189460714D01*
X224948452Y-189460714D01*
X225043690Y-189508333D01*
X225091309Y-189555952D01*
X225138928Y-189651190D01*
X225138928Y-189936904D01*
X225091309Y-190032142D01*
X225043690Y-190079761D01*
X224948452Y-190127380D01*
X224805595Y-190127380D01*
X225567500Y-189460714D02*
X225567500Y-190127380D01*
X225567500Y-189555952D02*
X225615119Y-189508333D01*
X225710357Y-189460714D01*
X225853214Y-189460714D01*
X225948452Y-189508333D01*
X225996071Y-189603571D01*
X225996071Y-190127380D01*
X226234166Y-190222619D02*
X226996071Y-190222619D01*
X227234166Y-190127380D02*
X227234166Y-189127380D01*
X227662738Y-190127380D02*
X227662738Y-189603571D01*
X227615119Y-189508333D01*
X227519880Y-189460714D01*
X227377023Y-189460714D01*
X227281785Y-189508333D01*
X227234166Y-189555952D01*
X228567500Y-190127380D02*
X228567500Y-189603571D01*
X228519880Y-189508333D01*
X228424642Y-189460714D01*
X228234166Y-189460714D01*
X228138928Y-189508333D01*
X228567500Y-190079761D02*
X228472261Y-190127380D01*
X228234166Y-190127380D01*
X228138928Y-190079761D01*
X228091309Y-189984523D01*
X228091309Y-189889285D01*
X228138928Y-189794047D01*
X228234166Y-189746428D01*
X228472261Y-189746428D01*
X228567500Y-189698809D01*
X229043690Y-189460714D02*
X229043690Y-190127380D01*
X229043690Y-189555952D02*
X229091309Y-189508333D01*
X229186547Y-189460714D01*
X229329404Y-189460714D01*
X229424642Y-189508333D01*
X229472261Y-189603571D01*
X229472261Y-190127380D01*
X230377023Y-190127380D02*
X230377023Y-189127380D01*
X230377023Y-190079761D02*
X230281785Y-190127380D01*
X230091309Y-190127380D01*
X229996071Y-190079761D01*
X229948452Y-190032142D01*
X229900833Y-189936904D01*
X229900833Y-189651190D01*
X229948452Y-189555952D01*
X229996071Y-189508333D01*
X230091309Y-189460714D01*
X230281785Y-189460714D01*
X230377023Y-189508333D01*
X230853214Y-190127380D02*
X230853214Y-189127380D01*
X231281785Y-190127380D02*
X231281785Y-189603571D01*
X231234166Y-189508333D01*
X231138928Y-189460714D01*
X230996071Y-189460714D01*
X230900833Y-189508333D01*
X230853214Y-189555952D01*
X232138928Y-190079761D02*
X232043690Y-190127380D01*
X231853214Y-190127380D01*
X231757976Y-190079761D01*
X231710357Y-189984523D01*
X231710357Y-189603571D01*
X231757976Y-189508333D01*
X231853214Y-189460714D01*
X232043690Y-189460714D01*
X232138928Y-189508333D01*
X232186547Y-189603571D01*
X232186547Y-189698809D01*
X231710357Y-189794047D01*
X232757976Y-190127380D02*
X232662738Y-190079761D01*
X232615119Y-189984523D01*
X232615119Y-189127380D01*
X233567500Y-190127380D02*
X233567500Y-189127380D01*
X233567500Y-190079761D02*
X233472261Y-190127380D01*
X233281785Y-190127380D01*
X233186547Y-190079761D01*
X233138928Y-190032142D01*
X233091309Y-189936904D01*
X233091309Y-189651190D01*
X233138928Y-189555952D01*
X233186547Y-189508333D01*
X233281785Y-189460714D01*
X233472261Y-189460714D01*
X233567500Y-189508333D01*
X204757976Y-191729761D02*
X204900833Y-191777380D01*
X205138928Y-191777380D01*
X205234166Y-191729761D01*
X205281785Y-191682142D01*
X205329404Y-191586904D01*
X205329404Y-191491666D01*
X205281785Y-191396428D01*
X205234166Y-191348809D01*
X205138928Y-191301190D01*
X204948452Y-191253571D01*
X204853214Y-191205952D01*
X204805595Y-191158333D01*
X204757976Y-191063095D01*
X204757976Y-190967857D01*
X204805595Y-190872619D01*
X204853214Y-190825000D01*
X204948452Y-190777380D01*
X205186547Y-190777380D01*
X205329404Y-190825000D01*
X206138928Y-191729761D02*
X206043690Y-191777380D01*
X205853214Y-191777380D01*
X205757976Y-191729761D01*
X205710357Y-191634523D01*
X205710357Y-191253571D01*
X205757976Y-191158333D01*
X205853214Y-191110714D01*
X206043690Y-191110714D01*
X206138928Y-191158333D01*
X206186547Y-191253571D01*
X206186547Y-191348809D01*
X205710357Y-191444047D01*
X206615119Y-191110714D02*
X206615119Y-192110714D01*
X206615119Y-191158333D02*
X206710357Y-191110714D01*
X206900833Y-191110714D01*
X206996071Y-191158333D01*
X207043690Y-191205952D01*
X207091309Y-191301190D01*
X207091309Y-191586904D01*
X207043690Y-191682142D01*
X206996071Y-191729761D01*
X206900833Y-191777380D01*
X206710357Y-191777380D01*
X206615119Y-191729761D01*
X207377023Y-191110714D02*
X207757976Y-191110714D01*
X207519880Y-190777380D02*
X207519880Y-191634523D01*
X207567500Y-191729761D01*
X207662738Y-191777380D01*
X207757976Y-191777380D01*
X208472261Y-191729761D02*
X208377023Y-191777380D01*
X208186547Y-191777380D01*
X208091309Y-191729761D01*
X208043690Y-191634523D01*
X208043690Y-191253571D01*
X208091309Y-191158333D01*
X208186547Y-191110714D01*
X208377023Y-191110714D01*
X208472261Y-191158333D01*
X208519880Y-191253571D01*
X208519880Y-191348809D01*
X208043690Y-191444047D01*
X208948452Y-191777380D02*
X208948452Y-191110714D01*
X208948452Y-191205952D02*
X208996071Y-191158333D01*
X209091309Y-191110714D01*
X209234166Y-191110714D01*
X209329404Y-191158333D01*
X209377023Y-191253571D01*
X209377023Y-191777380D01*
X209377023Y-191253571D02*
X209424642Y-191158333D01*
X209519880Y-191110714D01*
X209662738Y-191110714D01*
X209757976Y-191158333D01*
X209805595Y-191253571D01*
X209805595Y-191777380D01*
X210281785Y-191777380D02*
X210281785Y-190777380D01*
X210281785Y-191158333D02*
X210377023Y-191110714D01*
X210567500Y-191110714D01*
X210662738Y-191158333D01*
X210710357Y-191205952D01*
X210757976Y-191301190D01*
X210757976Y-191586904D01*
X210710357Y-191682142D01*
X210662738Y-191729761D01*
X210567500Y-191777380D01*
X210377023Y-191777380D01*
X210281785Y-191729761D01*
X211567500Y-191729761D02*
X211472261Y-191777380D01*
X211281785Y-191777380D01*
X211186547Y-191729761D01*
X211138928Y-191634523D01*
X211138928Y-191253571D01*
X211186547Y-191158333D01*
X211281785Y-191110714D01*
X211472261Y-191110714D01*
X211567500Y-191158333D01*
X211615119Y-191253571D01*
X211615119Y-191348809D01*
X211138928Y-191444047D01*
X212043690Y-191777380D02*
X212043690Y-191110714D01*
X212043690Y-191301190D02*
X212091309Y-191205952D01*
X212138928Y-191158333D01*
X212234166Y-191110714D01*
X212329404Y-191110714D01*
X213377023Y-190872619D02*
X213424642Y-190825000D01*
X213519880Y-190777380D01*
X213757976Y-190777380D01*
X213853214Y-190825000D01*
X213900833Y-190872619D01*
X213948452Y-190967857D01*
X213948452Y-191063095D01*
X213900833Y-191205952D01*
X213329404Y-191777380D01*
X213948452Y-191777380D01*
X214567500Y-190777380D02*
X214662738Y-190777380D01*
X214757976Y-190825000D01*
X214805595Y-190872619D01*
X214853214Y-190967857D01*
X214900833Y-191158333D01*
X214900833Y-191396428D01*
X214853214Y-191586904D01*
X214805595Y-191682142D01*
X214757976Y-191729761D01*
X214662738Y-191777380D01*
X214567500Y-191777380D01*
X214472261Y-191729761D01*
X214424642Y-191682142D01*
X214377023Y-191586904D01*
X214329404Y-191396428D01*
X214329404Y-191158333D01*
X214377023Y-190967857D01*
X214424642Y-190872619D01*
X214472261Y-190825000D01*
X214567500Y-190777380D01*
X215281785Y-190872619D02*
X215329404Y-190825000D01*
X215424642Y-190777380D01*
X215662738Y-190777380D01*
X215757976Y-190825000D01*
X215805595Y-190872619D01*
X215853214Y-190967857D01*
X215853214Y-191063095D01*
X215805595Y-191205952D01*
X215234166Y-191777380D01*
X215853214Y-191777380D01*
X216472261Y-190777380D02*
X216567500Y-190777380D01*
X216662738Y-190825000D01*
X216710357Y-190872619D01*
X216757976Y-190967857D01*
X216805595Y-191158333D01*
X216805595Y-191396428D01*
X216757976Y-191586904D01*
X216710357Y-191682142D01*
X216662738Y-191729761D01*
X216567500Y-191777380D01*
X216472261Y-191777380D01*
X216377023Y-191729761D01*
X216329404Y-191682142D01*
X216281785Y-191586904D01*
X216234166Y-191396428D01*
X216234166Y-191158333D01*
X216281785Y-190967857D01*
X216329404Y-190872619D01*
X216377023Y-190825000D01*
X216472261Y-190777380D01*
X204710357Y-192760714D02*
X204948452Y-193427380D01*
X205186547Y-192760714D01*
X206091309Y-193427380D02*
X205519880Y-193427380D01*
X205805595Y-193427380D02*
X205805595Y-192427380D01*
X205710357Y-192570238D01*
X205615119Y-192665476D01*
X205519880Y-192713095D01*
X206519880Y-193332142D02*
X206567500Y-193379761D01*
X206519880Y-193427380D01*
X206472261Y-193379761D01*
X206519880Y-193332142D01*
X206519880Y-193427380D01*
X207186547Y-192427380D02*
X207281785Y-192427380D01*
X207377023Y-192475000D01*
X207424642Y-192522619D01*
X207472261Y-192617857D01*
X207519880Y-192808333D01*
X207519880Y-193046428D01*
X207472261Y-193236904D01*
X207424642Y-193332142D01*
X207377023Y-193379761D01*
X207281785Y-193427380D01*
X207186547Y-193427380D01*
X207091309Y-193379761D01*
X207043690Y-193332142D01*
X206996071Y-193236904D01*
X206948452Y-193046428D01*
X206948452Y-192808333D01*
X206996071Y-192617857D01*
X207043690Y-192522619D01*
X207091309Y-192475000D01*
X207186547Y-192427380D01*
X201961904Y-147772380D02*
X201628571Y-147296190D01*
X201390476Y-147772380D02*
X201390476Y-146772380D01*
X201771428Y-146772380D01*
X201866666Y-146820000D01*
X201914285Y-146867619D01*
X201961904Y-146962857D01*
X201961904Y-147105714D01*
X201914285Y-147200952D01*
X201866666Y-147248571D01*
X201771428Y-147296190D01*
X201390476Y-147296190D01*
X202771428Y-147724761D02*
X202676190Y-147772380D01*
X202485714Y-147772380D01*
X202390476Y-147724761D01*
X202342857Y-147629523D01*
X202342857Y-147248571D01*
X202390476Y-147153333D01*
X202485714Y-147105714D01*
X202676190Y-147105714D01*
X202771428Y-147153333D01*
X202819047Y-147248571D01*
X202819047Y-147343809D01*
X202342857Y-147439047D01*
X203200000Y-147724761D02*
X203295238Y-147772380D01*
X203485714Y-147772380D01*
X203580952Y-147724761D01*
X203628571Y-147629523D01*
X203628571Y-147581904D01*
X203580952Y-147486666D01*
X203485714Y-147439047D01*
X203342857Y-147439047D01*
X203247619Y-147391428D01*
X203200000Y-147296190D01*
X203200000Y-147248571D01*
X203247619Y-147153333D01*
X203342857Y-147105714D01*
X203485714Y-147105714D01*
X203580952Y-147153333D01*
X204438095Y-147724761D02*
X204342857Y-147772380D01*
X204152380Y-147772380D01*
X204057142Y-147724761D01*
X204009523Y-147629523D01*
X204009523Y-147248571D01*
X204057142Y-147153333D01*
X204152380Y-147105714D01*
X204342857Y-147105714D01*
X204438095Y-147153333D01*
X204485714Y-147248571D01*
X204485714Y-147343809D01*
X204009523Y-147439047D01*
X204771428Y-147105714D02*
X205152380Y-147105714D01*
X204914285Y-146772380D02*
X204914285Y-147629523D01*
X204961904Y-147724761D01*
X205057142Y-147772380D01*
X205152380Y-147772380D01*
X201096666Y-166298571D02*
X200763333Y-166298571D01*
X200763333Y-166822380D02*
X200763333Y-165822380D01*
X201239523Y-165822380D01*
X201620476Y-166822380D02*
X201620476Y-166155714D01*
X201620476Y-165822380D02*
X201572857Y-165870000D01*
X201620476Y-165917619D01*
X201668095Y-165870000D01*
X201620476Y-165822380D01*
X201620476Y-165917619D01*
X202096666Y-166822380D02*
X202096666Y-166155714D01*
X202096666Y-166346190D02*
X202144285Y-166250952D01*
X202191904Y-166203333D01*
X202287142Y-166155714D01*
X202382380Y-166155714D01*
X203096666Y-166774761D02*
X203001428Y-166822380D01*
X202810952Y-166822380D01*
X202715714Y-166774761D01*
X202668095Y-166679523D01*
X202668095Y-166298571D01*
X202715714Y-166203333D01*
X202810952Y-166155714D01*
X203001428Y-166155714D01*
X203096666Y-166203333D01*
X203144285Y-166298571D01*
X203144285Y-166393809D01*
X202668095Y-166489047D01*
X215194285Y-117197142D02*
X215146666Y-117244761D01*
X215003809Y-117292380D01*
X214908571Y-117292380D01*
X214765714Y-117244761D01*
X214670476Y-117149523D01*
X214622857Y-117054285D01*
X214575238Y-116863809D01*
X214575238Y-116720952D01*
X214622857Y-116530476D01*
X214670476Y-116435238D01*
X214765714Y-116340000D01*
X214908571Y-116292380D01*
X215003809Y-116292380D01*
X215146666Y-116340000D01*
X215194285Y-116387619D01*
X215622857Y-117292380D02*
X215622857Y-116625714D01*
X215622857Y-116816190D02*
X215670476Y-116720952D01*
X215718095Y-116673333D01*
X215813333Y-116625714D01*
X215908571Y-116625714D01*
X216146666Y-116625714D02*
X216384761Y-117292380D01*
X216622857Y-116625714D02*
X216384761Y-117292380D01*
X216289523Y-117530476D01*
X216241904Y-117578095D01*
X216146666Y-117625714D01*
X216956190Y-117244761D02*
X217051428Y-117292380D01*
X217241904Y-117292380D01*
X217337142Y-117244761D01*
X217384761Y-117149523D01*
X217384761Y-117101904D01*
X217337142Y-117006666D01*
X217241904Y-116959047D01*
X217099047Y-116959047D01*
X217003809Y-116911428D01*
X216956190Y-116816190D01*
X216956190Y-116768571D01*
X217003809Y-116673333D01*
X217099047Y-116625714D01*
X217241904Y-116625714D01*
X217337142Y-116673333D01*
X217670476Y-116625714D02*
X218051428Y-116625714D01*
X217813333Y-116292380D02*
X217813333Y-117149523D01*
X217860952Y-117244761D01*
X217956190Y-117292380D01*
X218051428Y-117292380D01*
X218813333Y-117292380D02*
X218813333Y-116768571D01*
X218765714Y-116673333D01*
X218670476Y-116625714D01*
X218480000Y-116625714D01*
X218384761Y-116673333D01*
X218813333Y-117244761D02*
X218718095Y-117292380D01*
X218480000Y-117292380D01*
X218384761Y-117244761D01*
X218337142Y-117149523D01*
X218337142Y-117054285D01*
X218384761Y-116959047D01*
X218480000Y-116911428D01*
X218718095Y-116911428D01*
X218813333Y-116863809D01*
X219432380Y-117292380D02*
X219337142Y-117244761D01*
X219289523Y-117149523D01*
X219289523Y-116292380D01*
X220765714Y-116292380D02*
X220956190Y-116292380D01*
X221051428Y-116340000D01*
X221146666Y-116435238D01*
X221194285Y-116625714D01*
X221194285Y-116959047D01*
X221146666Y-117149523D01*
X221051428Y-117244761D01*
X220956190Y-117292380D01*
X220765714Y-117292380D01*
X220670476Y-117244761D01*
X220575238Y-117149523D01*
X220527619Y-116959047D01*
X220527619Y-116625714D01*
X220575238Y-116435238D01*
X220670476Y-116340000D01*
X220765714Y-116292380D01*
X221575238Y-117244761D02*
X221670476Y-117292380D01*
X221860952Y-117292380D01*
X221956190Y-117244761D01*
X222003809Y-117149523D01*
X222003809Y-117101904D01*
X221956190Y-117006666D01*
X221860952Y-116959047D01*
X221718095Y-116959047D01*
X221622857Y-116911428D01*
X221575238Y-116816190D01*
X221575238Y-116768571D01*
X221622857Y-116673333D01*
X221718095Y-116625714D01*
X221860952Y-116625714D01*
X221956190Y-116673333D01*
X222860952Y-117244761D02*
X222765714Y-117292380D01*
X222575238Y-117292380D01*
X222480000Y-117244761D01*
X222432380Y-117197142D01*
X222384761Y-117101904D01*
X222384761Y-116816190D01*
X222432380Y-116720952D01*
X222480000Y-116673333D01*
X222575238Y-116625714D01*
X222765714Y-116625714D01*
X222860952Y-116673333D01*
X223289523Y-117292380D02*
X223289523Y-116625714D01*
X223289523Y-116292380D02*
X223241904Y-116340000D01*
X223289523Y-116387619D01*
X223337142Y-116340000D01*
X223289523Y-116292380D01*
X223289523Y-116387619D01*
X223908571Y-117292380D02*
X223813333Y-117244761D01*
X223765714Y-117149523D01*
X223765714Y-116292380D01*
X224432380Y-117292380D02*
X224337142Y-117244761D01*
X224289523Y-117149523D01*
X224289523Y-116292380D01*
X225241904Y-117292380D02*
X225241904Y-116768571D01*
X225194285Y-116673333D01*
X225099047Y-116625714D01*
X224908571Y-116625714D01*
X224813333Y-116673333D01*
X225241904Y-117244761D02*
X225146666Y-117292380D01*
X224908571Y-117292380D01*
X224813333Y-117244761D01*
X224765714Y-117149523D01*
X224765714Y-117054285D01*
X224813333Y-116959047D01*
X224908571Y-116911428D01*
X225146666Y-116911428D01*
X225241904Y-116863809D01*
X225575238Y-116625714D02*
X225956190Y-116625714D01*
X225718095Y-116292380D02*
X225718095Y-117149523D01*
X225765714Y-117244761D01*
X225860952Y-117292380D01*
X225956190Y-117292380D01*
X226432380Y-117292380D02*
X226337142Y-117244761D01*
X226289523Y-117197142D01*
X226241904Y-117101904D01*
X226241904Y-116816190D01*
X226289523Y-116720952D01*
X226337142Y-116673333D01*
X226432380Y-116625714D01*
X226575238Y-116625714D01*
X226670476Y-116673333D01*
X226718095Y-116720952D01*
X226765714Y-116816190D01*
X226765714Y-117101904D01*
X226718095Y-117197142D01*
X226670476Y-117244761D01*
X226575238Y-117292380D01*
X226432380Y-117292380D01*
X227194285Y-117292380D02*
X227194285Y-116625714D01*
X227194285Y-116816190D02*
X227241904Y-116720952D01*
X227289523Y-116673333D01*
X227384761Y-116625714D01*
X227480000Y-116625714D01*
X193071904Y-62952380D02*
X192881428Y-62952380D01*
X192786190Y-63000000D01*
X192738571Y-63047619D01*
X192643333Y-63190476D01*
X192595714Y-63380952D01*
X192595714Y-63761904D01*
X192643333Y-63857142D01*
X192690952Y-63904761D01*
X192786190Y-63952380D01*
X192976666Y-63952380D01*
X193071904Y-63904761D01*
X193119523Y-63857142D01*
X193167142Y-63761904D01*
X193167142Y-63523809D01*
X193119523Y-63428571D01*
X193071904Y-63380952D01*
X192976666Y-63333333D01*
X192786190Y-63333333D01*
X192690952Y-63380952D01*
X192643333Y-63428571D01*
X192595714Y-63523809D01*
X194071904Y-62952380D02*
X193595714Y-62952380D01*
X193548095Y-63428571D01*
X193595714Y-63380952D01*
X193690952Y-63333333D01*
X193929047Y-63333333D01*
X194024285Y-63380952D01*
X194071904Y-63428571D01*
X194119523Y-63523809D01*
X194119523Y-63761904D01*
X194071904Y-63857142D01*
X194024285Y-63904761D01*
X193929047Y-63952380D01*
X193690952Y-63952380D01*
X193595714Y-63904761D01*
X193548095Y-63857142D01*
X194738571Y-62952380D02*
X194833809Y-62952380D01*
X194929047Y-63000000D01*
X194976666Y-63047619D01*
X195024285Y-63142857D01*
X195071904Y-63333333D01*
X195071904Y-63571428D01*
X195024285Y-63761904D01*
X194976666Y-63857142D01*
X194929047Y-63904761D01*
X194833809Y-63952380D01*
X194738571Y-63952380D01*
X194643333Y-63904761D01*
X194595714Y-63857142D01*
X194548095Y-63761904D01*
X194500476Y-63571428D01*
X194500476Y-63333333D01*
X194548095Y-63142857D01*
X194595714Y-63047619D01*
X194643333Y-63000000D01*
X194738571Y-62952380D01*
X195452857Y-63047619D02*
X195500476Y-63000000D01*
X195595714Y-62952380D01*
X195833809Y-62952380D01*
X195929047Y-63000000D01*
X195976666Y-63047619D01*
X196024285Y-63142857D01*
X196024285Y-63238095D01*
X195976666Y-63380952D01*
X195405238Y-63952380D01*
X196024285Y-63952380D01*
X193524285Y-8072380D02*
X193190952Y-7596190D01*
X192952857Y-8072380D02*
X192952857Y-7072380D01*
X193333809Y-7072380D01*
X193429047Y-7120000D01*
X193476666Y-7167619D01*
X193524285Y-7262857D01*
X193524285Y-7405714D01*
X193476666Y-7500952D01*
X193429047Y-7548571D01*
X193333809Y-7596190D01*
X192952857Y-7596190D01*
X194143333Y-7072380D02*
X194333809Y-7072380D01*
X194429047Y-7120000D01*
X194524285Y-7215238D01*
X194571904Y-7405714D01*
X194571904Y-7739047D01*
X194524285Y-7929523D01*
X194429047Y-8024761D01*
X194333809Y-8072380D01*
X194143333Y-8072380D01*
X194048095Y-8024761D01*
X193952857Y-7929523D01*
X193905238Y-7739047D01*
X193905238Y-7405714D01*
X193952857Y-7215238D01*
X194048095Y-7120000D01*
X194143333Y-7072380D01*
X195000476Y-8072380D02*
X195000476Y-7072380D01*
X195333809Y-7786666D01*
X195667142Y-7072380D01*
X195667142Y-8072380D01*
X168219523Y-8072380D02*
X167886190Y-7596190D01*
X167648095Y-8072380D02*
X167648095Y-7072380D01*
X168029047Y-7072380D01*
X168124285Y-7120000D01*
X168171904Y-7167619D01*
X168219523Y-7262857D01*
X168219523Y-7405714D01*
X168171904Y-7500952D01*
X168124285Y-7548571D01*
X168029047Y-7596190D01*
X167648095Y-7596190D01*
X168600476Y-7786666D02*
X169076666Y-7786666D01*
X168505238Y-8072380D02*
X168838571Y-7072380D01*
X169171904Y-8072380D01*
X169505238Y-8072380D02*
X169505238Y-7072380D01*
X169838571Y-7786666D01*
X170171904Y-7072380D01*
X170171904Y-8072380D01*
X146081904Y-61682380D02*
X145891428Y-61682380D01*
X145796190Y-61730000D01*
X145748571Y-61777619D01*
X145653333Y-61920476D01*
X145605714Y-62110952D01*
X145605714Y-62491904D01*
X145653333Y-62587142D01*
X145700952Y-62634761D01*
X145796190Y-62682380D01*
X145986666Y-62682380D01*
X146081904Y-62634761D01*
X146129523Y-62587142D01*
X146177142Y-62491904D01*
X146177142Y-62253809D01*
X146129523Y-62158571D01*
X146081904Y-62110952D01*
X145986666Y-62063333D01*
X145796190Y-62063333D01*
X145700952Y-62110952D01*
X145653333Y-62158571D01*
X145605714Y-62253809D01*
X147081904Y-61682380D02*
X146605714Y-61682380D01*
X146558095Y-62158571D01*
X146605714Y-62110952D01*
X146700952Y-62063333D01*
X146939047Y-62063333D01*
X147034285Y-62110952D01*
X147081904Y-62158571D01*
X147129523Y-62253809D01*
X147129523Y-62491904D01*
X147081904Y-62587142D01*
X147034285Y-62634761D01*
X146939047Y-62682380D01*
X146700952Y-62682380D01*
X146605714Y-62634761D01*
X146558095Y-62587142D01*
X147510476Y-61777619D02*
X147558095Y-61730000D01*
X147653333Y-61682380D01*
X147891428Y-61682380D01*
X147986666Y-61730000D01*
X148034285Y-61777619D01*
X148081904Y-61872857D01*
X148081904Y-61968095D01*
X148034285Y-62110952D01*
X147462857Y-62682380D01*
X148081904Y-62682380D01*
X148462857Y-61777619D02*
X148510476Y-61730000D01*
X148605714Y-61682380D01*
X148843809Y-61682380D01*
X148939047Y-61730000D01*
X148986666Y-61777619D01*
X149034285Y-61872857D01*
X149034285Y-61968095D01*
X148986666Y-62110952D01*
X148415238Y-62682380D01*
X149034285Y-62682380D01*
X21399523Y-85812380D02*
X20923333Y-85812380D01*
X20875714Y-86288571D01*
X20923333Y-86240952D01*
X21018571Y-86193333D01*
X21256666Y-86193333D01*
X21351904Y-86240952D01*
X21399523Y-86288571D01*
X21447142Y-86383809D01*
X21447142Y-86621904D01*
X21399523Y-86717142D01*
X21351904Y-86764761D01*
X21256666Y-86812380D01*
X21018571Y-86812380D01*
X20923333Y-86764761D01*
X20875714Y-86717142D01*
X21732857Y-85812380D02*
X22066190Y-86812380D01*
X22399523Y-85812380D01*
X20828095Y-83320000D02*
X20732857Y-83272380D01*
X20590000Y-83272380D01*
X20447142Y-83320000D01*
X20351904Y-83415238D01*
X20304285Y-83510476D01*
X20256666Y-83700952D01*
X20256666Y-83843809D01*
X20304285Y-84034285D01*
X20351904Y-84129523D01*
X20447142Y-84224761D01*
X20590000Y-84272380D01*
X20685238Y-84272380D01*
X20828095Y-84224761D01*
X20875714Y-84177142D01*
X20875714Y-83843809D01*
X20685238Y-83843809D01*
X21304285Y-84272380D02*
X21304285Y-83272380D01*
X21875714Y-84272380D01*
X21875714Y-83272380D01*
X22351904Y-84272380D02*
X22351904Y-83272380D01*
X22590000Y-83272380D01*
X22732857Y-83320000D01*
X22828095Y-83415238D01*
X22875714Y-83510476D01*
X22923333Y-83700952D01*
X22923333Y-83843809D01*
X22875714Y-84034285D01*
X22828095Y-84129523D01*
X22732857Y-84224761D01*
X22590000Y-84272380D01*
X22351904Y-84272380D01*
X61261904Y-18502380D02*
X61928571Y-18502380D01*
X61500000Y-19502380D01*
X62738095Y-18835714D02*
X62738095Y-19502380D01*
X62500000Y-18454761D02*
X62261904Y-19169047D01*
X62880952Y-19169047D01*
X63690476Y-18502380D02*
X63500000Y-18502380D01*
X63404761Y-18550000D01*
X63357142Y-18597619D01*
X63261904Y-18740476D01*
X63214285Y-18930952D01*
X63214285Y-19311904D01*
X63261904Y-19407142D01*
X63309523Y-19454761D01*
X63404761Y-19502380D01*
X63595238Y-19502380D01*
X63690476Y-19454761D01*
X63738095Y-19407142D01*
X63785714Y-19311904D01*
X63785714Y-19073809D01*
X63738095Y-18978571D01*
X63690476Y-18930952D01*
X63595238Y-18883333D01*
X63404761Y-18883333D01*
X63309523Y-18930952D01*
X63261904Y-18978571D01*
X63214285Y-19073809D01*
X64357142Y-18930952D02*
X64261904Y-18883333D01*
X64214285Y-18835714D01*
X64166666Y-18740476D01*
X64166666Y-18692857D01*
X64214285Y-18597619D01*
X64261904Y-18550000D01*
X64357142Y-18502380D01*
X64547619Y-18502380D01*
X64642857Y-18550000D01*
X64690476Y-18597619D01*
X64738095Y-18692857D01*
X64738095Y-18740476D01*
X64690476Y-18835714D01*
X64642857Y-18883333D01*
X64547619Y-18930952D01*
X64357142Y-18930952D01*
X64261904Y-18978571D01*
X64214285Y-19026190D01*
X64166666Y-19121428D01*
X64166666Y-19311904D01*
X64214285Y-19407142D01*
X64261904Y-19454761D01*
X64357142Y-19502380D01*
X64547619Y-19502380D01*
X64642857Y-19454761D01*
X64690476Y-19407142D01*
X64738095Y-19311904D01*
X64738095Y-19121428D01*
X64690476Y-19026190D01*
X64642857Y-18978571D01*
X64547619Y-18930952D01*
X65119047Y-18597619D02*
X65166666Y-18550000D01*
X65261904Y-18502380D01*
X65500000Y-18502380D01*
X65595238Y-18550000D01*
X65642857Y-18597619D01*
X65690476Y-18692857D01*
X65690476Y-18788095D01*
X65642857Y-18930952D01*
X65071428Y-19502380D01*
X65690476Y-19502380D01*
X61261904Y9437619D02*
X61928571Y9437619D01*
X61500000Y8437619D01*
X62738095Y9104285D02*
X62738095Y8437619D01*
X62500000Y9485238D02*
X62261904Y8770952D01*
X62880952Y8770952D01*
X63690476Y9437619D02*
X63500000Y9437619D01*
X63404761Y9390000D01*
X63357142Y9342380D01*
X63261904Y9199523D01*
X63214285Y9009047D01*
X63214285Y8628095D01*
X63261904Y8532857D01*
X63309523Y8485238D01*
X63404761Y8437619D01*
X63595238Y8437619D01*
X63690476Y8485238D01*
X63738095Y8532857D01*
X63785714Y8628095D01*
X63785714Y8866190D01*
X63738095Y8961428D01*
X63690476Y9009047D01*
X63595238Y9056666D01*
X63404761Y9056666D01*
X63309523Y9009047D01*
X63261904Y8961428D01*
X63214285Y8866190D01*
X64357142Y9009047D02*
X64261904Y9056666D01*
X64214285Y9104285D01*
X64166666Y9199523D01*
X64166666Y9247142D01*
X64214285Y9342380D01*
X64261904Y9390000D01*
X64357142Y9437619D01*
X64547619Y9437619D01*
X64642857Y9390000D01*
X64690476Y9342380D01*
X64738095Y9247142D01*
X64738095Y9199523D01*
X64690476Y9104285D01*
X64642857Y9056666D01*
X64547619Y9009047D01*
X64357142Y9009047D01*
X64261904Y8961428D01*
X64214285Y8913809D01*
X64166666Y8818571D01*
X64166666Y8628095D01*
X64214285Y8532857D01*
X64261904Y8485238D01*
X64357142Y8437619D01*
X64547619Y8437619D01*
X64642857Y8485238D01*
X64690476Y8532857D01*
X64738095Y8628095D01*
X64738095Y8818571D01*
X64690476Y8913809D01*
X64642857Y8961428D01*
X64547619Y9009047D01*
X65119047Y9342380D02*
X65166666Y9390000D01*
X65261904Y9437619D01*
X65500000Y9437619D01*
X65595238Y9390000D01*
X65642857Y9342380D01*
X65690476Y9247142D01*
X65690476Y9151904D01*
X65642857Y9009047D01*
X65071428Y8437619D01*
X65690476Y8437619D01*
X-22081904Y10707619D02*
X-21415238Y10707619D01*
X-21843809Y9707619D01*
X-20605714Y10374285D02*
X-20605714Y9707619D01*
X-20843809Y10755238D02*
X-21081904Y10040952D01*
X-20462857Y10040952D01*
X-20177142Y10707619D02*
X-19558095Y10707619D01*
X-19891428Y10326666D01*
X-19748571Y10326666D01*
X-19653333Y10279047D01*
X-19605714Y10231428D01*
X-19558095Y10136190D01*
X-19558095Y9898095D01*
X-19605714Y9802857D01*
X-19653333Y9755238D01*
X-19748571Y9707619D01*
X-20034285Y9707619D01*
X-20129523Y9755238D01*
X-20177142Y9802857D01*
X-19177142Y10612380D02*
X-19129523Y10660000D01*
X-19034285Y10707619D01*
X-18796190Y10707619D01*
X-18700952Y10660000D01*
X-18653333Y10612380D01*
X-18605714Y10517142D01*
X-18605714Y10421904D01*
X-18653333Y10279047D01*
X-19224761Y9707619D01*
X-18605714Y9707619D01*
X-22081904Y-32472380D02*
X-21415238Y-32472380D01*
X-21843809Y-33472380D01*
X-20605714Y-32805714D02*
X-20605714Y-33472380D01*
X-20843809Y-32424761D02*
X-21081904Y-33139047D01*
X-20462857Y-33139047D01*
X-19891428Y-32472380D02*
X-19796190Y-32472380D01*
X-19700952Y-32520000D01*
X-19653333Y-32567619D01*
X-19605714Y-32662857D01*
X-19558095Y-32853333D01*
X-19558095Y-33091428D01*
X-19605714Y-33281904D01*
X-19653333Y-33377142D01*
X-19700952Y-33424761D01*
X-19796190Y-33472380D01*
X-19891428Y-33472380D01*
X-19986666Y-33424761D01*
X-20034285Y-33377142D01*
X-20081904Y-33281904D01*
X-20129523Y-33091428D01*
X-20129523Y-32853333D01*
X-20081904Y-32662857D01*
X-20034285Y-32567619D01*
X-19986666Y-32520000D01*
X-19891428Y-32472380D01*
X-18986666Y-32900952D02*
X-19081904Y-32853333D01*
X-19129523Y-32805714D01*
X-19177142Y-32710476D01*
X-19177142Y-32662857D01*
X-19129523Y-32567619D01*
X-19081904Y-32520000D01*
X-18986666Y-32472380D01*
X-18796190Y-32472380D01*
X-18700952Y-32520000D01*
X-18653333Y-32567619D01*
X-18605714Y-32662857D01*
X-18605714Y-32710476D01*
X-18653333Y-32805714D01*
X-18700952Y-32853333D01*
X-18796190Y-32900952D01*
X-18986666Y-32900952D01*
X-19081904Y-32948571D01*
X-19129523Y-32996190D01*
X-19177142Y-33091428D01*
X-19177142Y-33281904D01*
X-19129523Y-33377142D01*
X-19081904Y-33424761D01*
X-18986666Y-33472380D01*
X-18796190Y-33472380D01*
X-18700952Y-33424761D01*
X-18653333Y-33377142D01*
X-18605714Y-33281904D01*
X-18605714Y-33091428D01*
X-18653333Y-32996190D01*
X-18700952Y-32948571D01*
X-18796190Y-32900952D01*
X-22081904Y-76922380D02*
X-21415238Y-76922380D01*
X-21843809Y-77922380D01*
X-20605714Y-77255714D02*
X-20605714Y-77922380D01*
X-20843809Y-76874761D02*
X-21081904Y-77589047D01*
X-20462857Y-77589047D01*
X-19891428Y-76922380D02*
X-19796190Y-76922380D01*
X-19700952Y-76970000D01*
X-19653333Y-77017619D01*
X-19605714Y-77112857D01*
X-19558095Y-77303333D01*
X-19558095Y-77541428D01*
X-19605714Y-77731904D01*
X-19653333Y-77827142D01*
X-19700952Y-77874761D01*
X-19796190Y-77922380D01*
X-19891428Y-77922380D01*
X-19986666Y-77874761D01*
X-20034285Y-77827142D01*
X-20081904Y-77731904D01*
X-20129523Y-77541428D01*
X-20129523Y-77303333D01*
X-20081904Y-77112857D01*
X-20034285Y-77017619D01*
X-19986666Y-76970000D01*
X-19891428Y-76922380D01*
X-18700952Y-77255714D02*
X-18700952Y-77922380D01*
X-18939047Y-76874761D02*
X-19177142Y-77589047D01*
X-18558095Y-77589047D01*
X69358095Y-153122380D02*
X70024761Y-153122380D01*
X69596190Y-154122380D01*
X70834285Y-153455714D02*
X70834285Y-154122380D01*
X70596190Y-153074761D02*
X70358095Y-153789047D01*
X70977142Y-153789047D01*
X71881904Y-154122380D02*
X71310476Y-154122380D01*
X71596190Y-154122380D02*
X71596190Y-153122380D01*
X71500952Y-153265238D01*
X71405714Y-153360476D01*
X71310476Y-153408095D01*
X72739047Y-153455714D02*
X72739047Y-154122380D01*
X72500952Y-153074761D02*
X72262857Y-153789047D01*
X72881904Y-153789047D01*
X7770952Y-166822380D02*
X7437619Y-166346190D01*
X7199523Y-166822380D02*
X7199523Y-165822380D01*
X7580476Y-165822380D01*
X7675714Y-165870000D01*
X7723333Y-165917619D01*
X7770952Y-166012857D01*
X7770952Y-166155714D01*
X7723333Y-166250952D01*
X7675714Y-166298571D01*
X7580476Y-166346190D01*
X7199523Y-166346190D01*
X8199523Y-166822380D02*
X8199523Y-166155714D01*
X8199523Y-165822380D02*
X8151904Y-165870000D01*
X8199523Y-165917619D01*
X8247142Y-165870000D01*
X8199523Y-165822380D01*
X8199523Y-165917619D01*
X9104285Y-166155714D02*
X9104285Y-166965238D01*
X9056666Y-167060476D01*
X9009047Y-167108095D01*
X8913809Y-167155714D01*
X8770952Y-167155714D01*
X8675714Y-167108095D01*
X9104285Y-166774761D02*
X9009047Y-166822380D01*
X8818571Y-166822380D01*
X8723333Y-166774761D01*
X8675714Y-166727142D01*
X8628095Y-166631904D01*
X8628095Y-166346190D01*
X8675714Y-166250952D01*
X8723333Y-166203333D01*
X8818571Y-166155714D01*
X9009047Y-166155714D01*
X9104285Y-166203333D01*
X9580476Y-166822380D02*
X9580476Y-165822380D01*
X10009047Y-166822380D02*
X10009047Y-166298571D01*
X9961428Y-166203333D01*
X9866190Y-166155714D01*
X9723333Y-166155714D01*
X9628095Y-166203333D01*
X9580476Y-166250952D01*
X10342380Y-166155714D02*
X10723333Y-166155714D01*
X10485238Y-165822380D02*
X10485238Y-166679523D01*
X10532857Y-166774761D01*
X10628095Y-166822380D01*
X10723333Y-166822380D01*
X-13390476Y-166822380D02*
X-13866666Y-166822380D01*
X-13866666Y-165822380D01*
X-12676190Y-166774761D02*
X-12771428Y-166822380D01*
X-12961904Y-166822380D01*
X-13057142Y-166774761D01*
X-13104761Y-166679523D01*
X-13104761Y-166298571D01*
X-13057142Y-166203333D01*
X-12961904Y-166155714D01*
X-12771428Y-166155714D01*
X-12676190Y-166203333D01*
X-12628571Y-166298571D01*
X-12628571Y-166393809D01*
X-13104761Y-166489047D01*
X-12342857Y-166155714D02*
X-11961904Y-166155714D01*
X-12200000Y-166822380D02*
X-12200000Y-165965238D01*
X-12152380Y-165870000D01*
X-12057142Y-165822380D01*
X-11961904Y-165822380D01*
X-11771428Y-166155714D02*
X-11390476Y-166155714D01*
X-11628571Y-165822380D02*
X-11628571Y-166679523D01*
X-11580952Y-166774761D01*
X-11485714Y-166822380D01*
X-11390476Y-166822380D01*
X-4230476Y-176982380D02*
X-4230476Y-175982380D01*
X-3992380Y-175982380D01*
X-3849523Y-176030000D01*
X-3754285Y-176125238D01*
X-3706666Y-176220476D01*
X-3659047Y-176410952D01*
X-3659047Y-176553809D01*
X-3706666Y-176744285D01*
X-3754285Y-176839523D01*
X-3849523Y-176934761D01*
X-3992380Y-176982380D01*
X-4230476Y-176982380D01*
X-3087619Y-176982380D02*
X-3182857Y-176934761D01*
X-3230476Y-176887142D01*
X-3278095Y-176791904D01*
X-3278095Y-176506190D01*
X-3230476Y-176410952D01*
X-3182857Y-176363333D01*
X-3087619Y-176315714D01*
X-2944761Y-176315714D01*
X-2849523Y-176363333D01*
X-2801904Y-176410952D01*
X-2754285Y-176506190D01*
X-2754285Y-176791904D01*
X-2801904Y-176887142D01*
X-2849523Y-176934761D01*
X-2944761Y-176982380D01*
X-3087619Y-176982380D01*
X-2420952Y-176315714D02*
X-2230476Y-176982380D01*
X-2040000Y-176506190D01*
X-1849523Y-176982380D01*
X-1659047Y-176315714D01*
X-1278095Y-176315714D02*
X-1278095Y-176982380D01*
X-1278095Y-176410952D02*
X-1230476Y-176363333D01*
X-1135238Y-176315714D01*
X-992380Y-176315714D01*
X-897142Y-176363333D01*
X-849523Y-176458571D01*
X-849523Y-176982380D01*
X-2008095Y-155662380D02*
X-2008095Y-156471904D01*
X-1960476Y-156567142D01*
X-1912857Y-156614761D01*
X-1817619Y-156662380D01*
X-1627142Y-156662380D01*
X-1531904Y-156614761D01*
X-1484285Y-156567142D01*
X-1436666Y-156471904D01*
X-1436666Y-155662380D01*
X-960476Y-155995714D02*
X-960476Y-156995714D01*
X-960476Y-156043333D02*
X-865238Y-155995714D01*
X-674761Y-155995714D01*
X-579523Y-156043333D01*
X-531904Y-156090952D01*
X-484285Y-156186190D01*
X-484285Y-156471904D01*
X-531904Y-156567142D01*
X-579523Y-156614761D01*
X-674761Y-156662380D01*
X-865238Y-156662380D01*
X-960476Y-156614761D01*
D12*
X-29080000Y-5080000D02*
X-29080000Y-2540000D01*
X-25780000Y6850000D02*
X-25780000Y4590000D01*
X-28020000Y6850000D02*
X-28020000Y4990000D01*
X-12620000Y6850000D02*
X-28020000Y6850000D01*
X-12620000Y-26350000D02*
X-12620000Y6850000D01*
X-28020000Y-26350000D02*
X-12620000Y-26350000D01*
X-28020000Y90000D02*
X-28020000Y-26350000D01*
X-26430000Y2540000D02*
G75*
G03X-26430000Y2540000I-900000J0D01*
G01*
X-24780000Y2540000D02*
G75*
G03X-24780000Y2540000I-2550000J0D01*
G01*
X230680000Y-133450000D02*
G75*
G03X231430000Y-132700000I0J750000D01*
G01*
X210530000Y-132700000D02*
G75*
G03X211280000Y-133450000I750000J0D01*
G01*
X211280000Y-120550000D02*
G75*
G03X210530000Y-121300000I0J-750000D01*
G01*
X231430000Y-120550000D02*
X211280000Y-120550000D01*
X210530000Y-121300000D02*
X210530000Y-132700000D01*
X211280000Y-133450000D02*
X230680000Y-133450000D01*
X231430000Y-132700000D02*
X231430000Y-120550000D01*
X-29080000Y-48260000D02*
X-29080000Y-45720000D01*
X-25780000Y-36330000D02*
X-25780000Y-38590000D01*
X-28020000Y-36330000D02*
X-28020000Y-38190000D01*
X-12620000Y-36330000D02*
X-28020000Y-36330000D01*
X-12620000Y-69530000D02*
X-12620000Y-36330000D01*
X-28020000Y-69530000D02*
X-12620000Y-69530000D01*
X-28020000Y-43090000D02*
X-28020000Y-69530000D01*
X-26430000Y-40640000D02*
G75*
G03X-26430000Y-40640000I-900000J0D01*
G01*
X-24780000Y-40640000D02*
G75*
G03X-24780000Y-40640000I-2550000J0D01*
G01*
X-11560000Y-101600000D02*
X-11560000Y-104140000D01*
X-14860000Y-113530000D02*
X-14860000Y-111270000D01*
X-12620000Y-113530000D02*
X-12620000Y-111670000D01*
X-28020000Y-113530000D02*
X-12620000Y-113530000D01*
X-28020000Y-80330000D02*
X-28020000Y-113530000D01*
X-12620000Y-80330000D02*
X-28020000Y-80330000D01*
X-12620000Y-106770000D02*
X-12620000Y-80330000D01*
X-12410000Y-109220000D02*
G75*
G03X-12410000Y-109220000I-900000J0D01*
G01*
X-10760000Y-109220000D02*
G75*
G03X-10760000Y-109220000I-2550000J0D01*
G01*
X72390000Y-20450000D02*
X74930000Y-20450000D01*
X84320000Y-23750000D02*
X82060000Y-23750000D01*
X84320000Y-21510000D02*
X82460000Y-21510000D01*
X84320000Y-36910000D02*
X84320000Y-21510000D01*
X43720000Y-36910000D02*
X84320000Y-36910000D01*
X43720000Y-21510000D02*
X43720000Y-36910000D01*
X77560000Y-21510000D02*
X43720000Y-21510000D01*
X80910000Y-22200000D02*
G75*
G03X80910000Y-22200000I-900000J0D01*
G01*
X82560000Y-22200000D02*
G75*
G03X82560000Y-22200000I-2550000J0D01*
G01*
X156340000Y-22860000D02*
X156340000Y-20320000D01*
X159640000Y-10930000D02*
X159640000Y-13190000D01*
X157360000Y-10930000D02*
X157360000Y-12790000D01*
X180460000Y-10930000D02*
X157360000Y-10930000D01*
X180460000Y-61530000D02*
X180460000Y-10930000D01*
X157360000Y-61530000D02*
X180460000Y-61530000D01*
X157360000Y-17690000D02*
X157360000Y-61530000D01*
X158990000Y-15240000D02*
G75*
G03X158990000Y-15240000I-900000J0D01*
G01*
X160640000Y-15240000D02*
G75*
G03X160640000Y-15240000I-2550000J0D01*
G01*
X54610000Y-10030000D02*
X52070000Y-10030000D01*
X42680000Y-6730000D02*
X44940000Y-6730000D01*
X42680000Y-8970000D02*
X44540000Y-8970000D01*
X42680000Y6430000D02*
X42680000Y-8970000D01*
X83280000Y6430000D02*
X42680000Y6430000D01*
X83280000Y-8970000D02*
X83280000Y6430000D01*
X49440000Y-8970000D02*
X83280000Y-8970000D01*
X47890000Y-8280000D02*
G75*
G03X47890000Y-8280000I-900000J0D01*
G01*
X49540000Y-8280000D02*
G75*
G03X49540000Y-8280000I-2550000J0D01*
G01*
X134750000Y-77470000D02*
X134750000Y-74930000D01*
X138050000Y-65540000D02*
X138050000Y-67800000D01*
X135770000Y-65540000D02*
X135770000Y-67400000D01*
X158870000Y-65540000D02*
X135770000Y-65540000D01*
X158870000Y-131340000D02*
X158870000Y-65540000D01*
X135770000Y-131340000D02*
X158870000Y-131340000D01*
X135770000Y-72300000D02*
X135770000Y-131340000D01*
X137400000Y-69850000D02*
G75*
G03X137400000Y-69850000I-900000J0D01*
G01*
X139050000Y-69850000D02*
G75*
G03X139050000Y-69850000I-2550000J0D01*
G01*
X62360000Y-168910000D02*
X62360000Y-166370000D01*
X65660000Y-156980000D02*
X65660000Y-159240000D01*
X63420000Y-156980000D02*
X63420000Y-158840000D01*
X78820000Y-156980000D02*
X63420000Y-156980000D01*
X78820000Y-190180000D02*
X78820000Y-156980000D01*
X63420000Y-190180000D02*
X78820000Y-190180000D01*
X63420000Y-163740000D02*
X63420000Y-190180000D01*
X65010000Y-161290000D02*
G75*
G03X65010000Y-161290000I-900000J0D01*
G01*
X66660000Y-161290000D02*
G75*
G03X66660000Y-161290000I-2550000J0D01*
G01*
X181740000Y-22860000D02*
X181740000Y-20320000D01*
X185040000Y-10930000D02*
X185040000Y-13190000D01*
X182760000Y-10930000D02*
X182760000Y-12790000D01*
X205860000Y-10930000D02*
X182760000Y-10930000D01*
X205860000Y-61530000D02*
X205860000Y-10930000D01*
X182760000Y-61530000D02*
X205860000Y-61530000D01*
X182760000Y-17690000D02*
X182760000Y-61530000D01*
X184390000Y-15240000D02*
G75*
G03X184390000Y-15240000I-900000J0D01*
G01*
X186040000Y-15240000D02*
G75*
G03X186040000Y-15240000I-2550000J0D01*
G01*
X206880000Y-119380000D02*
X206880000Y-121920000D01*
X203580000Y-131310000D02*
X203580000Y-129050000D01*
X205860000Y-131310000D02*
X205860000Y-129450000D01*
X182760000Y-131310000D02*
X205860000Y-131310000D01*
X182760000Y-65510000D02*
X182760000Y-131310000D01*
X205860000Y-65510000D02*
X182760000Y-65510000D01*
X205860000Y-124550000D02*
X205860000Y-65510000D01*
X206030000Y-127000000D02*
G75*
G03X206030000Y-127000000I-900000J0D01*
G01*
X207680000Y-127000000D02*
G75*
G03X207680000Y-127000000I-2550000J0D01*
G01*
X205760000Y-171090000D02*
X205760000Y-173770000D01*
X199520000Y-173770000D02*
X199520000Y-171090000D01*
X199670000Y-169310000D02*
X205610000Y-169310000D01*
X199670000Y-175550000D02*
X205610000Y-175550000D01*
X204054214Y-172430000D02*
G75*
G03X204054214Y-172430000I-1414214J0D01*
G01*
X11450000Y-171090000D02*
X11450000Y-173770000D01*
X5210000Y-173770000D02*
X5210000Y-171090000D01*
X5360000Y-169310000D02*
X11300000Y-169310000D01*
X5360000Y-175550000D02*
X11300000Y-175550000D01*
X9744214Y-172430000D02*
G75*
G03X9744214Y-172430000I-1414214J0D01*
G01*
X1140000Y-181250000D02*
X1140000Y-183930000D01*
X-5100000Y-183930000D02*
X-5100000Y-181250000D01*
X-4950000Y-179470000D02*
X990000Y-179470000D01*
X-4950000Y-185710000D02*
X990000Y-185710000D01*
X-565786Y-182590000D02*
G75*
G03X-565786Y-182590000I-1414214J0D01*
G01*
X1290000Y-160930000D02*
X1290000Y-163610000D01*
X-4950000Y-163610000D02*
X-4950000Y-160930000D01*
X-4800000Y-159150000D02*
X1140000Y-159150000D01*
X-4800000Y-165390000D02*
X1140000Y-165390000D01*
X-415786Y-162270000D02*
G75*
G03X-415786Y-162270000I-1414214J0D01*
G01*
X-8870000Y-171090000D02*
X-8870000Y-173770000D01*
X-15110000Y-173770000D02*
X-15110000Y-171090000D01*
X-14960000Y-169310000D02*
X-9020000Y-169310000D01*
X-14960000Y-175550000D02*
X-9020000Y-175550000D01*
X-10575786Y-172430000D02*
G75*
G03X-10575786Y-172430000I-1414214J0D01*
G01*
X205760000Y-152040000D02*
X205760000Y-154720000D01*
X199520000Y-154720000D02*
X199520000Y-152040000D01*
X199670000Y-150260000D02*
X205610000Y-150260000D01*
X199670000Y-156500000D02*
X205610000Y-156500000D01*
X204054214Y-153380000D02*
G75*
G03X204054214Y-153380000I-1414214J0D01*
G01*
X88670000Y-157480000D02*
X89440000Y-157480000D01*
X96750000Y-157480000D02*
X95980000Y-157480000D01*
X89440000Y-158850000D02*
X95980000Y-158850000D01*
X89440000Y-156110000D02*
X89440000Y-158850000D01*
X95980000Y-156110000D02*
X89440000Y-156110000D01*
X95980000Y-158850000D02*
X95980000Y-156110000D01*
X88670000Y-170180000D02*
X89440000Y-170180000D01*
X96750000Y-170180000D02*
X95980000Y-170180000D01*
X89440000Y-171550000D02*
X95980000Y-171550000D01*
X89440000Y-168810000D02*
X89440000Y-171550000D01*
X95980000Y-168810000D02*
X89440000Y-168810000D01*
X95980000Y-171550000D02*
X95980000Y-168810000D01*
X88670000Y-189230000D02*
X89440000Y-189230000D01*
X96750000Y-189230000D02*
X95980000Y-189230000D01*
X89440000Y-190600000D02*
X95980000Y-190600000D01*
X89440000Y-187860000D02*
X89440000Y-190600000D01*
X95980000Y-187860000D02*
X89440000Y-187860000D01*
X95980000Y-190600000D02*
X95980000Y-187860000D01*
X88670000Y-176530000D02*
X89440000Y-176530000D01*
X96750000Y-176530000D02*
X95980000Y-176530000D01*
X89440000Y-177900000D02*
X95980000Y-177900000D01*
X89440000Y-175160000D02*
X89440000Y-177900000D01*
X95980000Y-175160000D02*
X89440000Y-175160000D01*
X95980000Y-177900000D02*
X95980000Y-175160000D01*
X88670000Y-163830000D02*
X89440000Y-163830000D01*
X96750000Y-163830000D02*
X95980000Y-163830000D01*
X89440000Y-165200000D02*
X95980000Y-165200000D01*
X89440000Y-162460000D02*
X89440000Y-165200000D01*
X95980000Y-162460000D02*
X89440000Y-162460000D01*
X95980000Y-165200000D02*
X95980000Y-162460000D01*
X125730000Y-127230000D02*
X125730000Y-126460000D01*
X125730000Y-119150000D02*
X125730000Y-119920000D01*
X127100000Y-126460000D02*
X127100000Y-119920000D01*
X124360000Y-126460000D02*
X127100000Y-126460000D01*
X124360000Y-119920000D02*
X124360000Y-126460000D01*
X127100000Y-119920000D02*
X124360000Y-119920000D01*
X130810000Y-120880000D02*
X130810000Y-120110000D01*
X130810000Y-112800000D02*
X130810000Y-113570000D01*
X132180000Y-120110000D02*
X132180000Y-113570000D01*
X129440000Y-120110000D02*
X132180000Y-120110000D01*
X129440000Y-113570000D02*
X129440000Y-120110000D01*
X132180000Y-113570000D02*
X129440000Y-113570000D01*
X162560000Y-89940000D02*
X162560000Y-90710000D01*
X162560000Y-98020000D02*
X162560000Y-97250000D01*
X161190000Y-90710000D02*
X161190000Y-97250000D01*
X163930000Y-90710000D02*
X161190000Y-90710000D01*
X163930000Y-97250000D02*
X163930000Y-90710000D01*
X161190000Y-97250000D02*
X163930000Y-97250000D01*
X162560000Y-82780000D02*
X162560000Y-82010000D01*
X162560000Y-74700000D02*
X162560000Y-75470000D01*
X163930000Y-82010000D02*
X163930000Y-75470000D01*
X161190000Y-82010000D02*
X163930000Y-82010000D01*
X161190000Y-75470000D02*
X161190000Y-82010000D01*
X163930000Y-75470000D02*
X161190000Y-75470000D01*
X51030000Y-176530000D02*
X50260000Y-176530000D01*
X42950000Y-176530000D02*
X43720000Y-176530000D01*
X50260000Y-175160000D02*
X43720000Y-175160000D01*
X50260000Y-177900000D02*
X50260000Y-175160000D01*
X43720000Y-177900000D02*
X50260000Y-177900000D01*
X43720000Y-175160000D02*
X43720000Y-177900000D01*
X42950000Y-166370000D02*
X43720000Y-166370000D01*
X51030000Y-166370000D02*
X50260000Y-166370000D01*
X43720000Y-167740000D02*
X50260000Y-167740000D01*
X43720000Y-165000000D02*
X43720000Y-167740000D01*
X50260000Y-165000000D02*
X43720000Y-165000000D01*
X50260000Y-167740000D02*
X50260000Y-165000000D01*
X42950000Y-184150000D02*
X43720000Y-184150000D01*
X51030000Y-184150000D02*
X50260000Y-184150000D01*
X43720000Y-185520000D02*
X50260000Y-185520000D01*
X43720000Y-182780000D02*
X43720000Y-185520000D01*
X50260000Y-182780000D02*
X43720000Y-182780000D01*
X50260000Y-185520000D02*
X50260000Y-182780000D01*
X42950000Y-171450000D02*
X43720000Y-171450000D01*
X51030000Y-171450000D02*
X50260000Y-171450000D01*
X43720000Y-172820000D02*
X50260000Y-172820000D01*
X43720000Y-170080000D02*
X43720000Y-172820000D01*
X50260000Y-170080000D02*
X43720000Y-170080000D01*
X50260000Y-172820000D02*
X50260000Y-170080000D01*
X96750000Y-182880000D02*
X95980000Y-182880000D01*
X88670000Y-182880000D02*
X89440000Y-182880000D01*
X95980000Y-181510000D02*
X89440000Y-181510000D01*
X95980000Y-184250000D02*
X95980000Y-181510000D01*
X89440000Y-184250000D02*
X95980000Y-184250000D01*
X89440000Y-181510000D02*
X89440000Y-184250000D01*
X184150000Y-136930000D02*
X184150000Y-137700000D01*
X184150000Y-145010000D02*
X184150000Y-144240000D01*
X182780000Y-137700000D02*
X182780000Y-144240000D01*
X185520000Y-137700000D02*
X182780000Y-137700000D01*
X185520000Y-144240000D02*
X185520000Y-137700000D01*
X182780000Y-144240000D02*
X185520000Y-144240000D01*
X175260000Y-117070000D02*
X175260000Y-116300000D01*
X175260000Y-108990000D02*
X175260000Y-109760000D01*
X176630000Y-116300000D02*
X176630000Y-109760000D01*
X173890000Y-116300000D02*
X176630000Y-116300000D01*
X173890000Y-109760000D02*
X173890000Y-116300000D01*
X176630000Y-109760000D02*
X173890000Y-109760000D01*
X210820000Y-107720000D02*
X210820000Y-108490000D01*
X210820000Y-115800000D02*
X210820000Y-115030000D01*
X209450000Y-108490000D02*
X209450000Y-115030000D01*
X212190000Y-108490000D02*
X209450000Y-108490000D01*
X212190000Y-115030000D02*
X212190000Y-108490000D01*
X209450000Y-115030000D02*
X212190000Y-115030000D01*
X24070000Y-82490000D02*
X25400000Y-82490000D01*
X24070000Y-83820000D02*
X24070000Y-82490000D01*
X24070000Y-85090000D02*
X26730000Y-85090000D01*
X26730000Y-85090000D02*
X26730000Y-108010000D01*
X24070000Y-85090000D02*
X24070000Y-108010000D01*
X24070000Y-108010000D02*
X26730000Y-108010000D01*
X226299698Y-17955000D02*
X226299698Y-17155000D01*
X226699698Y-17555000D02*
X225899698Y-17555000D01*
X218209000Y-15773000D02*
X218209000Y-14707000D01*
X218249000Y-16008000D02*
X218249000Y-14472000D01*
X218289000Y-16188000D02*
X218289000Y-14292000D01*
X218329000Y-16338000D02*
X218329000Y-14142000D01*
X218369000Y-16469000D02*
X218369000Y-14011000D01*
X218409000Y-16586000D02*
X218409000Y-13894000D01*
X218449000Y-16693000D02*
X218449000Y-13787000D01*
X218489000Y-16792000D02*
X218489000Y-13688000D01*
X218529000Y-16885000D02*
X218529000Y-13595000D01*
X218569000Y-16971000D02*
X218569000Y-13509000D01*
X218609000Y-17053000D02*
X218609000Y-13427000D01*
X218649000Y-17130000D02*
X218649000Y-13350000D01*
X218689000Y-17204000D02*
X218689000Y-13276000D01*
X218729000Y-17274000D02*
X218729000Y-13206000D01*
X218769000Y-14200000D02*
X218769000Y-13138000D01*
X218769000Y-17342000D02*
X218769000Y-16280000D01*
X218809000Y-14200000D02*
X218809000Y-13074000D01*
X218809000Y-17406000D02*
X218809000Y-16280000D01*
X218849000Y-14200000D02*
X218849000Y-13012000D01*
X218849000Y-17468000D02*
X218849000Y-16280000D01*
X218889000Y-14200000D02*
X218889000Y-12953000D01*
X218889000Y-17527000D02*
X218889000Y-16280000D01*
X218929000Y-14200000D02*
X218929000Y-12895000D01*
X218929000Y-17585000D02*
X218929000Y-16280000D01*
X218969000Y-14200000D02*
X218969000Y-12840000D01*
X218969000Y-17640000D02*
X218969000Y-16280000D01*
X219009000Y-14200000D02*
X219009000Y-12786000D01*
X219009000Y-17694000D02*
X219009000Y-16280000D01*
X219049000Y-14200000D02*
X219049000Y-12735000D01*
X219049000Y-17745000D02*
X219049000Y-16280000D01*
X219089000Y-14200000D02*
X219089000Y-12684000D01*
X219089000Y-17796000D02*
X219089000Y-16280000D01*
X219129000Y-14200000D02*
X219129000Y-12636000D01*
X219129000Y-17844000D02*
X219129000Y-16280000D01*
X219169000Y-14200000D02*
X219169000Y-12589000D01*
X219169000Y-17891000D02*
X219169000Y-16280000D01*
X219209000Y-14200000D02*
X219209000Y-12543000D01*
X219209000Y-17937000D02*
X219209000Y-16280000D01*
X219249000Y-14200000D02*
X219249000Y-12499000D01*
X219249000Y-17981000D02*
X219249000Y-16280000D01*
X219289000Y-14200000D02*
X219289000Y-12456000D01*
X219289000Y-18024000D02*
X219289000Y-16280000D01*
X219329000Y-14200000D02*
X219329000Y-12414000D01*
X219329000Y-18066000D02*
X219329000Y-16280000D01*
X219369000Y-14200000D02*
X219369000Y-12373000D01*
X219369000Y-18107000D02*
X219369000Y-16280000D01*
X219409000Y-14200000D02*
X219409000Y-12333000D01*
X219409000Y-18147000D02*
X219409000Y-16280000D01*
X219449000Y-14200000D02*
X219449000Y-12295000D01*
X219449000Y-18185000D02*
X219449000Y-16280000D01*
X219489000Y-14200000D02*
X219489000Y-12257000D01*
X219489000Y-18223000D02*
X219489000Y-16280000D01*
X219529000Y-14200000D02*
X219529000Y-12221000D01*
X219529000Y-18259000D02*
X219529000Y-16280000D01*
X219569000Y-14200000D02*
X219569000Y-12185000D01*
X219569000Y-18295000D02*
X219569000Y-16280000D01*
X219609000Y-14200000D02*
X219609000Y-12150000D01*
X219609000Y-18330000D02*
X219609000Y-16280000D01*
X219649000Y-14200000D02*
X219649000Y-12116000D01*
X219649000Y-18364000D02*
X219649000Y-16280000D01*
X219689000Y-14200000D02*
X219689000Y-12084000D01*
X219689000Y-18396000D02*
X219689000Y-16280000D01*
X219729000Y-14200000D02*
X219729000Y-12051000D01*
X219729000Y-18429000D02*
X219729000Y-16280000D01*
X219769000Y-14200000D02*
X219769000Y-12020000D01*
X219769000Y-18460000D02*
X219769000Y-16280000D01*
X219809000Y-14200000D02*
X219809000Y-11990000D01*
X219809000Y-18490000D02*
X219809000Y-16280000D01*
X219849000Y-14200000D02*
X219849000Y-11960000D01*
X219849000Y-18520000D02*
X219849000Y-16280000D01*
X219889000Y-14200000D02*
X219889000Y-11931000D01*
X219889000Y-18549000D02*
X219889000Y-16280000D01*
X219929000Y-14200000D02*
X219929000Y-11902000D01*
X219929000Y-18578000D02*
X219929000Y-16280000D01*
X219969000Y-14200000D02*
X219969000Y-11875000D01*
X219969000Y-18605000D02*
X219969000Y-16280000D01*
X220009000Y-14200000D02*
X220009000Y-11848000D01*
X220009000Y-18632000D02*
X220009000Y-16280000D01*
X220049000Y-14200000D02*
X220049000Y-11822000D01*
X220049000Y-18658000D02*
X220049000Y-16280000D01*
X220089000Y-14200000D02*
X220089000Y-11796000D01*
X220089000Y-18684000D02*
X220089000Y-16280000D01*
X220129000Y-14200000D02*
X220129000Y-11771000D01*
X220129000Y-18709000D02*
X220129000Y-16280000D01*
X220169000Y-14200000D02*
X220169000Y-11747000D01*
X220169000Y-18733000D02*
X220169000Y-16280000D01*
X220209000Y-14200000D02*
X220209000Y-11723000D01*
X220209000Y-18757000D02*
X220209000Y-16280000D01*
X220249000Y-14200000D02*
X220249000Y-11700000D01*
X220249000Y-18780000D02*
X220249000Y-16280000D01*
X220289000Y-14200000D02*
X220289000Y-11678000D01*
X220289000Y-18802000D02*
X220289000Y-16280000D01*
X220329000Y-14200000D02*
X220329000Y-11656000D01*
X220329000Y-18824000D02*
X220329000Y-16280000D01*
X220369000Y-14200000D02*
X220369000Y-11634000D01*
X220369000Y-18846000D02*
X220369000Y-16280000D01*
X220409000Y-14200000D02*
X220409000Y-11613000D01*
X220409000Y-18867000D02*
X220409000Y-16280000D01*
X220449000Y-14200000D02*
X220449000Y-11593000D01*
X220449000Y-18887000D02*
X220449000Y-16280000D01*
X220489000Y-14200000D02*
X220489000Y-11574000D01*
X220489000Y-18906000D02*
X220489000Y-16280000D01*
X220529000Y-14200000D02*
X220529000Y-11554000D01*
X220529000Y-18926000D02*
X220529000Y-16280000D01*
X220569000Y-14200000D02*
X220569000Y-11536000D01*
X220569000Y-18944000D02*
X220569000Y-16280000D01*
X220609000Y-14200000D02*
X220609000Y-11518000D01*
X220609000Y-18962000D02*
X220609000Y-16280000D01*
X220649000Y-14200000D02*
X220649000Y-11500000D01*
X220649000Y-18980000D02*
X220649000Y-16280000D01*
X220689000Y-14200000D02*
X220689000Y-11483000D01*
X220689000Y-18997000D02*
X220689000Y-16280000D01*
X220729000Y-14200000D02*
X220729000Y-11466000D01*
X220729000Y-19014000D02*
X220729000Y-16280000D01*
X220769000Y-14200000D02*
X220769000Y-11450000D01*
X220769000Y-19030000D02*
X220769000Y-16280000D01*
X220809000Y-14200000D02*
X220809000Y-11435000D01*
X220809000Y-19045000D02*
X220809000Y-16280000D01*
X220849000Y-19061000D02*
X220849000Y-11419000D01*
X220889000Y-19075000D02*
X220889000Y-11405000D01*
X220929000Y-19090000D02*
X220929000Y-11390000D01*
X220969000Y-19103000D02*
X220969000Y-11377000D01*
X221009000Y-19117000D02*
X221009000Y-11363000D01*
X221049000Y-19129000D02*
X221049000Y-11351000D01*
X221089000Y-19142000D02*
X221089000Y-11338000D01*
X221129000Y-19154000D02*
X221129000Y-11326000D01*
X221169000Y-19165000D02*
X221169000Y-11315000D01*
X221209000Y-19176000D02*
X221209000Y-11304000D01*
X221249000Y-19187000D02*
X221249000Y-11293000D01*
X221289000Y-19197000D02*
X221289000Y-11283000D01*
X221329000Y-19207000D02*
X221329000Y-11273000D01*
X221369000Y-19216000D02*
X221369000Y-11264000D01*
X221409000Y-19225000D02*
X221409000Y-11255000D01*
X221449000Y-19234000D02*
X221449000Y-11246000D01*
X221489000Y-19242000D02*
X221489000Y-11238000D01*
X221529000Y-19250000D02*
X221529000Y-11230000D01*
X221569000Y-19257000D02*
X221569000Y-11223000D01*
X221610000Y-19264000D02*
X221610000Y-11216000D01*
X221650000Y-19270000D02*
X221650000Y-11210000D01*
X221690000Y-19277000D02*
X221690000Y-11203000D01*
X221730000Y-19282000D02*
X221730000Y-11198000D01*
X221770000Y-19288000D02*
X221770000Y-11192000D01*
X221810000Y-19292000D02*
X221810000Y-11188000D01*
X221850000Y-19297000D02*
X221850000Y-11183000D01*
X221890000Y-19301000D02*
X221890000Y-11179000D01*
X221930000Y-19305000D02*
X221930000Y-11175000D01*
X221970000Y-19308000D02*
X221970000Y-11172000D01*
X222010000Y-19311000D02*
X222010000Y-11169000D01*
X222050000Y-19314000D02*
X222050000Y-11166000D01*
X222090000Y-19316000D02*
X222090000Y-11164000D01*
X222130000Y-19317000D02*
X222130000Y-11163000D01*
X222170000Y-19319000D02*
X222170000Y-11161000D01*
X222210000Y-19320000D02*
X222210000Y-11160000D01*
X222250000Y-19320000D02*
X222250000Y-11160000D01*
X222290000Y-19320000D02*
X222290000Y-11160000D01*
X226410000Y-15240000D02*
G75*
G03X226410000Y-15240000I-4120000J0D01*
G01*
X83605000Y-157390000D02*
X84271000Y-157390000D01*
X80829000Y-157390000D02*
X81495000Y-157390000D01*
X83605000Y-162730000D02*
X84271000Y-162730000D01*
X80829000Y-162730000D02*
X81495000Y-162730000D01*
X84271000Y-162730000D02*
X84271000Y-157390000D01*
X80829000Y-162730000D02*
X80829000Y-157390000D01*
X58205000Y-173900000D02*
X58871000Y-173900000D01*
X55429000Y-173900000D02*
X56095000Y-173900000D01*
X58205000Y-179240000D02*
X58871000Y-179240000D01*
X55429000Y-179240000D02*
X56095000Y-179240000D01*
X58871000Y-179240000D02*
X58871000Y-173900000D01*
X55429000Y-179240000D02*
X55429000Y-173900000D01*
X83605000Y-167550000D02*
X84271000Y-167550000D01*
X80829000Y-167550000D02*
X81495000Y-167550000D01*
X83605000Y-172890000D02*
X84271000Y-172890000D01*
X80829000Y-172890000D02*
X81495000Y-172890000D01*
X84271000Y-172890000D02*
X84271000Y-167550000D01*
X80829000Y-172890000D02*
X80829000Y-167550000D01*
X58205000Y-163740000D02*
X58871000Y-163740000D01*
X55429000Y-163740000D02*
X56095000Y-163740000D01*
X58205000Y-169080000D02*
X58871000Y-169080000D01*
X55429000Y-169080000D02*
X56095000Y-169080000D01*
X58871000Y-169080000D02*
X58871000Y-163740000D01*
X55429000Y-169080000D02*
X55429000Y-163740000D01*
X83605000Y-176440000D02*
X84271000Y-176440000D01*
X80829000Y-176440000D02*
X81495000Y-176440000D01*
X83605000Y-181780000D02*
X84271000Y-181780000D01*
X80829000Y-181780000D02*
X81495000Y-181780000D01*
X84271000Y-181780000D02*
X84271000Y-176440000D01*
X80829000Y-181780000D02*
X80829000Y-176440000D01*
X220920000Y6410000D02*
X222250000Y6410000D01*
X220920000Y5080000D02*
X220920000Y6410000D01*
X220920000Y3810000D02*
X223580000Y3810000D01*
X223580000Y3810000D02*
X223580000Y1210000D01*
X220920000Y3810000D02*
X220920000Y1210000D01*
X220920000Y1210000D02*
X223580000Y1210000D01*
D10*
X-21081904Y8297619D02*
X-21081904Y7488095D01*
X-21034285Y7392857D01*
X-20986666Y7345238D01*
X-20891428Y7297619D01*
X-20700952Y7297619D01*
X-20605714Y7345238D01*
X-20558095Y7392857D01*
X-20510476Y7488095D01*
X-20510476Y8297619D01*
X-19986666Y7297619D02*
X-19796190Y7297619D01*
X-19700952Y7345238D01*
X-19653333Y7392857D01*
X-19558095Y7535714D01*
X-19510476Y7726190D01*
X-19510476Y8107142D01*
X-19558095Y8202380D01*
X-19605714Y8250000D01*
X-19700952Y8297619D01*
X-19891428Y8297619D01*
X-19986666Y8250000D01*
X-20034285Y8202380D01*
X-20081904Y8107142D01*
X-20081904Y7869047D01*
X-20034285Y7773809D01*
X-19986666Y7726190D01*
X-19891428Y7678571D01*
X-19700952Y7678571D01*
X-19605714Y7726190D01*
X-19558095Y7773809D01*
X-19510476Y7869047D01*
X220503809Y-134426190D02*
X220503809Y-134902380D01*
X220170476Y-133902380D02*
X220503809Y-134426190D01*
X220837142Y-133902380D01*
X221694285Y-134902380D02*
X221122857Y-134902380D01*
X221408571Y-134902380D02*
X221408571Y-133902380D01*
X221313333Y-134045238D01*
X221218095Y-134140476D01*
X221122857Y-134188095D01*
X-21558095Y-34882380D02*
X-21558095Y-35691904D01*
X-21510476Y-35787142D01*
X-21462857Y-35834761D01*
X-21367619Y-35882380D01*
X-21177142Y-35882380D01*
X-21081904Y-35834761D01*
X-21034285Y-35787142D01*
X-20986666Y-35691904D01*
X-20986666Y-34882380D01*
X-19986666Y-35882380D02*
X-20558095Y-35882380D01*
X-20272380Y-35882380D02*
X-20272380Y-34882380D01*
X-20367619Y-35025238D01*
X-20462857Y-35120476D01*
X-20558095Y-35168095D01*
X-19367619Y-34882380D02*
X-19272380Y-34882380D01*
X-19177142Y-34930000D01*
X-19129523Y-34977619D01*
X-19081904Y-35072857D01*
X-19034285Y-35263333D01*
X-19034285Y-35501428D01*
X-19081904Y-35691904D01*
X-19129523Y-35787142D01*
X-19177142Y-35834761D01*
X-19272380Y-35882380D01*
X-19367619Y-35882380D01*
X-19462857Y-35834761D01*
X-19510476Y-35787142D01*
X-19558095Y-35691904D01*
X-19605714Y-35501428D01*
X-19605714Y-35263333D01*
X-19558095Y-35072857D01*
X-19510476Y-34977619D01*
X-19462857Y-34930000D01*
X-19367619Y-34882380D01*
X-21081904Y-113882380D02*
X-21081904Y-114691904D01*
X-21034285Y-114787142D01*
X-20986666Y-114834761D01*
X-20891428Y-114882380D01*
X-20700952Y-114882380D01*
X-20605714Y-114834761D01*
X-20558095Y-114787142D01*
X-20510476Y-114691904D01*
X-20510476Y-113882380D01*
X-19891428Y-114310952D02*
X-19986666Y-114263333D01*
X-20034285Y-114215714D01*
X-20081904Y-114120476D01*
X-20081904Y-114072857D01*
X-20034285Y-113977619D01*
X-19986666Y-113930000D01*
X-19891428Y-113882380D01*
X-19700952Y-113882380D01*
X-19605714Y-113930000D01*
X-19558095Y-113977619D01*
X-19510476Y-114072857D01*
X-19510476Y-114120476D01*
X-19558095Y-114215714D01*
X-19605714Y-114263333D01*
X-19700952Y-114310952D01*
X-19891428Y-114310952D01*
X-19986666Y-114358571D01*
X-20034285Y-114406190D01*
X-20081904Y-114501428D01*
X-20081904Y-114691904D01*
X-20034285Y-114787142D01*
X-19986666Y-114834761D01*
X-19891428Y-114882380D01*
X-19700952Y-114882380D01*
X-19605714Y-114834761D01*
X-19558095Y-114787142D01*
X-19510476Y-114691904D01*
X-19510476Y-114501428D01*
X-19558095Y-114406190D01*
X-19605714Y-114358571D01*
X-19700952Y-114310952D01*
X84672380Y-29971904D02*
X85481904Y-29971904D01*
X85577142Y-29924285D01*
X85624761Y-29876666D01*
X85672380Y-29781428D01*
X85672380Y-29590952D01*
X85624761Y-29495714D01*
X85577142Y-29448095D01*
X85481904Y-29400476D01*
X84672380Y-29400476D01*
X84672380Y-29019523D02*
X84672380Y-28352857D01*
X85672380Y-28781428D01*
X168148095Y-9482380D02*
X168148095Y-10291904D01*
X168195714Y-10387142D01*
X168243333Y-10434761D01*
X168338571Y-10482380D01*
X168529047Y-10482380D01*
X168624285Y-10434761D01*
X168671904Y-10387142D01*
X168719523Y-10291904D01*
X168719523Y-9482380D01*
X169624285Y-9482380D02*
X169433809Y-9482380D01*
X169338571Y-9530000D01*
X169290952Y-9577619D01*
X169195714Y-9720476D01*
X169148095Y-9910952D01*
X169148095Y-10291904D01*
X169195714Y-10387142D01*
X169243333Y-10434761D01*
X169338571Y-10482380D01*
X169529047Y-10482380D01*
X169624285Y-10434761D01*
X169671904Y-10387142D01*
X169719523Y-10291904D01*
X169719523Y-10053809D01*
X169671904Y-9958571D01*
X169624285Y-9910952D01*
X169529047Y-9863333D01*
X169338571Y-9863333D01*
X169243333Y-9910952D01*
X169195714Y-9958571D01*
X169148095Y-10053809D01*
X41232380Y-2031904D02*
X42041904Y-2031904D01*
X42137142Y-1984285D01*
X42184761Y-1936666D01*
X42232380Y-1841428D01*
X42232380Y-1650952D01*
X42184761Y-1555714D01*
X42137142Y-1508095D01*
X42041904Y-1460476D01*
X41232380Y-1460476D01*
X41232380Y-508095D02*
X41232380Y-984285D01*
X41708571Y-1031904D01*
X41660952Y-984285D01*
X41613333Y-889047D01*
X41613333Y-650952D01*
X41660952Y-555714D01*
X41708571Y-508095D01*
X41803809Y-460476D01*
X42041904Y-460476D01*
X42137142Y-508095D01*
X42184761Y-555714D01*
X42232380Y-650952D01*
X42232380Y-889047D01*
X42184761Y-984285D01*
X42137142Y-1031904D01*
X146558095Y-64092380D02*
X146558095Y-64901904D01*
X146605714Y-64997142D01*
X146653333Y-65044761D01*
X146748571Y-65092380D01*
X146939047Y-65092380D01*
X147034285Y-65044761D01*
X147081904Y-64997142D01*
X147129523Y-64901904D01*
X147129523Y-64092380D01*
X148034285Y-64425714D02*
X148034285Y-65092380D01*
X147796190Y-64044761D02*
X147558095Y-64759047D01*
X148177142Y-64759047D01*
X70358095Y-155532380D02*
X70358095Y-156341904D01*
X70405714Y-156437142D01*
X70453333Y-156484761D01*
X70548571Y-156532380D01*
X70739047Y-156532380D01*
X70834285Y-156484761D01*
X70881904Y-156437142D01*
X70929523Y-156341904D01*
X70929523Y-155532380D01*
X71310476Y-155532380D02*
X71929523Y-155532380D01*
X71596190Y-155913333D01*
X71739047Y-155913333D01*
X71834285Y-155960952D01*
X71881904Y-156008571D01*
X71929523Y-156103809D01*
X71929523Y-156341904D01*
X71881904Y-156437142D01*
X71834285Y-156484761D01*
X71739047Y-156532380D01*
X71453333Y-156532380D01*
X71358095Y-156484761D01*
X71310476Y-156437142D01*
X193548095Y-9482380D02*
X193548095Y-10291904D01*
X193595714Y-10387142D01*
X193643333Y-10434761D01*
X193738571Y-10482380D01*
X193929047Y-10482380D01*
X194024285Y-10434761D01*
X194071904Y-10387142D01*
X194119523Y-10291904D01*
X194119523Y-9482380D01*
X194548095Y-9577619D02*
X194595714Y-9530000D01*
X194690952Y-9482380D01*
X194929047Y-9482380D01*
X195024285Y-9530000D01*
X195071904Y-9577619D01*
X195119523Y-9672857D01*
X195119523Y-9768095D01*
X195071904Y-9910952D01*
X194500476Y-10482380D01*
X195119523Y-10482380D01*
X193548095Y-131662380D02*
X193548095Y-132471904D01*
X193595714Y-132567142D01*
X193643333Y-132614761D01*
X193738571Y-132662380D01*
X193929047Y-132662380D01*
X194024285Y-132614761D01*
X194071904Y-132567142D01*
X194119523Y-132471904D01*
X194119523Y-131662380D01*
X195119523Y-132662380D02*
X194548095Y-132662380D01*
X194833809Y-132662380D02*
X194833809Y-131662380D01*
X194738571Y-131805238D01*
X194643333Y-131900476D01*
X194548095Y-131948095D01*
X201306666Y-168534761D02*
X201449523Y-168582380D01*
X201687619Y-168582380D01*
X201782857Y-168534761D01*
X201830476Y-168487142D01*
X201878095Y-168391904D01*
X201878095Y-168296666D01*
X201830476Y-168201428D01*
X201782857Y-168153809D01*
X201687619Y-168106190D01*
X201497142Y-168058571D01*
X201401904Y-168010952D01*
X201354285Y-167963333D01*
X201306666Y-167868095D01*
X201306666Y-167772857D01*
X201354285Y-167677619D01*
X201401904Y-167630000D01*
X201497142Y-167582380D01*
X201735238Y-167582380D01*
X201878095Y-167630000D01*
X202211428Y-167582380D02*
X202449523Y-168582380D01*
X202640000Y-167868095D01*
X202830476Y-168582380D01*
X203068571Y-167582380D01*
X203878095Y-167582380D02*
X203687619Y-167582380D01*
X203592380Y-167630000D01*
X203544761Y-167677619D01*
X203449523Y-167820476D01*
X203401904Y-168010952D01*
X203401904Y-168391904D01*
X203449523Y-168487142D01*
X203497142Y-168534761D01*
X203592380Y-168582380D01*
X203782857Y-168582380D01*
X203878095Y-168534761D01*
X203925714Y-168487142D01*
X203973333Y-168391904D01*
X203973333Y-168153809D01*
X203925714Y-168058571D01*
X203878095Y-168010952D01*
X203782857Y-167963333D01*
X203592380Y-167963333D01*
X203497142Y-168010952D01*
X203449523Y-168058571D01*
X203401904Y-168153809D01*
X6996666Y-168534761D02*
X7139523Y-168582380D01*
X7377619Y-168582380D01*
X7472857Y-168534761D01*
X7520476Y-168487142D01*
X7568095Y-168391904D01*
X7568095Y-168296666D01*
X7520476Y-168201428D01*
X7472857Y-168153809D01*
X7377619Y-168106190D01*
X7187142Y-168058571D01*
X7091904Y-168010952D01*
X7044285Y-167963333D01*
X6996666Y-167868095D01*
X6996666Y-167772857D01*
X7044285Y-167677619D01*
X7091904Y-167630000D01*
X7187142Y-167582380D01*
X7425238Y-167582380D01*
X7568095Y-167630000D01*
X7901428Y-167582380D02*
X8139523Y-168582380D01*
X8330000Y-167868095D01*
X8520476Y-168582380D01*
X8758571Y-167582380D01*
X9615714Y-167582380D02*
X9139523Y-167582380D01*
X9091904Y-168058571D01*
X9139523Y-168010952D01*
X9234761Y-167963333D01*
X9472857Y-167963333D01*
X9568095Y-168010952D01*
X9615714Y-168058571D01*
X9663333Y-168153809D01*
X9663333Y-168391904D01*
X9615714Y-168487142D01*
X9568095Y-168534761D01*
X9472857Y-168582380D01*
X9234761Y-168582380D01*
X9139523Y-168534761D01*
X9091904Y-168487142D01*
X-3313333Y-178694761D02*
X-3170476Y-178742380D01*
X-2932380Y-178742380D01*
X-2837142Y-178694761D01*
X-2789523Y-178647142D01*
X-2741904Y-178551904D01*
X-2741904Y-178456666D01*
X-2789523Y-178361428D01*
X-2837142Y-178313809D01*
X-2932380Y-178266190D01*
X-3122857Y-178218571D01*
X-3218095Y-178170952D01*
X-3265714Y-178123333D01*
X-3313333Y-178028095D01*
X-3313333Y-177932857D01*
X-3265714Y-177837619D01*
X-3218095Y-177790000D01*
X-3122857Y-177742380D01*
X-2884761Y-177742380D01*
X-2741904Y-177790000D01*
X-2408571Y-177742380D02*
X-2170476Y-178742380D01*
X-1980000Y-178028095D01*
X-1789523Y-178742380D01*
X-1551428Y-177742380D01*
X-741904Y-178075714D02*
X-741904Y-178742380D01*
X-980000Y-177694761D02*
X-1218095Y-178409047D01*
X-599047Y-178409047D01*
X-3163333Y-158374761D02*
X-3020476Y-158422380D01*
X-2782380Y-158422380D01*
X-2687142Y-158374761D01*
X-2639523Y-158327142D01*
X-2591904Y-158231904D01*
X-2591904Y-158136666D01*
X-2639523Y-158041428D01*
X-2687142Y-157993809D01*
X-2782380Y-157946190D01*
X-2972857Y-157898571D01*
X-3068095Y-157850952D01*
X-3115714Y-157803333D01*
X-3163333Y-157708095D01*
X-3163333Y-157612857D01*
X-3115714Y-157517619D01*
X-3068095Y-157470000D01*
X-2972857Y-157422380D01*
X-2734761Y-157422380D01*
X-2591904Y-157470000D01*
X-2258571Y-157422380D02*
X-2020476Y-158422380D01*
X-1830000Y-157708095D01*
X-1639523Y-158422380D01*
X-1401428Y-157422380D01*
X-1115714Y-157422380D02*
X-496666Y-157422380D01*
X-830000Y-157803333D01*
X-687142Y-157803333D01*
X-591904Y-157850952D01*
X-544285Y-157898571D01*
X-496666Y-157993809D01*
X-496666Y-158231904D01*
X-544285Y-158327142D01*
X-591904Y-158374761D01*
X-687142Y-158422380D01*
X-972857Y-158422380D01*
X-1068095Y-158374761D01*
X-1115714Y-158327142D01*
X-13323333Y-168534761D02*
X-13180476Y-168582380D01*
X-12942380Y-168582380D01*
X-12847142Y-168534761D01*
X-12799523Y-168487142D01*
X-12751904Y-168391904D01*
X-12751904Y-168296666D01*
X-12799523Y-168201428D01*
X-12847142Y-168153809D01*
X-12942380Y-168106190D01*
X-13132857Y-168058571D01*
X-13228095Y-168010952D01*
X-13275714Y-167963333D01*
X-13323333Y-167868095D01*
X-13323333Y-167772857D01*
X-13275714Y-167677619D01*
X-13228095Y-167630000D01*
X-13132857Y-167582380D01*
X-12894761Y-167582380D01*
X-12751904Y-167630000D01*
X-12418571Y-167582380D02*
X-12180476Y-168582380D01*
X-11990000Y-167868095D01*
X-11799523Y-168582380D01*
X-11561428Y-167582380D01*
X-11228095Y-167677619D02*
X-11180476Y-167630000D01*
X-11085238Y-167582380D01*
X-10847142Y-167582380D01*
X-10751904Y-167630000D01*
X-10704285Y-167677619D01*
X-10656666Y-167772857D01*
X-10656666Y-167868095D01*
X-10704285Y-168010952D01*
X-11275714Y-168582380D01*
X-10656666Y-168582380D01*
X201306666Y-149484761D02*
X201449523Y-149532380D01*
X201687619Y-149532380D01*
X201782857Y-149484761D01*
X201830476Y-149437142D01*
X201878095Y-149341904D01*
X201878095Y-149246666D01*
X201830476Y-149151428D01*
X201782857Y-149103809D01*
X201687619Y-149056190D01*
X201497142Y-149008571D01*
X201401904Y-148960952D01*
X201354285Y-148913333D01*
X201306666Y-148818095D01*
X201306666Y-148722857D01*
X201354285Y-148627619D01*
X201401904Y-148580000D01*
X201497142Y-148532380D01*
X201735238Y-148532380D01*
X201878095Y-148580000D01*
X202211428Y-148532380D02*
X202449523Y-149532380D01*
X202640000Y-148818095D01*
X202830476Y-149532380D01*
X203068571Y-148532380D01*
X203973333Y-149532380D02*
X203401904Y-149532380D01*
X203687619Y-149532380D02*
X203687619Y-148532380D01*
X203592380Y-148675238D01*
X203497142Y-148770476D01*
X203401904Y-148818095D01*
X92067142Y-160302380D02*
X91733809Y-159826190D01*
X91495714Y-160302380D02*
X91495714Y-159302380D01*
X91876666Y-159302380D01*
X91971904Y-159350000D01*
X92019523Y-159397619D01*
X92067142Y-159492857D01*
X92067142Y-159635714D01*
X92019523Y-159730952D01*
X91971904Y-159778571D01*
X91876666Y-159826190D01*
X91495714Y-159826190D01*
X93019523Y-160302380D02*
X92448095Y-160302380D01*
X92733809Y-160302380D02*
X92733809Y-159302380D01*
X92638571Y-159445238D01*
X92543333Y-159540476D01*
X92448095Y-159588095D01*
X93352857Y-159302380D02*
X94019523Y-159302380D01*
X93590952Y-160302380D01*
X92067142Y-173002380D02*
X91733809Y-172526190D01*
X91495714Y-173002380D02*
X91495714Y-172002380D01*
X91876666Y-172002380D01*
X91971904Y-172050000D01*
X92019523Y-172097619D01*
X92067142Y-172192857D01*
X92067142Y-172335714D01*
X92019523Y-172430952D01*
X91971904Y-172478571D01*
X91876666Y-172526190D01*
X91495714Y-172526190D01*
X93019523Y-173002380D02*
X92448095Y-173002380D01*
X92733809Y-173002380D02*
X92733809Y-172002380D01*
X92638571Y-172145238D01*
X92543333Y-172240476D01*
X92448095Y-172288095D01*
X93876666Y-172002380D02*
X93686190Y-172002380D01*
X93590952Y-172050000D01*
X93543333Y-172097619D01*
X93448095Y-172240476D01*
X93400476Y-172430952D01*
X93400476Y-172811904D01*
X93448095Y-172907142D01*
X93495714Y-172954761D01*
X93590952Y-173002380D01*
X93781428Y-173002380D01*
X93876666Y-172954761D01*
X93924285Y-172907142D01*
X93971904Y-172811904D01*
X93971904Y-172573809D01*
X93924285Y-172478571D01*
X93876666Y-172430952D01*
X93781428Y-172383333D01*
X93590952Y-172383333D01*
X93495714Y-172430952D01*
X93448095Y-172478571D01*
X93400476Y-172573809D01*
X92067142Y-192052380D02*
X91733809Y-191576190D01*
X91495714Y-192052380D02*
X91495714Y-191052380D01*
X91876666Y-191052380D01*
X91971904Y-191100000D01*
X92019523Y-191147619D01*
X92067142Y-191242857D01*
X92067142Y-191385714D01*
X92019523Y-191480952D01*
X91971904Y-191528571D01*
X91876666Y-191576190D01*
X91495714Y-191576190D01*
X93019523Y-192052380D02*
X92448095Y-192052380D01*
X92733809Y-192052380D02*
X92733809Y-191052380D01*
X92638571Y-191195238D01*
X92543333Y-191290476D01*
X92448095Y-191338095D01*
X93924285Y-191052380D02*
X93448095Y-191052380D01*
X93400476Y-191528571D01*
X93448095Y-191480952D01*
X93543333Y-191433333D01*
X93781428Y-191433333D01*
X93876666Y-191480952D01*
X93924285Y-191528571D01*
X93971904Y-191623809D01*
X93971904Y-191861904D01*
X93924285Y-191957142D01*
X93876666Y-192004761D01*
X93781428Y-192052380D01*
X93543333Y-192052380D01*
X93448095Y-192004761D01*
X93400476Y-191957142D01*
X92067142Y-179352380D02*
X91733809Y-178876190D01*
X91495714Y-179352380D02*
X91495714Y-178352380D01*
X91876666Y-178352380D01*
X91971904Y-178400000D01*
X92019523Y-178447619D01*
X92067142Y-178542857D01*
X92067142Y-178685714D01*
X92019523Y-178780952D01*
X91971904Y-178828571D01*
X91876666Y-178876190D01*
X91495714Y-178876190D01*
X93019523Y-179352380D02*
X92448095Y-179352380D01*
X92733809Y-179352380D02*
X92733809Y-178352380D01*
X92638571Y-178495238D01*
X92543333Y-178590476D01*
X92448095Y-178638095D01*
X93876666Y-178685714D02*
X93876666Y-179352380D01*
X93638571Y-178304761D02*
X93400476Y-179019047D01*
X94019523Y-179019047D01*
X92067142Y-166652380D02*
X91733809Y-166176190D01*
X91495714Y-166652380D02*
X91495714Y-165652380D01*
X91876666Y-165652380D01*
X91971904Y-165700000D01*
X92019523Y-165747619D01*
X92067142Y-165842857D01*
X92067142Y-165985714D01*
X92019523Y-166080952D01*
X91971904Y-166128571D01*
X91876666Y-166176190D01*
X91495714Y-166176190D01*
X93019523Y-166652380D02*
X92448095Y-166652380D01*
X92733809Y-166652380D02*
X92733809Y-165652380D01*
X92638571Y-165795238D01*
X92543333Y-165890476D01*
X92448095Y-165938095D01*
X93352857Y-165652380D02*
X93971904Y-165652380D01*
X93638571Y-166033333D01*
X93781428Y-166033333D01*
X93876666Y-166080952D01*
X93924285Y-166128571D01*
X93971904Y-166223809D01*
X93971904Y-166461904D01*
X93924285Y-166557142D01*
X93876666Y-166604761D01*
X93781428Y-166652380D01*
X93495714Y-166652380D01*
X93400476Y-166604761D01*
X93352857Y-166557142D01*
X128552380Y-123832857D02*
X128076190Y-124166190D01*
X128552380Y-124404285D02*
X127552380Y-124404285D01*
X127552380Y-124023333D01*
X127600000Y-123928095D01*
X127647619Y-123880476D01*
X127742857Y-123832857D01*
X127885714Y-123832857D01*
X127980952Y-123880476D01*
X128028571Y-123928095D01*
X128076190Y-124023333D01*
X128076190Y-124404285D01*
X128552380Y-122880476D02*
X128552380Y-123451904D01*
X128552380Y-123166190D02*
X127552380Y-123166190D01*
X127695238Y-123261428D01*
X127790476Y-123356666D01*
X127838095Y-123451904D01*
X127647619Y-122499523D02*
X127600000Y-122451904D01*
X127552380Y-122356666D01*
X127552380Y-122118571D01*
X127600000Y-122023333D01*
X127647619Y-121975714D01*
X127742857Y-121928095D01*
X127838095Y-121928095D01*
X127980952Y-121975714D01*
X128552380Y-122547142D01*
X128552380Y-121928095D01*
X133632380Y-117482857D02*
X133156190Y-117816190D01*
X133632380Y-118054285D02*
X132632380Y-118054285D01*
X132632380Y-117673333D01*
X132680000Y-117578095D01*
X132727619Y-117530476D01*
X132822857Y-117482857D01*
X132965714Y-117482857D01*
X133060952Y-117530476D01*
X133108571Y-117578095D01*
X133156190Y-117673333D01*
X133156190Y-118054285D01*
X133632380Y-116530476D02*
X133632380Y-117101904D01*
X133632380Y-116816190D02*
X132632380Y-116816190D01*
X132775238Y-116911428D01*
X132870476Y-117006666D01*
X132918095Y-117101904D01*
X133632380Y-115578095D02*
X133632380Y-116149523D01*
X133632380Y-115863809D02*
X132632380Y-115863809D01*
X132775238Y-115959047D01*
X132870476Y-116054285D01*
X132918095Y-116149523D01*
X160642380Y-94622857D02*
X160166190Y-94956190D01*
X160642380Y-95194285D02*
X159642380Y-95194285D01*
X159642380Y-94813333D01*
X159690000Y-94718095D01*
X159737619Y-94670476D01*
X159832857Y-94622857D01*
X159975714Y-94622857D01*
X160070952Y-94670476D01*
X160118571Y-94718095D01*
X160166190Y-94813333D01*
X160166190Y-95194285D01*
X160642380Y-93670476D02*
X160642380Y-94241904D01*
X160642380Y-93956190D02*
X159642380Y-93956190D01*
X159785238Y-94051428D01*
X159880476Y-94146666D01*
X159928095Y-94241904D01*
X159642380Y-93051428D02*
X159642380Y-92956190D01*
X159690000Y-92860952D01*
X159737619Y-92813333D01*
X159832857Y-92765714D01*
X160023333Y-92718095D01*
X160261428Y-92718095D01*
X160451904Y-92765714D01*
X160547142Y-92813333D01*
X160594761Y-92860952D01*
X160642380Y-92956190D01*
X160642380Y-93051428D01*
X160594761Y-93146666D01*
X160547142Y-93194285D01*
X160451904Y-93241904D01*
X160261428Y-93289523D01*
X160023333Y-93289523D01*
X159832857Y-93241904D01*
X159737619Y-93194285D01*
X159690000Y-93146666D01*
X159642380Y-93051428D01*
X165382380Y-78906666D02*
X164906190Y-79240000D01*
X165382380Y-79478095D02*
X164382380Y-79478095D01*
X164382380Y-79097142D01*
X164430000Y-79001904D01*
X164477619Y-78954285D01*
X164572857Y-78906666D01*
X164715714Y-78906666D01*
X164810952Y-78954285D01*
X164858571Y-79001904D01*
X164906190Y-79097142D01*
X164906190Y-79478095D01*
X165382380Y-78430476D02*
X165382380Y-78240000D01*
X165334761Y-78144761D01*
X165287142Y-78097142D01*
X165144285Y-78001904D01*
X164953809Y-77954285D01*
X164572857Y-77954285D01*
X164477619Y-78001904D01*
X164430000Y-78049523D01*
X164382380Y-78144761D01*
X164382380Y-78335238D01*
X164430000Y-78430476D01*
X164477619Y-78478095D01*
X164572857Y-78525714D01*
X164810952Y-78525714D01*
X164906190Y-78478095D01*
X164953809Y-78430476D01*
X165001428Y-78335238D01*
X165001428Y-78144761D01*
X164953809Y-78049523D01*
X164906190Y-78001904D01*
X164810952Y-77954285D01*
X46823333Y-174612380D02*
X46490000Y-174136190D01*
X46251904Y-174612380D02*
X46251904Y-173612380D01*
X46632857Y-173612380D01*
X46728095Y-173660000D01*
X46775714Y-173707619D01*
X46823333Y-173802857D01*
X46823333Y-173945714D01*
X46775714Y-174040952D01*
X46728095Y-174088571D01*
X46632857Y-174136190D01*
X46251904Y-174136190D01*
X47394761Y-174040952D02*
X47299523Y-173993333D01*
X47251904Y-173945714D01*
X47204285Y-173850476D01*
X47204285Y-173802857D01*
X47251904Y-173707619D01*
X47299523Y-173660000D01*
X47394761Y-173612380D01*
X47585238Y-173612380D01*
X47680476Y-173660000D01*
X47728095Y-173707619D01*
X47775714Y-173802857D01*
X47775714Y-173850476D01*
X47728095Y-173945714D01*
X47680476Y-173993333D01*
X47585238Y-174040952D01*
X47394761Y-174040952D01*
X47299523Y-174088571D01*
X47251904Y-174136190D01*
X47204285Y-174231428D01*
X47204285Y-174421904D01*
X47251904Y-174517142D01*
X47299523Y-174564761D01*
X47394761Y-174612380D01*
X47585238Y-174612380D01*
X47680476Y-174564761D01*
X47728095Y-174517142D01*
X47775714Y-174421904D01*
X47775714Y-174231428D01*
X47728095Y-174136190D01*
X47680476Y-174088571D01*
X47585238Y-174040952D01*
X46823333Y-169192380D02*
X46490000Y-168716190D01*
X46251904Y-169192380D02*
X46251904Y-168192380D01*
X46632857Y-168192380D01*
X46728095Y-168240000D01*
X46775714Y-168287619D01*
X46823333Y-168382857D01*
X46823333Y-168525714D01*
X46775714Y-168620952D01*
X46728095Y-168668571D01*
X46632857Y-168716190D01*
X46251904Y-168716190D01*
X47156666Y-168192380D02*
X47823333Y-168192380D01*
X47394761Y-169192380D01*
X46823333Y-186972380D02*
X46490000Y-186496190D01*
X46251904Y-186972380D02*
X46251904Y-185972380D01*
X46632857Y-185972380D01*
X46728095Y-186020000D01*
X46775714Y-186067619D01*
X46823333Y-186162857D01*
X46823333Y-186305714D01*
X46775714Y-186400952D01*
X46728095Y-186448571D01*
X46632857Y-186496190D01*
X46251904Y-186496190D01*
X47680476Y-185972380D02*
X47490000Y-185972380D01*
X47394761Y-186020000D01*
X47347142Y-186067619D01*
X47251904Y-186210476D01*
X47204285Y-186400952D01*
X47204285Y-186781904D01*
X47251904Y-186877142D01*
X47299523Y-186924761D01*
X47394761Y-186972380D01*
X47585238Y-186972380D01*
X47680476Y-186924761D01*
X47728095Y-186877142D01*
X47775714Y-186781904D01*
X47775714Y-186543809D01*
X47728095Y-186448571D01*
X47680476Y-186400952D01*
X47585238Y-186353333D01*
X47394761Y-186353333D01*
X47299523Y-186400952D01*
X47251904Y-186448571D01*
X47204285Y-186543809D01*
X46823333Y-174272380D02*
X46490000Y-173796190D01*
X46251904Y-174272380D02*
X46251904Y-173272380D01*
X46632857Y-173272380D01*
X46728095Y-173320000D01*
X46775714Y-173367619D01*
X46823333Y-173462857D01*
X46823333Y-173605714D01*
X46775714Y-173700952D01*
X46728095Y-173748571D01*
X46632857Y-173796190D01*
X46251904Y-173796190D01*
X47728095Y-173272380D02*
X47251904Y-173272380D01*
X47204285Y-173748571D01*
X47251904Y-173700952D01*
X47347142Y-173653333D01*
X47585238Y-173653333D01*
X47680476Y-173700952D01*
X47728095Y-173748571D01*
X47775714Y-173843809D01*
X47775714Y-174081904D01*
X47728095Y-174177142D01*
X47680476Y-174224761D01*
X47585238Y-174272380D01*
X47347142Y-174272380D01*
X47251904Y-174224761D01*
X47204285Y-174177142D01*
X92543333Y-180962380D02*
X92210000Y-180486190D01*
X91971904Y-180962380D02*
X91971904Y-179962380D01*
X92352857Y-179962380D01*
X92448095Y-180010000D01*
X92495714Y-180057619D01*
X92543333Y-180152857D01*
X92543333Y-180295714D01*
X92495714Y-180390952D01*
X92448095Y-180438571D01*
X92352857Y-180486190D01*
X91971904Y-180486190D01*
X93400476Y-180295714D02*
X93400476Y-180962380D01*
X93162380Y-179914761D02*
X92924285Y-180629047D01*
X93543333Y-180629047D01*
X182232380Y-141136666D02*
X181756190Y-141470000D01*
X182232380Y-141708095D02*
X181232380Y-141708095D01*
X181232380Y-141327142D01*
X181280000Y-141231904D01*
X181327619Y-141184285D01*
X181422857Y-141136666D01*
X181565714Y-141136666D01*
X181660952Y-141184285D01*
X181708571Y-141231904D01*
X181756190Y-141327142D01*
X181756190Y-141708095D01*
X181232380Y-140803333D02*
X181232380Y-140184285D01*
X181613333Y-140517619D01*
X181613333Y-140374761D01*
X181660952Y-140279523D01*
X181708571Y-140231904D01*
X181803809Y-140184285D01*
X182041904Y-140184285D01*
X182137142Y-140231904D01*
X182184761Y-140279523D01*
X182232380Y-140374761D01*
X182232380Y-140660476D01*
X182184761Y-140755714D01*
X182137142Y-140803333D01*
X178082380Y-113196666D02*
X177606190Y-113530000D01*
X178082380Y-113768095D02*
X177082380Y-113768095D01*
X177082380Y-113387142D01*
X177130000Y-113291904D01*
X177177619Y-113244285D01*
X177272857Y-113196666D01*
X177415714Y-113196666D01*
X177510952Y-113244285D01*
X177558571Y-113291904D01*
X177606190Y-113387142D01*
X177606190Y-113768095D01*
X177177619Y-112815714D02*
X177130000Y-112768095D01*
X177082380Y-112672857D01*
X177082380Y-112434761D01*
X177130000Y-112339523D01*
X177177619Y-112291904D01*
X177272857Y-112244285D01*
X177368095Y-112244285D01*
X177510952Y-112291904D01*
X178082380Y-112863333D01*
X178082380Y-112244285D01*
X208902380Y-111926666D02*
X208426190Y-112260000D01*
X208902380Y-112498095D02*
X207902380Y-112498095D01*
X207902380Y-112117142D01*
X207950000Y-112021904D01*
X207997619Y-111974285D01*
X208092857Y-111926666D01*
X208235714Y-111926666D01*
X208330952Y-111974285D01*
X208378571Y-112021904D01*
X208426190Y-112117142D01*
X208426190Y-112498095D01*
X208902380Y-110974285D02*
X208902380Y-111545714D01*
X208902380Y-111260000D02*
X207902380Y-111260000D01*
X208045238Y-111355238D01*
X208140476Y-111450476D01*
X208188095Y-111545714D01*
X25066666Y-80942380D02*
X25066666Y-81656666D01*
X25019047Y-81799523D01*
X24923809Y-81894761D01*
X24780952Y-81942380D01*
X24685714Y-81942380D01*
X26066666Y-81942380D02*
X25495238Y-81942380D01*
X25780952Y-81942380D02*
X25780952Y-80942380D01*
X25685714Y-81085238D01*
X25590476Y-81180476D01*
X25495238Y-81228095D01*
X222123333Y-20847142D02*
X222075714Y-20894761D01*
X221932857Y-20942380D01*
X221837619Y-20942380D01*
X221694761Y-20894761D01*
X221599523Y-20799523D01*
X221551904Y-20704285D01*
X221504285Y-20513809D01*
X221504285Y-20370952D01*
X221551904Y-20180476D01*
X221599523Y-20085238D01*
X221694761Y-19990000D01*
X221837619Y-19942380D01*
X221932857Y-19942380D01*
X222075714Y-19990000D01*
X222123333Y-20037619D01*
X222980476Y-19942380D02*
X222790000Y-19942380D01*
X222694761Y-19990000D01*
X222647142Y-20037619D01*
X222551904Y-20180476D01*
X222504285Y-20370952D01*
X222504285Y-20751904D01*
X222551904Y-20847142D01*
X222599523Y-20894761D01*
X222694761Y-20942380D01*
X222885238Y-20942380D01*
X222980476Y-20894761D01*
X223028095Y-20847142D01*
X223075714Y-20751904D01*
X223075714Y-20513809D01*
X223028095Y-20418571D01*
X222980476Y-20370952D01*
X222885238Y-20323333D01*
X222694761Y-20323333D01*
X222599523Y-20370952D01*
X222551904Y-20418571D01*
X222504285Y-20513809D01*
X80057142Y-160226666D02*
X80104761Y-160274285D01*
X80152380Y-160417142D01*
X80152380Y-160512380D01*
X80104761Y-160655238D01*
X80009523Y-160750476D01*
X79914285Y-160798095D01*
X79723809Y-160845714D01*
X79580952Y-160845714D01*
X79390476Y-160798095D01*
X79295238Y-160750476D01*
X79200000Y-160655238D01*
X79152380Y-160512380D01*
X79152380Y-160417142D01*
X79200000Y-160274285D01*
X79247619Y-160226666D01*
X79152380Y-159321904D02*
X79152380Y-159798095D01*
X79628571Y-159845714D01*
X79580952Y-159798095D01*
X79533333Y-159702857D01*
X79533333Y-159464761D01*
X79580952Y-159369523D01*
X79628571Y-159321904D01*
X79723809Y-159274285D01*
X79961904Y-159274285D01*
X80057142Y-159321904D01*
X80104761Y-159369523D01*
X80152380Y-159464761D01*
X80152380Y-159702857D01*
X80104761Y-159798095D01*
X80057142Y-159845714D01*
X54657142Y-176736666D02*
X54704761Y-176784285D01*
X54752380Y-176927142D01*
X54752380Y-177022380D01*
X54704761Y-177165238D01*
X54609523Y-177260476D01*
X54514285Y-177308095D01*
X54323809Y-177355714D01*
X54180952Y-177355714D01*
X53990476Y-177308095D01*
X53895238Y-177260476D01*
X53800000Y-177165238D01*
X53752380Y-177022380D01*
X53752380Y-176927142D01*
X53800000Y-176784285D01*
X53847619Y-176736666D01*
X54085714Y-175879523D02*
X54752380Y-175879523D01*
X53704761Y-176117619D02*
X54419047Y-176355714D01*
X54419047Y-175736666D01*
X80057142Y-170386666D02*
X80104761Y-170434285D01*
X80152380Y-170577142D01*
X80152380Y-170672380D01*
X80104761Y-170815238D01*
X80009523Y-170910476D01*
X79914285Y-170958095D01*
X79723809Y-171005714D01*
X79580952Y-171005714D01*
X79390476Y-170958095D01*
X79295238Y-170910476D01*
X79200000Y-170815238D01*
X79152380Y-170672380D01*
X79152380Y-170577142D01*
X79200000Y-170434285D01*
X79247619Y-170386666D01*
X79152380Y-170053333D02*
X79152380Y-169434285D01*
X79533333Y-169767619D01*
X79533333Y-169624761D01*
X79580952Y-169529523D01*
X79628571Y-169481904D01*
X79723809Y-169434285D01*
X79961904Y-169434285D01*
X80057142Y-169481904D01*
X80104761Y-169529523D01*
X80152380Y-169624761D01*
X80152380Y-169910476D01*
X80104761Y-170005714D01*
X80057142Y-170053333D01*
X54657142Y-166576666D02*
X54704761Y-166624285D01*
X54752380Y-166767142D01*
X54752380Y-166862380D01*
X54704761Y-167005238D01*
X54609523Y-167100476D01*
X54514285Y-167148095D01*
X54323809Y-167195714D01*
X54180952Y-167195714D01*
X53990476Y-167148095D01*
X53895238Y-167100476D01*
X53800000Y-167005238D01*
X53752380Y-166862380D01*
X53752380Y-166767142D01*
X53800000Y-166624285D01*
X53847619Y-166576666D01*
X53847619Y-166195714D02*
X53800000Y-166148095D01*
X53752380Y-166052857D01*
X53752380Y-165814761D01*
X53800000Y-165719523D01*
X53847619Y-165671904D01*
X53942857Y-165624285D01*
X54038095Y-165624285D01*
X54180952Y-165671904D01*
X54752380Y-166243333D01*
X54752380Y-165624285D01*
X80057142Y-179276666D02*
X80104761Y-179324285D01*
X80152380Y-179467142D01*
X80152380Y-179562380D01*
X80104761Y-179705238D01*
X80009523Y-179800476D01*
X79914285Y-179848095D01*
X79723809Y-179895714D01*
X79580952Y-179895714D01*
X79390476Y-179848095D01*
X79295238Y-179800476D01*
X79200000Y-179705238D01*
X79152380Y-179562380D01*
X79152380Y-179467142D01*
X79200000Y-179324285D01*
X79247619Y-179276666D01*
X80152380Y-178324285D02*
X80152380Y-178895714D01*
X80152380Y-178610000D02*
X79152380Y-178610000D01*
X79295238Y-178705238D01*
X79390476Y-178800476D01*
X79438095Y-178895714D01*
X221464285Y7481428D02*
X221607142Y7433809D01*
X221654761Y7386190D01*
X221702380Y7290952D01*
X221702380Y7148095D01*
X221654761Y7052857D01*
X221607142Y7005238D01*
X221511904Y6957619D01*
X221130952Y6957619D01*
X221130952Y7957619D01*
X221464285Y7957619D01*
X221559523Y7910000D01*
X221607142Y7862380D01*
X221654761Y7767142D01*
X221654761Y7671904D01*
X221607142Y7576666D01*
X221559523Y7529047D01*
X221464285Y7481428D01*
X221130952Y7481428D01*
X221988095Y7957619D02*
X222559523Y7957619D01*
X222273809Y6957619D02*
X222273809Y7957619D01*
X223416666Y6957619D02*
X222845238Y6957619D01*
X223130952Y6957619D02*
X223130952Y7957619D01*
X223035714Y7814761D01*
X222940476Y7719523D01*
X222845238Y7671904D01*
M02*
