G04 #@! TF.GenerationSoftware,KiCad,Pcbnew,(5.1.5-0)*
G04 #@! TF.CreationDate,2020-09-26T19:30:37-04:00*
G04 #@! TF.ProjectId,vectron_handheld_pcb,76656374-726f-46e5-9f68-616e6468656c,rev?*
G04 #@! TF.SameCoordinates,Original*
G04 #@! TF.FileFunction,Copper,L1,Top*
G04 #@! TF.FilePolarity,Positive*
%FSLAX46Y46*%
G04 Gerber Fmt 4.6, Leading zero omitted, Abs format (unit mm)*
G04 Created by KiCad (PCBNEW (5.1.5-0)) date 2020-09-26 19:30:37*
%MOMM*%
%LPD*%
G04 APERTURE LIST*
%ADD10O,2.000000X1.440000*%
%ADD11R,2.000000X1.440000*%
%ADD12C,1.600000*%
%ADD13R,1.600000X1.600000*%
%ADD14O,1.440000X2.000000*%
%ADD15R,1.440000X2.000000*%
%ADD16C,1.700000*%
%ADD17O,1.600000X1.600000*%
%ADD18O,1.700000X1.700000*%
%ADD19R,1.700000X1.700000*%
%ADD20C,0.800000*%
%ADD21C,0.250000*%
G04 APERTURE END LIST*
D10*
X-16510000Y-19050000D03*
X-24130000Y-19050000D03*
X-16510000Y-16510000D03*
X-24130000Y-16510000D03*
X-16510000Y-13970000D03*
X-24130000Y-13970000D03*
X-16510000Y-11430000D03*
X-24130000Y-11430000D03*
X-16510000Y-8890000D03*
X-24130000Y-8890000D03*
X-16510000Y-6350000D03*
X-24130000Y-6350000D03*
X-16510000Y-3810000D03*
D11*
X-24130000Y-3810000D03*
D12*
X213360000Y-123190000D03*
X213360000Y-130810000D03*
X228600000Y-130810000D03*
D13*
X228600000Y-123190000D03*
D10*
X-16510000Y-62230000D03*
X-24130000Y-62230000D03*
X-16510000Y-59690000D03*
X-24130000Y-59690000D03*
X-16510000Y-57150000D03*
X-24130000Y-57150000D03*
X-16510000Y-54610000D03*
X-24130000Y-54610000D03*
X-16510000Y-52070000D03*
X-24130000Y-52070000D03*
X-16510000Y-49530000D03*
X-24130000Y-49530000D03*
X-16510000Y-46990000D03*
D11*
X-24130000Y-46990000D03*
D10*
X-24130000Y-87630000D03*
X-16510000Y-87630000D03*
X-24130000Y-90170000D03*
X-16510000Y-90170000D03*
X-24130000Y-92710000D03*
X-16510000Y-92710000D03*
X-24130000Y-95250000D03*
X-16510000Y-95250000D03*
X-24130000Y-97790000D03*
X-16510000Y-97790000D03*
X-24130000Y-100330000D03*
X-16510000Y-100330000D03*
X-24130000Y-102870000D03*
D11*
X-16510000Y-102870000D03*
D14*
X50800000Y-33020000D03*
X50800000Y-25400000D03*
X53340000Y-33020000D03*
X53340000Y-25400000D03*
X55880000Y-33020000D03*
X55880000Y-25400000D03*
X58420000Y-33020000D03*
X58420000Y-25400000D03*
X60960000Y-33020000D03*
X60960000Y-25400000D03*
X63500000Y-33020000D03*
X63500000Y-25400000D03*
X66040000Y-33020000D03*
X66040000Y-25400000D03*
X68580000Y-33020000D03*
X68580000Y-25400000D03*
X71120000Y-33020000D03*
X71120000Y-25400000D03*
X73660000Y-33020000D03*
D15*
X73660000Y-25400000D03*
D10*
X176530000Y-54610000D03*
X161290000Y-54610000D03*
X176530000Y-52070000D03*
X161290000Y-52070000D03*
X176530000Y-49530000D03*
X161290000Y-49530000D03*
X176530000Y-46990000D03*
X161290000Y-46990000D03*
X176530000Y-44450000D03*
X161290000Y-44450000D03*
X176530000Y-41910000D03*
X161290000Y-41910000D03*
X176530000Y-39370000D03*
X161290000Y-39370000D03*
X176530000Y-36830000D03*
X161290000Y-36830000D03*
X176530000Y-34290000D03*
X161290000Y-34290000D03*
X176530000Y-31750000D03*
X161290000Y-31750000D03*
X176530000Y-29210000D03*
X161290000Y-29210000D03*
X176530000Y-26670000D03*
X161290000Y-26670000D03*
X176530000Y-24130000D03*
X161290000Y-24130000D03*
X176530000Y-21590000D03*
D11*
X161290000Y-21590000D03*
D14*
X76200000Y2540000D03*
X76200000Y-5080000D03*
X73660000Y2540000D03*
X73660000Y-5080000D03*
X71120000Y2540000D03*
X71120000Y-5080000D03*
X68580000Y2540000D03*
X68580000Y-5080000D03*
X66040000Y2540000D03*
X66040000Y-5080000D03*
X63500000Y2540000D03*
X63500000Y-5080000D03*
X60960000Y2540000D03*
X60960000Y-5080000D03*
X58420000Y2540000D03*
X58420000Y-5080000D03*
X55880000Y2540000D03*
X55880000Y-5080000D03*
X53340000Y2540000D03*
D15*
X53340000Y-5080000D03*
D10*
X154940000Y-124460000D03*
X139700000Y-124460000D03*
X154940000Y-121920000D03*
X139700000Y-121920000D03*
X154940000Y-119380000D03*
X139700000Y-119380000D03*
X154940000Y-116840000D03*
X139700000Y-116840000D03*
X154940000Y-114300000D03*
X139700000Y-114300000D03*
X154940000Y-111760000D03*
X139700000Y-111760000D03*
X154940000Y-109220000D03*
X139700000Y-109220000D03*
X154940000Y-106680000D03*
X139700000Y-106680000D03*
X154940000Y-104140000D03*
X139700000Y-104140000D03*
X154940000Y-101600000D03*
X139700000Y-101600000D03*
X154940000Y-99060000D03*
X139700000Y-99060000D03*
X154940000Y-96520000D03*
X139700000Y-96520000D03*
X154940000Y-93980000D03*
X139700000Y-93980000D03*
X154940000Y-91440000D03*
X139700000Y-91440000D03*
X154940000Y-88900000D03*
X139700000Y-88900000D03*
X154940000Y-86360000D03*
X139700000Y-86360000D03*
X154940000Y-83820000D03*
X139700000Y-83820000D03*
X154940000Y-81280000D03*
X139700000Y-81280000D03*
X154940000Y-78740000D03*
X139700000Y-78740000D03*
X154940000Y-76200000D03*
D11*
X139700000Y-76200000D03*
D10*
X74930000Y-182880000D03*
X67310000Y-182880000D03*
X74930000Y-180340000D03*
X67310000Y-180340000D03*
X74930000Y-177800000D03*
X67310000Y-177800000D03*
X74930000Y-175260000D03*
X67310000Y-175260000D03*
X74930000Y-172720000D03*
X67310000Y-172720000D03*
X74930000Y-170180000D03*
X67310000Y-170180000D03*
X74930000Y-167640000D03*
D11*
X67310000Y-167640000D03*
D10*
X201930000Y-54610000D03*
X186690000Y-54610000D03*
X201930000Y-52070000D03*
X186690000Y-52070000D03*
X201930000Y-49530000D03*
X186690000Y-49530000D03*
X201930000Y-46990000D03*
X186690000Y-46990000D03*
X201930000Y-44450000D03*
X186690000Y-44450000D03*
X201930000Y-41910000D03*
X186690000Y-41910000D03*
X201930000Y-39370000D03*
X186690000Y-39370000D03*
X201930000Y-36830000D03*
X186690000Y-36830000D03*
X201930000Y-34290000D03*
X186690000Y-34290000D03*
X201930000Y-31750000D03*
X186690000Y-31750000D03*
X201930000Y-29210000D03*
X186690000Y-29210000D03*
X201930000Y-26670000D03*
X186690000Y-26670000D03*
X201930000Y-24130000D03*
X186690000Y-24130000D03*
X201930000Y-21590000D03*
D11*
X186690000Y-21590000D03*
D10*
X186690000Y-72390000D03*
X201930000Y-72390000D03*
X186690000Y-74930000D03*
X201930000Y-74930000D03*
X186690000Y-77470000D03*
X201930000Y-77470000D03*
X186690000Y-80010000D03*
X201930000Y-80010000D03*
X186690000Y-82550000D03*
X201930000Y-82550000D03*
X186690000Y-85090000D03*
X201930000Y-85090000D03*
X186690000Y-87630000D03*
X201930000Y-87630000D03*
X186690000Y-90170000D03*
X201930000Y-90170000D03*
X186690000Y-92710000D03*
X201930000Y-92710000D03*
X186690000Y-95250000D03*
X201930000Y-95250000D03*
X186690000Y-97790000D03*
X201930000Y-97790000D03*
X186690000Y-100330000D03*
X201930000Y-100330000D03*
X186690000Y-102870000D03*
X201930000Y-102870000D03*
X186690000Y-105410000D03*
X201930000Y-105410000D03*
X186690000Y-107950000D03*
X201930000Y-107950000D03*
X186690000Y-110490000D03*
X201930000Y-110490000D03*
X186690000Y-113030000D03*
X201930000Y-113030000D03*
X186690000Y-115570000D03*
X201930000Y-115570000D03*
X186690000Y-118110000D03*
X201930000Y-118110000D03*
X186690000Y-120650000D03*
D11*
X201930000Y-120650000D03*
D16*
X199390000Y-170180000D03*
X205890000Y-170180000D03*
X199390000Y-174680000D03*
X205890000Y-174680000D03*
X5080000Y-170180000D03*
X11580000Y-170180000D03*
X5080000Y-174680000D03*
X11580000Y-174680000D03*
X-5230000Y-180340000D03*
X1270000Y-180340000D03*
X-5230000Y-184840000D03*
X1270000Y-184840000D03*
X-5080000Y-160020000D03*
X1420000Y-160020000D03*
X-5080000Y-164520000D03*
X1420000Y-164520000D03*
X-15240000Y-170180000D03*
X-8740000Y-170180000D03*
X-15240000Y-174680000D03*
X-8740000Y-174680000D03*
X199390000Y-151130000D03*
X205890000Y-151130000D03*
X199390000Y-155630000D03*
X205890000Y-155630000D03*
D17*
X87630000Y-157480000D03*
D12*
X97790000Y-157480000D03*
D17*
X87630000Y-170180000D03*
D12*
X97790000Y-170180000D03*
D17*
X87630000Y-189230000D03*
D12*
X97790000Y-189230000D03*
D17*
X87630000Y-176530000D03*
D12*
X97790000Y-176530000D03*
D17*
X87630000Y-163830000D03*
D12*
X97790000Y-163830000D03*
D17*
X125730000Y-128270000D03*
D12*
X125730000Y-118110000D03*
D17*
X130810000Y-121920000D03*
D12*
X130810000Y-111760000D03*
D17*
X162560000Y-88900000D03*
D12*
X162560000Y-99060000D03*
D17*
X162560000Y-83820000D03*
D12*
X162560000Y-73660000D03*
D17*
X52070000Y-176530000D03*
D12*
X41910000Y-176530000D03*
D17*
X41910000Y-166370000D03*
D12*
X52070000Y-166370000D03*
D17*
X41910000Y-184150000D03*
D12*
X52070000Y-184150000D03*
D17*
X41910000Y-171450000D03*
D12*
X52070000Y-171450000D03*
D17*
X97790000Y-182880000D03*
D12*
X87630000Y-182880000D03*
D17*
X184150000Y-135890000D03*
D12*
X184150000Y-146050000D03*
D17*
X175260000Y-118110000D03*
D12*
X175260000Y-107950000D03*
D17*
X210820000Y-106680000D03*
D12*
X210820000Y-116840000D03*
D18*
X25400000Y-106680000D03*
X25400000Y-104140000D03*
X25400000Y-101600000D03*
X25400000Y-99060000D03*
X25400000Y-96520000D03*
X25400000Y-93980000D03*
X25400000Y-91440000D03*
X25400000Y-88900000D03*
X25400000Y-86360000D03*
D19*
X25400000Y-83820000D03*
D12*
X219790000Y-15240000D03*
D13*
X224790000Y-15240000D03*
D12*
X82550000Y-157560000D03*
X82550000Y-162560000D03*
X57150000Y-174070000D03*
X57150000Y-179070000D03*
X82550000Y-167720000D03*
X82550000Y-172720000D03*
X57150000Y-163910000D03*
X57150000Y-168910000D03*
X82550000Y-176610000D03*
X82550000Y-181610000D03*
D18*
X222250000Y2540000D03*
D19*
X222250000Y5080000D03*
D20*
X163830000Y-5080000D03*
X158750000Y-91440000D03*
X158750000Y-121920000D03*
X147320000Y-78740000D03*
X198120000Y-120650000D03*
X209550000Y-34290000D03*
X209550000Y-72390000D03*
X199390000Y-34290000D03*
X179070000Y-34290000D03*
X177800000Y-6350000D03*
X162560000Y3810000D03*
X181610000Y-58420000D03*
X180340000Y-55880000D03*
X210820000Y-39370000D03*
X210820000Y-74930000D03*
X199390000Y-39370000D03*
X179070000Y-39370000D03*
X179070000Y-3810000D03*
X179070000Y-26670000D03*
X199390000Y-26670000D03*
X173990000Y-26670000D03*
X172720000Y-77470000D03*
X175260000Y3810000D03*
X207010000Y-31750000D03*
X207010000Y-77470000D03*
X179070000Y-31750000D03*
X199390000Y-31750000D03*
X207010000Y-17780000D03*
X163830000Y5260001D03*
X170180000Y-58420000D03*
X172720000Y-20320000D03*
X208280000Y-29210000D03*
X208280000Y-80010000D03*
X179070000Y-29210000D03*
X199390000Y-29210000D03*
X223524265Y6354265D03*
X223520000Y-82550000D03*
X-11430000Y-92710000D03*
X-11430000Y7620000D03*
X222250000Y-82550000D03*
X222250000Y-25400000D03*
X195580000Y-25400000D03*
X152400000Y-26670000D03*
X199390000Y-44450000D03*
X179070000Y-44450000D03*
X179070000Y-85090000D03*
X171450000Y-111760000D03*
X171450000Y-85090000D03*
X220980000Y-85090000D03*
X220980000Y-29210000D03*
X195580000Y-29210000D03*
X152400000Y-29210000D03*
X212090000Y-46990000D03*
X212090000Y-87630000D03*
X180340000Y-46990000D03*
X199390000Y-46990000D03*
X184150000Y-109220000D03*
X219710000Y-86360000D03*
X219710000Y-30480000D03*
X194310000Y-31750000D03*
X152400000Y-31750000D03*
X198120000Y-49530000D03*
X198120000Y-90170000D03*
X173990000Y-90170000D03*
X173990000Y-49530000D03*
X180340000Y-49530000D03*
X196850000Y-49530000D03*
X167640000Y-106680000D03*
X167640000Y-90170000D03*
X218440000Y-90170000D03*
X218440000Y-34290000D03*
X195580000Y-34290000D03*
X151130000Y-34290000D03*
X196850000Y-52070000D03*
X196850000Y-92710000D03*
X180340000Y-52070000D03*
X195580000Y-52070000D03*
X166370000Y-104140000D03*
X166370000Y-92710000D03*
X217170000Y-92710000D03*
X217170000Y-38100000D03*
X195580000Y-36830000D03*
X148590000Y-88900000D03*
X196125000Y-54610000D03*
X195580000Y-95250000D03*
X180340000Y-54610000D03*
X194310000Y-54610000D03*
X165100000Y-101600000D03*
X165100000Y-95250000D03*
X215900000Y-95250000D03*
X215900000Y-40640000D03*
X195580000Y-39370000D03*
X149860000Y-86360000D03*
X185407507Y-56425000D03*
X214630000Y-97790000D03*
X214630000Y-43180000D03*
X200660000Y-43180000D03*
X151130000Y-83820000D03*
X160020000Y-96520000D03*
X160020000Y-100330000D03*
X213360000Y-100330000D03*
X213360000Y-45720000D03*
X195580000Y-45720000D03*
X152400000Y-81280000D03*
X157480000Y-93980000D03*
X157480000Y-102870000D03*
X168910000Y-120650000D03*
X168910000Y-105410000D03*
X19050000Y-114300000D03*
X-10160000Y-85090000D03*
X146050000Y-49530000D03*
X203200000Y-57150000D03*
X168910000Y-2359999D03*
X168910000Y-41910000D03*
X152400000Y-25400000D03*
X162560000Y-25400000D03*
X1270000Y-92710000D03*
X148590000Y-8890000D03*
X171450000Y-8890000D03*
X171450000Y-24130000D03*
X-21590000Y-54610000D03*
X-21590000Y-97790000D03*
D21*
X154564879Y-18373199D02*
X154564879Y-49154879D01*
X159738195Y-13199883D02*
X154564879Y-18373199D01*
X189113208Y-13199882D02*
X159738195Y-13199883D01*
X187940000Y-54610000D02*
X193415112Y-49134888D01*
X193415112Y-17501784D02*
X189113208Y-13199882D01*
X193415112Y-49134888D02*
X193415112Y-17501784D01*
X186690000Y-54610000D02*
X187940000Y-54610000D01*
X160020000Y-54610000D02*
X161290000Y-54610000D01*
X154564879Y-49154879D02*
X160020000Y-54610000D01*
X76200000Y-5080000D02*
X163830000Y-5080000D01*
X96990001Y-182080001D02*
X97790000Y-182880000D01*
X96664999Y-181754999D02*
X96990001Y-182080001D01*
X96664999Y-171305001D02*
X96664999Y-181754999D01*
X97790000Y-170180000D02*
X96664999Y-171305001D01*
X207010000Y-102870000D02*
X210820000Y-106680000D01*
X201930000Y-102870000D02*
X207010000Y-102870000D01*
X83675001Y-168845001D02*
X83349999Y-168519999D01*
X83349999Y-168519999D02*
X82550000Y-167720000D01*
X83675001Y-175484999D02*
X83675001Y-168845001D01*
X82550000Y-176610000D02*
X83675001Y-175484999D01*
X81280000Y-180340000D02*
X82550000Y-181610000D01*
X74930000Y-180340000D02*
X81280000Y-180340000D01*
X86360000Y-181610000D02*
X87630000Y-182880000D01*
X82550000Y-181610000D02*
X86360000Y-181610000D01*
X73680000Y-180340000D02*
X74930000Y-180340000D01*
X67554990Y-186465010D02*
X73680000Y-180340000D01*
X-15240000Y-177205412D02*
X-5980402Y-186465010D01*
X-5980402Y-186465010D02*
X67554990Y-186465010D01*
X-15240000Y-174680000D02*
X-15240000Y-177205412D01*
X58420000Y-167640000D02*
X57150000Y-168910000D01*
X67310000Y-167640000D02*
X58420000Y-167640000D01*
X54610000Y-168910000D02*
X52070000Y-166370000D01*
X57150000Y-168910000D02*
X54610000Y-168910000D01*
X50938630Y-166370000D02*
X52070000Y-166370000D01*
X11994001Y-171355001D02*
X40339997Y-171355001D01*
X45324998Y-166370000D02*
X50938630Y-166370000D01*
X40339997Y-171355001D02*
X45324998Y-166370000D01*
X-1490998Y-184840000D02*
X11994001Y-171355001D01*
X-5230000Y-184840000D02*
X-1490998Y-184840000D01*
X73680000Y-175260000D02*
X74930000Y-175260000D01*
X73604990Y-175184990D02*
X73680000Y-175260000D01*
X64760001Y-162784999D02*
X73604990Y-171629988D01*
X73604990Y-171629988D02*
X73604990Y-175184990D01*
X-1340998Y-164520000D02*
X394003Y-162784999D01*
X394003Y-162784999D02*
X64760001Y-162784999D01*
X-5080000Y-164520000D02*
X-1340998Y-164520000D01*
X58500000Y-172720000D02*
X57150000Y-174070000D01*
X67310000Y-172720000D02*
X58500000Y-172720000D01*
X54690000Y-176530000D02*
X57150000Y-174070000D01*
X52070000Y-176530000D02*
X54690000Y-176530000D01*
X42584999Y-186015001D02*
X51270001Y-177329999D01*
X-5794001Y-186015001D02*
X42584999Y-186015001D01*
X-6405001Y-185404001D02*
X-5794001Y-186015001D01*
X51270001Y-177329999D02*
X52070000Y-176530000D01*
X-6405001Y-184275999D02*
X-6405001Y-185404001D01*
X3190998Y-174680000D02*
X-6405001Y-184275999D01*
X5080000Y-174680000D02*
X3190998Y-174680000D01*
X83675001Y-158685001D02*
X83349999Y-158359999D01*
X83349999Y-158359999D02*
X82550000Y-157560000D01*
X83675001Y-163100001D02*
X83675001Y-158685001D01*
X76595002Y-170180000D02*
X83675001Y-163100001D01*
X74930000Y-170180000D02*
X76595002Y-170180000D01*
X84880002Y-157480000D02*
X83675001Y-158685001D01*
X87630000Y-157480000D02*
X84880002Y-157480000D01*
X198540001Y-175529999D02*
X199390000Y-174680000D01*
X198214999Y-175855001D02*
X198540001Y-175529999D01*
X106005001Y-175855001D02*
X198214999Y-175855001D01*
X87630000Y-157480000D02*
X106005001Y-175855001D01*
X138450000Y-88900000D02*
X139700000Y-88900000D01*
X138374990Y-88975010D02*
X138450000Y-88900000D01*
X138374990Y-91872857D02*
X138374990Y-88975010D01*
X138987143Y-92485010D02*
X138374990Y-91872857D01*
X140541400Y-92485010D02*
X138987143Y-92485010D01*
X141475019Y-83837152D02*
X141475019Y-91551391D01*
X141475019Y-91551391D02*
X140541400Y-92485010D01*
X140282866Y-82644999D02*
X141475019Y-83837152D01*
X24289999Y-82644999D02*
X140282866Y-82644999D01*
X23774989Y-83160009D02*
X24289999Y-82644999D01*
X23774989Y-99974989D02*
X23774989Y-83160009D01*
X25400000Y-101600000D02*
X23774989Y-99974989D01*
X141025010Y-91364990D02*
X140950000Y-91440000D01*
X140412857Y-85314990D02*
X141025010Y-85927143D01*
X138987143Y-85314990D02*
X140412857Y-85314990D01*
X136767132Y-87535001D02*
X138987143Y-85314990D01*
X25025997Y-87535001D02*
X136767132Y-87535001D01*
X24224999Y-88335999D02*
X25025997Y-87535001D01*
X140950000Y-91440000D02*
X139700000Y-91440000D01*
X141025010Y-85927143D02*
X141025010Y-91364990D01*
X24224999Y-97884999D02*
X24224999Y-88335999D01*
X25400000Y-99060000D02*
X24224999Y-97884999D01*
X140950000Y-93980000D02*
X139700000Y-93980000D01*
X141025010Y-96952857D02*
X141025010Y-94055010D01*
X140412857Y-97565010D02*
X141025010Y-96952857D01*
X141025010Y-94055010D02*
X140950000Y-93980000D01*
X26445010Y-97565010D02*
X140412857Y-97565010D01*
X25400000Y-96520000D02*
X26445010Y-97565010D01*
X139420000Y-96520000D02*
X139700000Y-96520000D01*
X138450000Y-95270000D02*
X138450000Y-95550000D01*
X134620000Y-91440000D02*
X138450000Y-95270000D01*
X138450000Y-95550000D02*
X139420000Y-96520000D01*
X25400000Y-91440000D02*
X134620000Y-91440000D01*
X138450000Y-87330000D02*
X139420000Y-86360000D01*
X139420000Y-86360000D02*
X139700000Y-86360000D01*
X138450000Y-87610000D02*
X138450000Y-87330000D01*
X137160000Y-88900000D02*
X138450000Y-87610000D01*
X25400000Y-88900000D02*
X137160000Y-88900000D01*
X201930000Y-117140000D02*
X201930000Y-118110000D01*
X202230000Y-116840000D02*
X201930000Y-117140000D01*
X210820000Y-116840000D02*
X202230000Y-116840000D01*
X154940000Y-91440000D02*
X158750000Y-91440000D01*
X186690000Y-121620000D02*
X186690000Y-120650000D01*
X186390000Y-121920000D02*
X186690000Y-121620000D01*
X158750000Y-121920000D02*
X186390000Y-121920000D01*
X162560000Y-86080000D02*
X162560000Y-87768630D01*
X155220000Y-78740000D02*
X162560000Y-86080000D01*
X162560000Y-87768630D02*
X162560000Y-88900000D01*
X154940000Y-78740000D02*
X155220000Y-78740000D01*
X147320000Y-78740000D02*
X154940000Y-78740000D01*
X53340000Y-170180000D02*
X52070000Y-171450000D01*
X67310000Y-170180000D02*
X53340000Y-170180000D01*
X154940000Y-76200000D02*
X162560000Y-83820000D01*
X53201370Y-184150000D02*
X52070000Y-184150000D01*
X57170000Y-184150000D02*
X53201370Y-184150000D01*
X66060000Y-175260000D02*
X57170000Y-184150000D01*
X67310000Y-175260000D02*
X66060000Y-175260000D01*
X139420000Y-119380000D02*
X139700000Y-119380000D01*
X138450000Y-120350000D02*
X139420000Y-119380000D01*
X137160000Y-121920000D02*
X138450000Y-120630000D01*
X138450000Y-120630000D02*
X138450000Y-120350000D01*
X130810000Y-121920000D02*
X137160000Y-121920000D01*
X132100000Y-128270000D02*
X126861370Y-128270000D01*
X126861370Y-128270000D02*
X125730000Y-128270000D01*
X138450000Y-121920000D02*
X132100000Y-128270000D01*
X139700000Y-121920000D02*
X138450000Y-121920000D01*
X140950000Y-121920000D02*
X139700000Y-121920000D01*
X144535010Y-125505010D02*
X140950000Y-121920000D01*
X192191988Y-125505010D02*
X144535010Y-125505010D01*
X197771999Y-119924999D02*
X192191988Y-125505010D01*
X198468001Y-119924999D02*
X197771999Y-119924999D01*
X200565001Y-122021999D02*
X198468001Y-119924999D01*
X200565001Y-178265997D02*
X200565001Y-122021999D01*
X189600998Y-189230000D02*
X200565001Y-178265997D01*
X97790000Y-189230000D02*
X189600998Y-189230000D01*
X86498630Y-163830000D02*
X87630000Y-163830000D01*
X75210000Y-172720000D02*
X84100000Y-163830000D01*
X84100000Y-163830000D02*
X86498630Y-163830000D01*
X74930000Y-172720000D02*
X75210000Y-172720000D01*
X184005001Y-134764999D02*
X198120000Y-120650000D01*
X126855001Y-134764999D02*
X184005001Y-134764999D01*
X97790000Y-163830000D02*
X126855001Y-134764999D01*
X86360000Y-177800000D02*
X87630000Y-176530000D01*
X74930000Y-177800000D02*
X86360000Y-177800000D01*
X81280000Y-182880000D02*
X87630000Y-189230000D01*
X74930000Y-182880000D02*
X81280000Y-182880000D01*
X201930000Y-34290000D02*
X209550000Y-34290000D01*
X209550000Y-72390000D02*
X201930000Y-72390000D01*
X201930000Y-34290000D02*
X199390000Y-34290000D01*
X179070000Y-34290000D02*
X176530000Y-34290000D01*
X177744990Y-6405010D02*
X177800000Y-6350000D01*
X73735010Y-6405010D02*
X177744990Y-6405010D01*
X73660000Y-6330000D02*
X73735010Y-6405010D01*
X73660000Y-5080000D02*
X73660000Y-6330000D01*
X160040000Y-24130000D02*
X161290000Y-24130000D01*
X159964999Y-24054999D02*
X160040000Y-24130000D01*
X159964999Y-20609999D02*
X159964999Y-24054999D01*
X161975007Y-18599991D02*
X159964999Y-20609999D01*
X186876401Y-18599991D02*
X161975007Y-18599991D01*
X188015001Y-19738591D02*
X186876401Y-18599991D01*
X188015001Y-24054999D02*
X188015001Y-19738591D01*
X187940000Y-24130000D02*
X188015001Y-24054999D01*
X186690000Y-24130000D02*
X187940000Y-24130000D01*
X159964990Y1214990D02*
X162560000Y3810000D01*
X73735010Y1214990D02*
X159964990Y1214990D01*
X73660000Y1290000D02*
X73735010Y1214990D01*
X73660000Y2540000D02*
X73660000Y1290000D01*
X181610000Y-70130000D02*
X181610000Y-58420000D01*
X186410000Y-74930000D02*
X181610000Y-70130000D01*
X186690000Y-74930000D02*
X186410000Y-74930000D01*
X185440000Y-24130000D02*
X186690000Y-24130000D01*
X185364990Y-24205010D02*
X185440000Y-24130000D01*
X185364990Y-50855010D02*
X185364990Y-24205010D01*
X180340000Y-55880000D02*
X185364990Y-50855010D01*
X201930000Y-39370000D02*
X210820000Y-39370000D01*
X210820000Y-74930000D02*
X201930000Y-74930000D01*
X201930000Y-39370000D02*
X199390000Y-39370000D01*
X179070000Y-39370000D02*
X176530000Y-39370000D01*
X68655010Y-3754990D02*
X179014990Y-3754990D01*
X179014990Y-3754990D02*
X179070000Y-3810000D01*
X68580000Y-3830000D02*
X68655010Y-3754990D01*
X68580000Y-5080000D02*
X68580000Y-3830000D01*
X176530000Y-26670000D02*
X179070000Y-26670000D01*
X199390000Y-26670000D02*
X201930000Y-26670000D01*
X176530000Y-26670000D02*
X173990000Y-26670000D01*
X172720000Y-77470000D02*
X186690000Y-77470000D01*
X174534999Y4535001D02*
X175260000Y3810000D01*
X69325001Y4535001D02*
X174534999Y4535001D01*
X68580000Y3790000D02*
X69325001Y4535001D01*
X68580000Y2540000D02*
X68580000Y3790000D01*
X201930000Y-31750000D02*
X207010000Y-31750000D01*
X207010000Y-77470000D02*
X201930000Y-77470000D01*
X176530000Y-31750000D02*
X179070000Y-31750000D01*
X199390000Y-31750000D02*
X201930000Y-31750000D01*
X192314999Y-3084999D02*
X207010000Y-17780000D01*
X64245001Y-3084999D02*
X192314999Y-3084999D01*
X63500000Y-3830000D02*
X64245001Y-3084999D01*
X63500000Y-5080000D02*
X63500000Y-3830000D01*
X186690000Y-21590000D02*
X186690000Y-19050000D01*
X161290000Y-20620000D02*
X161290000Y-21590000D01*
X162860000Y-19050000D02*
X161290000Y-20620000D01*
X186690000Y-19050000D02*
X162860000Y-19050000D01*
X64970001Y5260001D02*
X163830000Y5260001D01*
X63500000Y3790000D02*
X64970001Y5260001D01*
X63500000Y2540000D02*
X63500000Y3790000D01*
X170180000Y-60177867D02*
X170180000Y-58420000D01*
X188015010Y-77037143D02*
X186952877Y-75975010D01*
X188015010Y-79934990D02*
X188015010Y-77037143D01*
X185977143Y-75975010D02*
X170180000Y-60177867D01*
X186952877Y-75975010D02*
X185977143Y-75975010D01*
X187940000Y-80010000D02*
X188015010Y-79934990D01*
X186690000Y-80010000D02*
X187940000Y-80010000D01*
X185420000Y-20320000D02*
X186690000Y-21590000D01*
X172720000Y-20320000D02*
X185420000Y-20320000D01*
X201930000Y-29210000D02*
X208280000Y-29210000D01*
X208280000Y-80010000D02*
X201930000Y-80010000D01*
X176530000Y-29210000D02*
X179070000Y-29210000D01*
X199390000Y-29210000D02*
X201930000Y-29210000D01*
X199954999Y-29935001D02*
X200680000Y-29210000D01*
X200680000Y-29210000D02*
X201930000Y-29210000D01*
X195231999Y-29935001D02*
X199954999Y-29935001D01*
X194854999Y-29558001D02*
X195231999Y-29935001D01*
X194854999Y-18305263D02*
X194854999Y-29558001D01*
X64839873Y-12749873D02*
X189299609Y-12749873D01*
X189299609Y-12749873D02*
X194854999Y-18305263D01*
X58420000Y-6330000D02*
X64839873Y-12749873D01*
X58420000Y-5080000D02*
X58420000Y-6330000D01*
X223360001Y3904999D02*
X223524265Y4069263D01*
X223524265Y4069263D02*
X223524265Y6354265D01*
X221139999Y3904999D02*
X223360001Y3904999D01*
X217999981Y764981D02*
X221139999Y3904999D01*
X58945019Y764981D02*
X217999981Y764981D01*
X58420000Y1290000D02*
X58945019Y764981D01*
X58420000Y2540000D02*
X58420000Y1290000D01*
X222474990Y-81504990D02*
X189005010Y-81504990D01*
X223520000Y-82550000D02*
X222474990Y-81504990D01*
X187940000Y-82550000D02*
X186690000Y-82550000D01*
X187960000Y-82550000D02*
X187940000Y-82550000D01*
X189005010Y-81504990D02*
X187960000Y-82550000D01*
X-16510000Y-92710000D02*
X-11430000Y-92710000D01*
X-11430000Y7620000D02*
X54610000Y7620000D01*
X58420000Y3810000D02*
X58420000Y2540000D01*
X54610000Y7620000D02*
X58420000Y3810000D01*
X160040000Y-26670000D02*
X161290000Y-26670000D01*
X159514989Y-26144989D02*
X160040000Y-26670000D01*
X159514989Y-20423599D02*
X159514989Y-26144989D01*
X161788606Y-18149982D02*
X159514989Y-20423599D01*
X187062801Y-18149981D02*
X161788606Y-18149982D01*
X188465010Y-19552190D02*
X187062801Y-18149981D01*
X188465010Y-26144990D02*
X188465010Y-19552190D01*
X187940000Y-26670000D02*
X188465010Y-26144990D01*
X186690000Y-26670000D02*
X187940000Y-26670000D01*
X201930000Y-82550000D02*
X222250000Y-82550000D01*
X222250000Y-25400000D02*
X195580000Y-25400000D01*
X153575011Y-27845011D02*
X152400000Y-26670000D01*
X153575011Y-34190811D02*
X153575011Y-27845011D01*
X151850803Y-35915019D02*
X153575011Y-34190811D01*
X54985019Y-35915019D02*
X151850803Y-35915019D01*
X53340000Y-34270000D02*
X54985019Y-35915019D01*
X53340000Y-33020000D02*
X53340000Y-34270000D01*
X201930000Y-44450000D02*
X199390000Y-44450000D01*
X179070000Y-44450000D02*
X176530000Y-44450000D01*
X186690000Y-85090000D02*
X179070000Y-85090000D01*
X154940000Y-111760000D02*
X171450000Y-111760000D01*
X171450000Y-85090000D02*
X179070000Y-85090000D01*
X160040000Y-29210000D02*
X161290000Y-29210000D01*
X161602205Y-17699973D02*
X159064979Y-20237199D01*
X159064979Y-20237199D02*
X159064979Y-28234979D01*
X187249200Y-17699972D02*
X161602205Y-17699973D01*
X188915019Y-19365789D02*
X187249200Y-17699972D01*
X159064979Y-28234979D02*
X160040000Y-29210000D01*
X187940000Y-29210000D02*
X188915019Y-28234981D01*
X188915019Y-28234981D02*
X188915019Y-19365789D01*
X186690000Y-29210000D02*
X187940000Y-29210000D01*
X201930000Y-85090000D02*
X220980000Y-85090000D01*
X219934990Y-28164990D02*
X196625010Y-28164990D01*
X196625010Y-28164990D02*
X195580000Y-29210000D01*
X220980000Y-29210000D02*
X219934990Y-28164990D01*
X153125001Y-34004411D02*
X153125001Y-29935001D01*
X59615010Y-35465010D02*
X151664402Y-35465010D01*
X153125001Y-29935001D02*
X152400000Y-29210000D01*
X151664402Y-35465010D02*
X153125001Y-34004411D01*
X58420000Y-34270000D02*
X59615010Y-35465010D01*
X58420000Y-33020000D02*
X58420000Y-34270000D01*
X201930000Y-46990000D02*
X212090000Y-46990000D01*
X186765010Y-86584990D02*
X186690000Y-86660000D01*
X186690000Y-86660000D02*
X186690000Y-87630000D01*
X211044990Y-86584990D02*
X186765010Y-86584990D01*
X212090000Y-87630000D02*
X211044990Y-86584990D01*
X176530000Y-46990000D02*
X180340000Y-46990000D01*
X199390000Y-46990000D02*
X201930000Y-46990000D01*
X154940000Y-109220000D02*
X184150000Y-109220000D01*
X160040000Y-31750000D02*
X161290000Y-31750000D01*
X158614969Y-20050799D02*
X158614969Y-30324969D01*
X161415804Y-17249964D02*
X158614969Y-20050799D01*
X158614969Y-30324969D02*
X160040000Y-31750000D01*
X187435602Y-17249964D02*
X161415804Y-17249964D01*
X189365029Y-19179391D02*
X187435602Y-17249964D01*
X189365029Y-30324971D02*
X189365029Y-19179391D01*
X187940000Y-31750000D02*
X189365029Y-30324971D01*
X186690000Y-31750000D02*
X187940000Y-31750000D01*
X202210000Y-87630000D02*
X203180000Y-88600000D01*
X217470000Y-88600000D02*
X219710000Y-86360000D01*
X203180000Y-88600000D02*
X217470000Y-88600000D01*
X201930000Y-87630000D02*
X202210000Y-87630000D01*
X195580000Y-30480000D02*
X194310000Y-31750000D01*
X219710000Y-30480000D02*
X195580000Y-30480000D01*
X152400000Y-34093002D02*
X152400000Y-31750000D01*
X151478001Y-35015001D02*
X152400000Y-34093002D01*
X63500000Y-34270000D02*
X64245001Y-35015001D01*
X64245001Y-35015001D02*
X151478001Y-35015001D01*
X63500000Y-33020000D02*
X63500000Y-34270000D01*
X201930000Y-49530000D02*
X198120000Y-49530000D01*
X198120000Y-90170000D02*
X186690000Y-90170000D01*
X186690000Y-90170000D02*
X173990000Y-90170000D01*
X173990000Y-49530000D02*
X176530000Y-49530000D01*
X176530000Y-49530000D02*
X180340000Y-49530000D01*
X196850000Y-49530000D02*
X198120000Y-49530000D01*
X154940000Y-106680000D02*
X167640000Y-106680000D01*
X167640000Y-90170000D02*
X173990000Y-90170000D01*
X160040000Y-34290000D02*
X161290000Y-34290000D01*
X158164959Y-19864399D02*
X158164959Y-32414959D01*
X187622002Y-16799954D02*
X161229403Y-16799955D01*
X161229403Y-16799955D02*
X158164959Y-19864399D01*
X189815038Y-18992990D02*
X187622002Y-16799954D01*
X189815038Y-32414962D02*
X189815038Y-18992990D01*
X158164959Y-32414959D02*
X160040000Y-34290000D01*
X187940000Y-34290000D02*
X189815038Y-32414962D01*
X186690000Y-34290000D02*
X187940000Y-34290000D01*
X201930000Y-90170000D02*
X218440000Y-90170000D01*
X196625010Y-33244990D02*
X195580000Y-34290000D01*
X217394990Y-33244990D02*
X196625010Y-33244990D01*
X218440000Y-34290000D02*
X217394990Y-33244990D01*
X151074990Y-34345010D02*
X151130000Y-34290000D01*
X68655010Y-34345010D02*
X151074990Y-34345010D01*
X68580000Y-34270000D02*
X68655010Y-34345010D01*
X68580000Y-33020000D02*
X68580000Y-34270000D01*
X201930000Y-52070000D02*
X196850000Y-52070000D01*
X196850000Y-92710000D02*
X186690000Y-92710000D01*
X176530000Y-52070000D02*
X180340000Y-52070000D01*
X195580000Y-52070000D02*
X196850000Y-52070000D01*
X154940000Y-104140000D02*
X166370000Y-104140000D01*
X166370000Y-92710000D02*
X186690000Y-92710000D01*
X160040000Y-36830000D02*
X161290000Y-36830000D01*
X157714949Y-34504949D02*
X160040000Y-36830000D01*
X157714949Y-19677999D02*
X157714949Y-34504949D01*
X161043002Y-16349946D02*
X157714949Y-19677999D01*
X187808401Y-16349945D02*
X161043002Y-16349946D01*
X190265047Y-18806589D02*
X187808401Y-16349945D01*
X190265047Y-34504953D02*
X190265047Y-18806589D01*
X187940000Y-36830000D02*
X190265047Y-34504953D01*
X186690000Y-36830000D02*
X187940000Y-36830000D01*
X201930000Y-92710000D02*
X217170000Y-92710000D01*
X196850000Y-38100000D02*
X195580000Y-36830000D01*
X217170000Y-38100000D02*
X196850000Y-38100000D01*
X154940000Y-88900000D02*
X148590000Y-88900000D01*
X201930000Y-54610000D02*
X196125000Y-54610000D01*
X195580000Y-95250000D02*
X186690000Y-95250000D01*
X176530000Y-54610000D02*
X180340000Y-54610000D01*
X194310000Y-54610000D02*
X196125000Y-54610000D01*
X154940000Y-101600000D02*
X165100000Y-101600000D01*
X165100000Y-95250000D02*
X186690000Y-95250000D01*
X160040000Y-39370000D02*
X161290000Y-39370000D01*
X157264939Y-36594939D02*
X160040000Y-39370000D01*
X187994805Y-15899937D02*
X160856601Y-15899937D01*
X160856601Y-15899937D02*
X157264939Y-19491599D01*
X190715057Y-18620189D02*
X187994805Y-15899937D01*
X157264939Y-19491599D02*
X157264939Y-36594939D01*
X190715057Y-35624943D02*
X190715057Y-18620189D01*
X186970000Y-39370000D02*
X190715057Y-35624943D01*
X186690000Y-39370000D02*
X186970000Y-39370000D01*
X201930000Y-95250000D02*
X215900000Y-95250000D01*
X196850000Y-40640000D02*
X195580000Y-39370000D01*
X215900000Y-40640000D02*
X196850000Y-40640000D01*
X154940000Y-86360000D02*
X149860000Y-86360000D01*
X160040000Y-52070000D02*
X161290000Y-52070000D01*
X155014889Y-18559599D02*
X155014889Y-47044889D01*
X192965103Y-17688185D02*
X188926809Y-13649891D01*
X192965103Y-47044897D02*
X192965103Y-17688185D01*
X155014889Y-47044889D02*
X160040000Y-52070000D01*
X188926809Y-13649891D02*
X159924596Y-13649892D01*
X187940000Y-52070000D02*
X192965103Y-47044897D01*
X159924596Y-13649892D02*
X155014889Y-18559599D01*
X186690000Y-52070000D02*
X187940000Y-52070000D01*
X154940000Y-98090000D02*
X155240000Y-97790000D01*
X185440000Y-97790000D02*
X186690000Y-97790000D01*
X155240000Y-97790000D02*
X185440000Y-97790000D01*
X154940000Y-99060000D02*
X154940000Y-98090000D01*
X185440000Y-52070000D02*
X186690000Y-52070000D01*
X185007508Y-56025001D02*
X185007508Y-52502492D01*
X185007508Y-52502492D02*
X185440000Y-52070000D01*
X185407507Y-56425000D02*
X185007508Y-56025001D01*
X156814929Y-38684929D02*
X160040000Y-41910000D01*
X156814929Y-19305199D02*
X156814929Y-38684929D01*
X160670200Y-15449928D02*
X156814929Y-19305199D01*
X188181205Y-15449927D02*
X160670200Y-15449928D01*
X191165066Y-18433788D02*
X188181205Y-15449927D01*
X191165066Y-38684934D02*
X191165066Y-18433788D01*
X187940000Y-41910000D02*
X191165066Y-38684934D01*
X186690000Y-41910000D02*
X187940000Y-41910000D01*
X160040000Y-41910000D02*
X161290000Y-41910000D01*
X201930000Y-97790000D02*
X214630000Y-97790000D01*
X214630000Y-43180000D02*
X200660000Y-43180000D01*
X154940000Y-83820000D02*
X151130000Y-83820000D01*
X160040000Y-49530000D02*
X161290000Y-49530000D01*
X155464899Y-44954899D02*
X160040000Y-49530000D01*
X160110997Y-14099901D02*
X155464899Y-18745999D01*
X155464899Y-18745999D02*
X155464899Y-44954899D01*
X188740409Y-14099901D02*
X160110997Y-14099901D01*
X192515094Y-17874586D02*
X188740409Y-14099901D01*
X192515094Y-44954906D02*
X192515094Y-17874586D01*
X187940000Y-49530000D02*
X192515094Y-44954906D01*
X186690000Y-49530000D02*
X187940000Y-49530000D01*
X154940000Y-96520000D02*
X160020000Y-96520000D01*
X160020000Y-100330000D02*
X186690000Y-100330000D01*
X156364919Y-40774919D02*
X160040000Y-44450000D01*
X156364919Y-19118799D02*
X156364919Y-40774919D01*
X160483799Y-14999919D02*
X156364919Y-19118799D01*
X188367604Y-14999918D02*
X160483799Y-14999919D01*
X191615075Y-18247387D02*
X188367604Y-14999918D01*
X191615075Y-40774925D02*
X191615075Y-18247387D01*
X187940000Y-44450000D02*
X191615075Y-40774925D01*
X160040000Y-44450000D02*
X161290000Y-44450000D01*
X186690000Y-44450000D02*
X187940000Y-44450000D01*
X201930000Y-100330000D02*
X213360000Y-100330000D01*
X213360000Y-45720000D02*
X195580000Y-45720000D01*
X154940000Y-81280000D02*
X152400000Y-81280000D01*
X160040000Y-46990000D02*
X161290000Y-46990000D01*
X155914909Y-42864909D02*
X160040000Y-46990000D01*
X192065084Y-42864916D02*
X192065084Y-18060986D01*
X155914909Y-18932399D02*
X155914909Y-42864909D01*
X188554003Y-14549909D02*
X160297398Y-14549910D01*
X187940000Y-46990000D02*
X192065084Y-42864916D01*
X160297398Y-14549910D02*
X155914909Y-18932399D01*
X192065084Y-18060986D02*
X188554003Y-14549909D01*
X186690000Y-46990000D02*
X187940000Y-46990000D01*
X154940000Y-93980000D02*
X157480000Y-93980000D01*
X157480000Y-102870000D02*
X186690000Y-102870000D01*
X157460000Y-120650000D02*
X168910000Y-120650000D01*
X156190000Y-121920000D02*
X157460000Y-120650000D01*
X154940000Y-121920000D02*
X156190000Y-121920000D01*
X168910000Y-105410000D02*
X186690000Y-105410000D01*
X7620000Y-102870000D02*
X19050000Y-114300000D01*
X-16510000Y-102870000D02*
X7620000Y-102870000D01*
X200680000Y-114000000D02*
X201650000Y-113030000D01*
X200680000Y-114280000D02*
X200680000Y-114000000D01*
X201650000Y-113030000D02*
X201930000Y-113030000D01*
X190500000Y-124460000D02*
X200680000Y-114280000D01*
X154940000Y-124460000D02*
X190500000Y-124460000D01*
X185440000Y-117140000D02*
X186410000Y-118110000D01*
X185440000Y-116860000D02*
X185440000Y-117140000D01*
X186410000Y-118110000D02*
X186690000Y-118110000D01*
X182880000Y-114300000D02*
X185440000Y-116860000D01*
X154940000Y-114300000D02*
X182880000Y-114300000D01*
X-23347867Y-46990000D02*
X-27940000Y-51582133D01*
X-24130000Y-46990000D02*
X-23347867Y-46990000D01*
X154864990Y-115345010D02*
X154940000Y-115270000D01*
X154940000Y-115270000D02*
X154940000Y-114300000D01*
X27227143Y-115345010D02*
X154864990Y-115345010D01*
X-27940000Y-60177867D02*
X27227143Y-115345010D01*
X-27940000Y-51582133D02*
X-27940000Y-60177867D01*
X-15240000Y-90170000D02*
X-10160000Y-85090000D01*
X-16510000Y-90170000D02*
X-15240000Y-90170000D01*
X153670000Y-57150000D02*
X203200000Y-57150000D01*
X146050000Y-49530000D02*
X153670000Y-57150000D01*
X-24842857Y-10384990D02*
X-29210000Y-14752133D01*
X-18805010Y-10384990D02*
X-24842857Y-10384990D01*
X-17760000Y-11430000D02*
X-18805010Y-10384990D01*
X-16510000Y-11430000D02*
X-17760000Y-11430000D01*
X-29210000Y-14752133D02*
X-29210000Y-86340000D01*
X-29210000Y-86340000D02*
X-25380000Y-90170000D01*
X135273590Y-124460000D02*
X139308580Y-120425010D01*
X154940000Y-120350000D02*
X154940000Y-119380000D01*
X139308580Y-120425010D02*
X154864990Y-120425010D01*
X-25455010Y-103302857D02*
X-4297867Y-124460000D01*
X-25455010Y-90245010D02*
X-25455010Y-103302857D01*
X154864990Y-120425010D02*
X154940000Y-120350000D01*
X-4297867Y-124460000D02*
X135273590Y-124460000D01*
X-25380000Y-90170000D02*
X-25455010Y-90245010D01*
X-24130000Y-90170000D02*
X-25380000Y-90170000D01*
X154940000Y-117810000D02*
X154940000Y-116840000D01*
X-5277859Y-116407143D02*
X137509276Y-116407143D01*
X-22315001Y-99370001D02*
X-5277859Y-116407143D01*
X154864990Y-117885010D02*
X154940000Y-117810000D01*
X137509276Y-116407143D02*
X138987143Y-117885010D01*
X-22315001Y-89164999D02*
X-22315001Y-99370001D01*
X138987143Y-117885010D02*
X154864990Y-117885010D01*
X-23850000Y-87630000D02*
X-22315001Y-89164999D01*
X-24130000Y-87630000D02*
X-23850000Y-87630000D01*
X-17760000Y-8890000D02*
X-16510000Y-8890000D01*
X-17835010Y-8814990D02*
X-17760000Y-8890000D01*
X-17835010Y-3377143D02*
X-17835010Y-8814990D01*
X-10592857Y3865010D02*
X-17835010Y-3377143D01*
X55804990Y3865010D02*
X-10592857Y3865010D01*
X55880000Y3790000D02*
X55804990Y3865010D01*
X55880000Y2540000D02*
X55880000Y3790000D01*
X54810001Y-2359999D02*
X168910000Y-2359999D01*
X53340000Y-3830000D02*
X54810001Y-2359999D01*
X53340000Y-5080000D02*
X53340000Y-3830000D01*
X168910000Y-41910000D02*
X176530000Y-41910000D01*
X154025021Y-27025021D02*
X152400000Y-25400000D01*
X154025021Y-34377211D02*
X154025021Y-27025021D01*
X152037204Y-36365028D02*
X154025021Y-34377211D01*
X-22880000Y-49530000D02*
X-9715028Y-36365028D01*
X-9715028Y-36365028D02*
X152037204Y-36365028D01*
X175280000Y-35860000D02*
X176250000Y-36830000D01*
X176250000Y-36830000D02*
X176530000Y-36830000D01*
X175280000Y-35580000D02*
X175280000Y-35860000D01*
X165100000Y-25400000D02*
X175280000Y-35580000D01*
X162560000Y-25400000D02*
X165100000Y-25400000D01*
X-17835010Y-100254990D02*
X-17760000Y-100330000D01*
X-17835010Y-92167123D02*
X-17835010Y-100254990D01*
X-17760000Y-100330000D02*
X-16510000Y-100330000D01*
X-22869999Y-45944999D02*
X-25390001Y-45944999D01*
X-22804999Y-46009999D02*
X-22869999Y-45944999D01*
X-25390001Y-45944999D02*
X-28390010Y-48945008D01*
X-22804999Y-49454999D02*
X-22804999Y-46009999D01*
X-28390010Y-81612123D02*
X-17835010Y-92167123D01*
X-28390010Y-48945008D02*
X-28390010Y-81612123D01*
X-22880000Y-49530000D02*
X-22804999Y-49454999D01*
X-24130000Y-49530000D02*
X-22880000Y-49530000D01*
X-1270000Y-95250000D02*
X1270000Y-92710000D01*
X-16510000Y-95250000D02*
X-1270000Y-95250000D01*
X148590000Y-8890000D02*
X171450000Y-8890000D01*
X171450000Y-24130000D02*
X176530000Y-24130000D01*
X-15260000Y-6350000D02*
X-16510000Y-6350000D01*
X53882868Y-6405001D02*
X-15204999Y-6405001D01*
X72165010Y-24687143D02*
X53882868Y-6405001D01*
X72165010Y-32944990D02*
X72165010Y-24687143D01*
X72090000Y-33020000D02*
X72165010Y-32944990D01*
X-15204999Y-6405001D02*
X-15260000Y-6350000D01*
X71120000Y-33020000D02*
X72090000Y-33020000D01*
X-24130000Y-52070000D02*
X-21590000Y-54610000D01*
X-15260000Y-97790000D02*
X-16510000Y-97790000D01*
X-15184990Y-97865010D02*
X-15260000Y-97790000D01*
X-15184990Y-100762857D02*
X-15184990Y-97865010D01*
X-15797143Y-101375010D02*
X-15184990Y-100762857D01*
X-18004990Y-101375010D02*
X-15797143Y-101375010D01*
X-21590000Y-97790000D02*
X-18004990Y-101375010D01*
M02*
