M48
; DRILL file {KiCad (5.1.5-0)} date Saturday, September 26, 2020 at 07:30:47 PM
; FORMAT={-:-/ absolute / inch / decimal}
; #@! TF.CreationDate,2020-09-26T19:30:47-04:00
; #@! TF.GenerationSoftware,Kicad,Pcbnew,(5.1.5-0)
FMAT,2
INCH
T1C0.0157
T2C0.0315
T3C0.0394
%
G90
G05
T1
X-0.85Y-2.15
X-0.85Y-3.85
X-0.45Y0.3
X-0.45Y-3.65
X-0.4Y-3.35
X0.05Y-3.65
X0.75Y-4.5
X5.75Y-1.95
X5.8Y-3.1
X5.85Y-0.35
X5.85Y-3.5
X5.9Y-3.4
X5.95Y-1.35
X5.95Y-3.3
X6.0Y-1.0
X6.0Y-1.05
X6.0Y-1.15
X6.0Y-1.25
X6.0Y-3.2
X6.2Y-3.7
X6.2Y-4.05
X6.25Y-3.6
X6.25Y-4.8
X6.3Y-3.8
X6.3Y-3.95
X6.4Y0.15
X6.4Y-1.0
X6.45Y0.2071
X6.45Y-0.2
X6.5Y-3.75
X6.5Y-4.0
X6.55Y-3.65
X6.55Y-4.1
X6.6Y-3.55
X6.6Y-4.2
X6.65Y-0.0929
X6.65Y-1.65
X6.65Y-4.15
X6.65Y-4.75
X6.7Y-2.3
X6.75Y-0.35
X6.75Y-0.95
X6.75Y-3.35
X6.75Y-4.4
X6.8Y-0.8
X6.8Y-3.05
X6.85Y-1.05
X6.85Y-1.95
X6.85Y-3.55
X6.9Y0.15
X7.0Y-0.25
X7.05Y-0.15
X7.05Y-1.05
X7.05Y-1.15
X7.05Y-1.25
X7.05Y-1.35
X7.05Y-1.55
X7.05Y-1.75
X7.05Y-3.35
X7.1Y-1.85
X7.1Y-1.95
X7.1Y-2.05
X7.1Y-2.15
X7.1Y-2.2
X7.15Y-2.3
X7.25Y-4.3
X7.2995Y-2.2215
X7.65Y-1.25
X7.65Y-2.15
X7.7Y-1.0
X7.7Y-1.15
X7.7Y-1.35
X7.7Y-1.45
X7.7Y-1.55
X7.7Y-1.8
X7.7Y-2.05
X7.7Y-3.75
X7.7215Y-2.15
X7.75Y-1.95
X7.75Y-2.05
X7.75Y-3.65
X7.8Y-1.95
X7.8Y-3.55
X7.8Y-4.75
X7.85Y-1.05
X7.85Y-1.15
X7.85Y-1.25
X7.85Y-1.35
X7.85Y-1.55
X7.85Y-1.75
X7.85Y-1.85
X7.9Y-1.7
X8.0Y-2.25
X8.15Y-0.7
X8.15Y-1.25
X8.15Y-3.05
X8.2Y-1.15
X8.2Y-3.15
X8.25Y-1.35
X8.25Y-2.85
X8.3Y-1.55
X8.3Y-2.95
X8.35Y-1.85
X8.35Y-3.45
X8.4Y-1.8
X8.4Y-3.95
X8.45Y-1.7
X8.45Y-3.85
X8.5Y-1.6
X8.5Y-3.75
X8.55Y-1.5
X8.55Y-3.65
X8.6Y-1.35
X8.6Y-3.55
X8.65Y-1.2
X8.65Y-3.4
X8.7Y-1.15
X8.7Y-3.35
X8.75Y-1.0
X8.75Y-3.25
X8.8Y-3.25
X8.8002Y0.2502
T2
X6.4Y-2.9
X6.4Y-3.3
X6.9Y-4.25
X6.9Y-4.65
X3.45Y-6.7
X3.85Y-6.7
X6.4Y-3.5
X6.4Y-3.9
X3.25Y-6.9531
X3.25Y-7.15
X7.25Y-5.35
X7.25Y-5.75
X2.25Y-6.4531
X2.25Y-6.65
X5.15Y-4.4
X5.15Y-4.8
X3.45Y-7.2
X3.85Y-7.2
X3.25Y-6.2031
X3.25Y-6.4
X2.25Y-6.8531
X2.25Y-7.05
X4.95Y-4.65
X4.95Y-5.05
X1.65Y-6.75
X2.05Y-6.75
X3.45Y-6.45
X3.85Y-6.45
X1.65Y-7.25
X2.05Y-7.25
X1.65Y-6.95
X2.05Y-6.95
X3.45Y-6.95
X3.85Y-6.95
X3.45Y-6.2
X3.85Y-6.2
X8.4Y-4.85
X8.4Y-5.15
X9.0Y-4.85
X9.0Y-5.15
X1.65Y-6.55
X2.05Y-6.55
X8.6531Y-0.6
X8.85Y-0.6
X3.25Y-6.6031
X3.25Y-6.8
X8.3Y-4.2
X8.3Y-4.6
X3.45Y-7.45
X3.85Y-7.45
T3
X2.65Y-6.6
X2.65Y-6.7
X2.65Y-6.8
X2.65Y-6.9
X2.65Y-7.0
X2.65Y-7.1
X2.65Y-7.2
X2.95Y-6.6
X2.95Y-6.7
X2.95Y-6.8
X2.95Y-6.9
X2.95Y-7.0
X2.95Y-7.1
X2.95Y-7.2
X7.85Y-6.7
X7.85Y-6.8772
X8.1059Y-6.7
X8.1059Y-6.8772
X-0.2Y-6.3
X-0.2Y-6.4772
X0.0559Y-6.3
X0.0559Y-6.4772
X7.35Y-2.85
X7.35Y-2.95
X7.35Y-3.05
X7.35Y-3.15
X7.35Y-3.25
X7.35Y-3.35
X7.35Y-3.45
X7.35Y-3.55
X7.35Y-3.65
X7.35Y-3.75
X7.35Y-3.85
X7.35Y-3.95
X7.35Y-4.05
X7.35Y-4.15
X7.35Y-4.25
X7.35Y-4.35
X7.35Y-4.45
X7.35Y-4.55
X7.35Y-4.65
X7.35Y-4.75
X7.95Y-2.85
X7.95Y-2.95
X7.95Y-3.05
X7.95Y-3.15
X7.95Y-3.25
X7.95Y-3.35
X7.95Y-3.45
X7.95Y-3.55
X7.95Y-3.65
X7.95Y-3.75
X7.95Y-3.85
X7.95Y-3.95
X7.95Y-4.05
X7.95Y-4.15
X7.95Y-4.25
X7.95Y-4.35
X7.95Y-4.45
X7.95Y-4.55
X7.95Y-4.65
X7.95Y-4.75
X2.0Y-1.0
X2.0Y-1.3
X2.1Y-1.0
X2.1Y-1.3
X2.2Y-1.0
X2.2Y-1.3
X2.3Y-1.0
X2.3Y-1.3
X2.4Y-1.0
X2.4Y-1.3
X2.5Y-1.0
X2.5Y-1.3
X2.6Y-1.0
X2.6Y-1.3
X2.7Y-1.0
X2.7Y-1.3
X2.8Y-1.0
X2.8Y-1.3
X2.9Y-1.0
X2.9Y-1.3
X-0.95Y-0.15
X-0.95Y-0.25
X-0.95Y-0.35
X-0.95Y-0.45
X-0.95Y-0.55
X-0.95Y-0.65
X-0.95Y-0.75
X-0.65Y-0.15
X-0.65Y-0.25
X-0.65Y-0.35
X-0.65Y-0.45
X-0.65Y-0.55
X-0.65Y-0.65
X-0.65Y-0.75
X7.85Y-5.95
X7.85Y-6.1272
X8.1059Y-5.95
X8.1059Y-6.1272
X6.35Y-0.85
X6.35Y-0.95
X6.35Y-1.05
X6.35Y-1.15
X6.35Y-1.25
X6.35Y-1.35
X6.35Y-1.45
X6.35Y-1.55
X6.35Y-1.65
X6.35Y-1.75
X6.35Y-1.85
X6.35Y-1.95
X6.35Y-2.05
X6.35Y-2.15
X6.95Y-0.85
X6.95Y-0.95
X6.95Y-1.05
X6.95Y-1.15
X6.95Y-1.25
X6.95Y-1.35
X6.95Y-1.45
X6.95Y-1.55
X6.95Y-1.65
X6.95Y-1.75
X6.95Y-1.85
X6.95Y-1.95
X6.95Y-2.05
X6.95Y-2.15
X5.5Y-3.0
X5.5Y-3.1
X5.5Y-3.2
X5.5Y-3.3
X5.5Y-3.4
X5.5Y-3.5
X5.5Y-3.6
X5.5Y-3.7
X5.5Y-3.8
X5.5Y-3.9
X5.5Y-4.0
X5.5Y-4.1
X5.5Y-4.2
X5.5Y-4.3
X5.5Y-4.4
X5.5Y-4.5
X5.5Y-4.6
X5.5Y-4.7
X5.5Y-4.8
X5.5Y-4.9
X6.1Y-3.0
X6.1Y-3.1
X6.1Y-3.2
X6.1Y-3.3
X6.1Y-3.4
X6.1Y-3.5
X6.1Y-3.6
X6.1Y-3.7
X6.1Y-3.8
X6.1Y-3.9
X6.1Y-4.0
X6.1Y-4.1
X6.1Y-4.2
X6.1Y-4.3
X6.1Y-4.4
X6.1Y-4.5
X6.1Y-4.6
X6.1Y-4.7
X6.1Y-4.8
X6.1Y-4.9
X8.75Y0.2
X8.75Y0.1
X-0.2059Y-7.1
X-0.2059Y-7.2772
X0.05Y-7.1
X0.05Y-7.2772
X2.1Y0.1
X2.1Y-0.2
X2.2Y0.1
X2.2Y-0.2
X2.3Y0.1
X2.3Y-0.2
X2.4Y0.1
X2.4Y-0.2
X2.5Y0.1
X2.5Y-0.2
X2.6Y0.1
X2.6Y-0.2
X2.7Y0.1
X2.7Y-0.2
X2.8Y0.1
X2.8Y-0.2
X2.9Y0.1
X2.9Y-0.2
X3.0Y0.1
X3.0Y-0.2
X-0.95Y-1.85
X-0.95Y-1.95
X-0.95Y-2.05
X-0.95Y-2.15
X-0.95Y-2.25
X-0.95Y-2.35
X-0.95Y-2.45
X-0.65Y-1.85
X-0.65Y-1.95
X-0.65Y-2.05
X-0.65Y-2.15
X-0.65Y-2.25
X-0.65Y-2.35
X-0.65Y-2.45
X-0.95Y-3.45
X-0.95Y-3.55
X-0.95Y-3.65
X-0.95Y-3.75
X-0.95Y-3.85
X-0.95Y-3.95
X-0.95Y-4.05
X-0.65Y-3.45
X-0.65Y-3.55
X-0.65Y-3.65
X-0.65Y-3.75
X-0.65Y-3.85
X-0.65Y-3.95
X-0.65Y-4.05
X0.2Y-6.7
X0.2Y-6.8772
X0.4559Y-6.7
X0.4559Y-6.8772
X7.35Y-0.85
X7.35Y-0.95
X7.35Y-1.05
X7.35Y-1.15
X7.35Y-1.25
X7.35Y-1.35
X7.35Y-1.45
X7.35Y-1.55
X7.35Y-1.65
X7.35Y-1.75
X7.35Y-1.85
X7.35Y-1.95
X7.35Y-2.05
X7.35Y-2.15
X7.95Y-0.85
X7.95Y-0.95
X7.95Y-1.05
X7.95Y-1.15
X7.95Y-1.25
X7.95Y-1.35
X7.95Y-1.45
X7.95Y-1.55
X7.95Y-1.65
X7.95Y-1.75
X7.95Y-1.85
X7.95Y-1.95
X7.95Y-2.05
X7.95Y-2.15
X-0.6Y-6.7
X-0.6Y-6.8772
X-0.3441Y-6.7
X-0.3441Y-6.8772
X1.0Y-3.3
X1.0Y-3.4
X1.0Y-3.5
X1.0Y-3.6
X1.0Y-3.7
X1.0Y-3.8
X1.0Y-3.9
X1.0Y-4.0
X1.0Y-4.1
X1.0Y-4.2
T0
M30
